<svg width="321" height="125" viewBox="0 0 321 125" fill="none" xmlns="http://www.w3.org/2000/svg">
<path d="M18.548 3.2C24.416 3.2 29.06 4.892 32.48 8.276C35.9 11.66 37.61 16.214 37.61 21.938C37.61 25.034 37.088 27.824 36.044 30.308C35.036 32.792 33.65 34.808 31.886 36.356C30.122 37.868 28.106 39.02 25.838 39.812C23.606 40.604 21.23 41 18.71 41H0.62V40.73C1.808 40.262 2.672 39.614 3.212 38.786C3.788 37.958 4.076 36.662 4.076 34.898V9.086C4.076 7.358 3.806 6.116 3.266 5.36C2.726 4.604 1.844 3.974 0.62 3.47V3.2H18.548ZM16.226 39.38C18.566 39.38 20.366 38.948 21.626 38.084C22.922 37.184 23.876 35.546 24.488 33.17C25.136 30.794 25.46 27.392 25.46 22.964C25.46 18.284 25.118 14.612 24.434 11.948C23.75 9.284 22.76 7.43 21.464 6.386C20.168 5.342 18.422 4.82 16.226 4.82H15.416V39.38H16.226ZM63.6527 11.84H64.4627V21.614H64.1927C63.4727 21.182 62.4107 20.966 61.0067 20.966C59.0987 20.966 57.6587 21.578 56.6867 22.802C55.7147 24.026 55.2287 26.276 55.2287 29.552V36.68C55.2287 38.84 56.4707 40.19 58.9547 40.73V41H42.3227V40.73C44.0867 39.974 44.9687 38.624 44.9687 36.68V20.804C44.9687 18.068 44.0867 16.412 42.3227 15.836V15.566L54.7967 11.84V25.124H55.1207C55.4807 16.268 58.3247 11.84 63.6527 11.84ZM79.6555 9.896C78.6475 10.904 77.3875 11.408 75.8755 11.408C74.3635 11.408 73.0855 10.904 72.0415 9.896C71.0335 8.852 70.5295 7.592 70.5295 6.116C70.5295 4.64 71.0335 3.38 72.0415 2.336C73.0855 1.292 74.3635 0.769997 75.8755 0.769997C77.3875 0.769997 78.6475 1.292 79.6555 2.336C80.6995 3.38 81.2215 4.64 81.2215 6.116C81.2215 7.592 80.6995 8.852 79.6555 9.896ZM81.2755 36.68C81.2755 38.624 82.1575 39.974 83.9215 40.73V41H68.3695V40.73C70.1335 39.974 71.0155 38.624 71.0155 36.68V20.102C71.0155 18.806 70.8175 17.834 70.4215 17.186C70.0255 16.538 69.3415 16.07 68.3695 15.782V15.512L81.2755 11.84V36.68ZM101.325 41.54L90.3086 16.916C89.3006 14.684 88.1126 13.352 86.7446 12.92V12.65H103.593V12.92C102.009 13.28 101.217 14.09 101.217 15.35C101.217 15.854 101.397 16.556 101.757 17.456L106.077 27.662L110.397 17.456C110.757 16.556 110.937 15.872 110.937 15.404C110.937 14.108 110.145 13.28 108.561 12.92V12.65H116.121V12.92C114.753 13.28 113.565 14.612 112.557 16.916L101.649 41.54H101.325ZM134.417 33.764C137.153 33.764 139.205 32.81 140.573 30.902L141.005 31.01C140.645 32.99 140.051 34.718 139.223 36.194C138.395 37.634 137.423 38.75 136.307 39.542C135.227 40.334 134.129 40.91 133.013 41.27C131.897 41.63 130.763 41.81 129.611 41.81C126.263 41.81 123.365 40.532 120.917 37.976C118.505 35.42 117.299 31.892 117.299 27.392C117.299 22.856 118.487 19.13 120.863 16.214C123.275 13.298 126.317 11.84 129.989 11.84C131.285 11.84 132.527 12.038 133.715 12.434C134.903 12.794 136.073 13.424 137.225 14.324C138.413 15.188 139.349 16.502 140.033 18.266C140.753 20.03 141.113 22.118 141.113 24.53H125.561C125.957 27.554 126.911 29.858 128.423 31.442C129.971 32.99 131.969 33.764 134.417 33.764ZM131.285 15.674C130.745 14.306 129.917 13.622 128.801 13.622C127.685 13.622 126.821 14.306 126.209 15.674C125.633 17.006 125.345 18.896 125.345 21.344C125.345 22.028 125.363 22.532 125.399 22.856H132.095C132.095 19.436 131.825 17.042 131.285 15.674ZM17.468 105.764C20.204 105.764 22.256 104.81 23.624 102.902L24.056 103.01C23.696 104.99 23.102 106.718 22.274 108.194C21.446 109.634 20.474 110.75 19.358 111.542C18.278 112.334 17.18 112.91 16.064 113.27C14.948 113.63 13.814 113.81 12.662 113.81C9.314 113.81 6.416 112.532 3.968 109.976C1.556 107.42 0.35 103.892 0.35 99.392C0.35 94.856 1.538 91.13 3.914 88.214C6.326 85.298 9.368 83.84 13.04 83.84C14.336 83.84 15.578 84.038 16.766 84.434C17.954 84.794 19.124 85.424 20.276 86.324C21.464 87.188 22.4 88.502 23.084 90.266C23.804 92.03 24.164 94.118 24.164 96.53H8.612C9.008 99.554 9.962 101.858 11.474 103.442C13.022 104.99 15.02 105.764 17.468 105.764ZM14.336 87.674C13.796 86.306 12.968 85.622 11.852 85.622C10.736 85.622 9.872 86.306 9.26 87.674C8.684 89.006 8.396 90.896 8.396 93.344C8.396 94.028 8.414 94.532 8.45 94.856H15.146C15.146 91.436 14.876 89.042 14.336 87.674ZM57.1714 108.68C57.1714 110.624 58.0534 111.974 59.8174 112.73V113H45.3454V112.73C46.3894 112.226 46.9114 111.056 46.9114 109.22V91.67C46.9114 89.474 46.0834 88.376 44.4274 88.376C43.3114 88.376 42.4294 88.826 41.7814 89.726V109.22C41.7814 111.056 42.3034 112.226 43.3474 112.73V113H28.8754V112.73C30.6394 111.974 31.5214 110.624 31.5214 108.68V92.102C31.5214 90.806 31.3234 89.834 30.9274 89.186C30.5314 88.538 29.8474 88.07 28.8754 87.782V87.512L41.7814 83.84V88.754C43.0054 85.478 45.5254 83.84 49.3414 83.84C51.8254 83.84 53.7514 84.524 55.1194 85.892C56.4874 87.26 57.1714 89.186 57.1714 91.67V108.68ZM84.0203 106.088C86.4323 106.304 88.3223 107.024 89.6903 108.248C91.0943 109.472 91.7963 111.236 91.7963 113.54C91.7963 114.764 91.5443 115.97 91.0403 117.158C90.5723 118.382 89.7983 119.57 88.7183 120.722C87.6383 121.874 86.0543 122.81 83.9663 123.53C81.8783 124.25 79.4123 124.61 76.5683 124.61C71.9243 124.61 68.5763 124.088 66.5243 123.044C64.4723 122 63.4463 120.452 63.4463 118.4C63.4463 117.392 63.8063 116.438 64.5263 115.538C65.2823 114.638 66.2723 114.008 67.4963 113.648C65.6243 112.388 64.6882 110.462 64.6882 107.87C64.6882 106.286 65.1563 104.828 66.0923 103.496C67.0283 102.128 68.1623 101.228 69.4943 100.796C66.4703 99.068 64.9583 96.53 64.9583 93.182C64.9583 90.338 66.0743 88.07 68.3063 86.378C70.5743 84.686 73.5803 83.84 77.3243 83.84C79.3763 83.84 81.2483 84.11 82.9403 84.65H91.4182V86H85.8023C88.4663 87.692 89.7983 90.086 89.7983 93.182C89.7983 96.062 88.6643 98.348 86.3963 100.04C84.1283 101.732 81.1043 102.578 77.3243 102.578C74.7323 102.578 72.5003 102.164 70.6283 101.336C69.7283 101.696 69.2783 102.272 69.2783 103.064C69.2783 104.36 70.2143 105.062 72.0863 105.17L84.0203 106.088ZM79.9703 93.56C79.9703 87.872 79.1063 85.028 77.3783 85.028C75.6503 85.028 74.7863 87.872 74.7863 93.56C74.7863 98.744 75.6503 101.336 77.3783 101.336C79.1063 101.336 79.9703 98.744 79.9703 93.56ZM79.2143 122.396C81.6623 122.396 83.5883 122.018 84.9923 121.262C86.3963 120.542 87.0983 119.534 87.0983 118.238C87.0983 117.59 86.8283 117.068 86.2883 116.672C85.7483 116.312 84.6863 116.06 83.1023 115.916L71.1143 114.782C70.4303 114.746 69.7283 114.602 69.0083 114.35C68.9003 114.782 68.8463 115.232 68.8463 115.7C68.8463 117.716 69.7643 119.336 71.6003 120.56C73.4363 121.784 75.9743 122.396 79.2143 122.396ZM124.68 106.196L125.22 106.25C124.788 108.734 123.798 110.624 122.25 111.92C120.702 113.18 118.83 113.81 116.634 113.81C114.798 113.81 113.322 113.378 112.206 112.514C111.09 111.65 110.388 110.462 110.1 108.95L109.938 108.896C109.47 110.372 108.606 111.56 107.346 112.46C106.122 113.36 104.592 113.81 102.756 113.81C100.596 113.81 98.868 113.126 97.572 111.758C96.312 110.39 95.682 108.752 95.682 106.844C95.682 104.432 96.618 102.398 98.49 100.742C100.362 99.086 102.936 97.916 106.212 97.232L109.776 96.476V95.558C109.776 91.31 107.886 89.186 104.106 89.186C102.342 89.186 100.902 89.6 99.786 90.428C98.67 91.22 97.77 92.606 97.086 94.586L96.708 94.478C97.176 91.13 98.454 88.52 100.542 86.648C102.666 84.776 105.438 83.84 108.858 83.84C112.674 83.84 115.482 84.956 117.282 87.188C119.118 89.384 120.036 92.39 120.036 96.206V105.71C120.036 106.61 120.234 107.294 120.63 107.762C121.026 108.194 121.512 108.41 122.088 108.41C123.42 108.41 124.284 107.672 124.68 106.196ZM108.264 108.41C108.984 108.41 109.488 108.212 109.776 107.816V98.096L109.02 98.258C106.284 98.798 104.916 100.706 104.916 103.982C104.916 105.35 105.222 106.43 105.834 107.222C106.446 108.014 107.256 108.41 108.264 108.41ZM148.612 106.088C151.024 106.304 152.914 107.024 154.282 108.248C155.686 109.472 156.388 111.236 156.388 113.54C156.388 114.764 156.136 115.97 155.632 117.158C155.164 118.382 154.39 119.57 153.31 120.722C152.23 121.874 150.646 122.81 148.558 123.53C146.47 124.25 144.004 124.61 141.16 124.61C136.516 124.61 133.168 124.088 131.116 123.044C129.064 122 128.038 120.452 128.038 118.4C128.038 117.392 128.398 116.438 129.118 115.538C129.874 114.638 130.864 114.008 132.088 113.648C130.216 112.388 129.28 110.462 129.28 107.87C129.28 106.286 129.748 104.828 130.684 103.496C131.62 102.128 132.754 101.228 134.086 100.796C131.062 99.068 129.55 96.53 129.55 93.182C129.55 90.338 130.666 88.07 132.898 86.378C135.166 84.686 138.172 83.84 141.916 83.84C143.968 83.84 145.84 84.11 147.532 84.65H156.01V86H150.394C153.058 87.692 154.39 90.086 154.39 93.182C154.39 96.062 153.256 98.348 150.988 100.04C148.72 101.732 145.696 102.578 141.916 102.578C139.324 102.578 137.092 102.164 135.22 101.336C134.32 101.696 133.87 102.272 133.87 103.064C133.87 104.36 134.806 105.062 136.678 105.17L148.612 106.088ZM144.562 93.56C144.562 87.872 143.698 85.028 141.97 85.028C140.242 85.028 139.378 87.872 139.378 93.56C139.378 98.744 140.242 101.336 141.97 101.336C143.698 101.336 144.562 98.744 144.562 93.56ZM143.806 122.396C146.254 122.396 148.18 122.018 149.584 121.262C150.988 120.542 151.69 119.534 151.69 118.238C151.69 117.59 151.42 117.068 150.88 116.672C150.34 116.312 149.278 116.06 147.694 115.916L135.706 114.782C135.022 114.746 134.32 114.602 133.6 114.35C133.492 114.782 133.438 115.232 133.438 115.7C133.438 117.716 134.356 119.336 136.192 120.56C138.028 121.784 140.566 122.396 143.806 122.396ZM177.128 105.764C179.864 105.764 181.916 104.81 183.284 102.902L183.716 103.01C183.356 104.99 182.762 106.718 181.934 108.194C181.106 109.634 180.134 110.75 179.018 111.542C177.938 112.334 176.84 112.91 175.724 113.27C174.608 113.63 173.474 113.81 172.322 113.81C168.974 113.81 166.076 112.532 163.628 109.976C161.216 107.42 160.01 103.892 160.01 99.392C160.01 94.856 161.198 91.13 163.574 88.214C165.986 85.298 169.028 83.84 172.7 83.84C173.996 83.84 175.238 84.038 176.426 84.434C177.614 84.794 178.784 85.424 179.936 86.324C181.124 87.188 182.06 88.502 182.744 90.266C183.464 92.03 183.824 94.118 183.824 96.53H168.272C168.668 99.554 169.622 101.858 171.134 103.442C172.682 104.99 174.68 105.764 177.128 105.764ZM173.996 87.674C173.456 86.306 172.628 85.622 171.512 85.622C170.396 85.622 169.532 86.306 168.92 87.674C168.344 89.006 168.056 90.896 168.056 93.344C168.056 94.028 168.074 94.532 168.11 94.856H174.806C174.806 91.436 174.536 89.042 173.996 87.674ZM231.142 108.68C231.142 110.624 232.024 111.974 233.788 112.73V113H219.586V112.73C220.27 112.406 220.702 111.92 220.882 111.272V91.724C220.882 89.492 220.054 88.376 218.398 88.376C217.39 88.376 216.634 88.898 216.13 89.942C216.238 90.482 216.292 91.076 216.292 91.724V109.22C216.292 111.056 216.814 112.226 217.858 112.73V113H204.466V112.73C205.51 112.226 206.032 111.056 206.032 109.22V91.724C206.032 89.492 205.204 88.376 203.548 88.376C202.648 88.376 201.946 88.826 201.442 89.726V109.22C201.442 111.056 201.964 112.226 203.008 112.73V113H188.536V112.73C190.3 111.974 191.182 110.624 191.182 108.68V92.102C191.182 90.806 190.984 89.834 190.588 89.186C190.192 88.538 189.508 88.07 188.536 87.782V87.512L201.442 83.84V88.808C202.558 85.496 204.898 83.84 208.462 83.84C210.442 83.84 212.08 84.29 213.376 85.19C214.672 86.09 215.536 87.386 215.968 89.078C216.364 87.566 217.246 86.324 218.614 85.352C220.018 84.344 221.584 83.84 223.312 83.84C225.76 83.84 227.668 84.542 229.036 85.946C230.44 87.314 231.142 89.24 231.142 91.724V108.68ZM254.534 105.764C257.27 105.764 259.322 104.81 260.69 102.902L261.122 103.01C260.762 104.99 260.168 106.718 259.34 108.194C258.512 109.634 257.54 110.75 256.424 111.542C255.344 112.334 254.246 112.91 253.13 113.27C252.014 113.63 250.88 113.81 249.728 113.81C246.38 113.81 243.482 112.532 241.034 109.976C238.622 107.42 237.416 103.892 237.416 99.392C237.416 94.856 238.604 91.13 240.98 88.214C243.392 85.298 246.434 83.84 250.106 83.84C251.402 83.84 252.644 84.038 253.832 84.434C255.02 84.794 256.19 85.424 257.342 86.324C258.53 87.188 259.466 88.502 260.15 90.266C260.87 92.03 261.23 94.118 261.23 96.53H245.678C246.074 99.554 247.028 101.858 248.54 103.442C250.088 104.99 252.086 105.764 254.534 105.764ZM251.402 87.674C250.862 86.306 250.034 85.622 248.918 85.622C247.802 85.622 246.938 86.306 246.326 87.674C245.75 89.006 245.462 90.896 245.462 93.344C245.462 94.028 245.48 94.532 245.516 94.856H252.212C252.212 91.436 251.942 89.042 251.402 87.674ZM294.238 108.68C294.238 110.624 295.12 111.974 296.884 112.73V113H282.412V112.73C283.456 112.226 283.978 111.056 283.978 109.22V91.67C283.978 89.474 283.15 88.376 281.494 88.376C280.378 88.376 279.496 88.826 278.848 89.726V109.22C278.848 111.056 279.37 112.226 280.414 112.73V113H265.942V112.73C267.706 111.974 268.588 110.624 268.588 108.68V92.102C268.588 90.806 268.39 89.834 267.994 89.186C267.598 88.538 266.914 88.07 265.942 87.782V87.512L278.848 83.84V88.754C280.072 85.478 282.592 83.84 286.408 83.84C288.892 83.84 290.818 84.524 292.186 85.892C293.554 87.26 294.238 89.186 294.238 91.67V108.68ZM320.385 105.656L320.871 105.818C320.187 108.05 318.999 109.94 317.307 111.488C315.615 113.036 313.455 113.81 310.827 113.81C308.379 113.81 306.525 113.108 305.265 111.704C304.041 110.264 303.429 108.374 303.429 106.034V86.162H300.783V85.892C302.043 84.812 304.113 83.12 306.993 80.816C309.909 78.476 312.123 76.64 313.635 75.308H313.689V84.758H318.657V86.108H313.689V104.576C313.689 105.764 313.941 106.7 314.445 107.384C314.949 108.068 315.669 108.41 316.605 108.41C318.477 108.41 319.737 107.492 320.385 105.656Z" fill="black"/>
</svg>
