<svg width="270" height="123" viewBox="0 0 270 123" fill="none" xmlns="http://www.w3.org/2000/svg">
<path d="M30.217 24.16H30.482L29.051 39H0.59V38.735C1.756 38.2757 2.604 37.6397 3.134 36.827C3.69933 36.0143 3.982 34.7423 3.982 33.011V7.677C3.982 5.981 3.717 4.762 3.187 4.02C2.657 3.278 1.79133 2.65966 0.59 2.165V1.9H28.521L29.369 15.15H29.104C28.1147 11.7227 26.4717 8.93133 24.175 6.776C21.9137 4.58533 19.3343 3.49 16.437 3.49H15.112V19.178H15.642C17.868 19.178 19.6877 18.595 21.101 17.429C22.5143 16.2277 23.5037 14.7613 24.069 13.03H24.334V27.552H24.069C23.5037 25.644 22.4967 24.054 21.048 22.782C19.6347 21.4747 17.8327 20.821 15.642 20.821H15.112V37.41H16.437C19.723 37.41 22.4613 36.3323 24.652 34.177C26.8427 31.9863 28.6977 28.6473 30.217 24.16ZM62.5342 34.76C62.5342 35.9967 62.7462 36.88 63.1702 37.41C63.5942 37.9047 64.2479 38.3463 65.1312 38.735V39H52.4642V34.283C51.9342 35.9083 51.0332 37.2333 49.7612 38.258C48.5246 39.2827 46.9699 39.795 45.0972 39.795C42.1999 39.795 39.9032 38.5407 38.2072 36.032C36.5112 33.488 35.6632 30.1843 35.6632 26.121C35.6632 21.5277 36.8822 17.7647 39.3202 14.832C41.7582 11.864 44.8499 10.38 48.5952 10.38C50.2206 10.38 51.5102 10.7333 52.4642 11.44V8.366C52.4642 7.306 52.1286 6.458 51.4572 5.822C50.8212 5.186 49.8496 4.868 48.5422 4.868V4.603L62.5342 0.309999V34.76ZM50.5562 34.495C51.4396 34.495 52.0756 34.124 52.4642 33.382V12.712C52.1109 12.3587 51.5986 12.182 50.9272 12.182C49.5492 12.182 48.4716 13.242 47.6942 15.362C46.9169 17.4467 46.5282 20.132 46.5282 23.418C46.5282 26.8453 46.9169 29.5483 47.6942 31.527C48.4716 33.5057 49.4256 34.495 50.5562 34.495ZM96.2518 34.76C96.2518 35.9967 96.4638 36.88 96.8878 37.41C97.3118 37.9047 97.9655 38.3463 98.8488 38.735V39H86.1818V34.23C85.6872 35.8553 84.8038 37.198 83.5318 38.258C82.2952 39.2827 80.7758 39.795 78.9738 39.795C74.0625 39.795 71.6068 36.986 71.6068 31.368V17.058C71.6068 15.7507 71.4125 14.779 71.0238 14.143C70.6352 13.4717 69.9638 12.9947 69.0098 12.712V12.447L81.6768 10.38V31.474C81.6768 33.488 82.5072 34.495 84.1678 34.495C85.0865 34.495 85.7578 34.124 86.1818 33.382V17.005C86.1818 14.567 85.5812 13.083 84.3798 12.553V12.288L96.2518 10.38V34.76ZM115.565 39.795C111.89 39.795 108.904 38.4877 106.608 35.873C104.346 33.2583 103.216 29.831 103.216 25.591C103.216 21.1743 104.523 17.535 107.138 14.673C109.788 11.811 113.197 10.38 117.367 10.38C121.041 10.38 124.257 11.1397 127.013 12.659L122.985 22.252L122.72 22.199C122.578 19.4783 121.96 17.4467 120.865 16.104C119.769 14.7613 118.409 14.09 116.784 14.09C114.734 14.09 113.197 14.779 112.173 16.157C111.183 17.535 110.689 19.3547 110.689 21.616C110.689 24.1953 111.466 26.545 113.021 28.665C114.611 30.785 116.872 31.845 119.805 31.845C122.843 31.845 124.981 30.7673 126.218 28.612L126.536 28.718C126.324 32.004 125.193 34.6717 123.144 36.721C121.13 38.7703 118.603 39.795 115.565 39.795ZM159.09 32.322L159.62 32.375C159.196 34.813 158.224 36.668 156.705 37.94C155.185 39.1767 153.348 39.795 151.193 39.795C149.391 39.795 147.942 39.371 146.847 38.523C145.751 37.675 145.062 36.509 144.78 35.025L144.621 34.972C144.161 36.4207 143.313 37.5867 142.077 38.47C140.875 39.3533 139.374 39.795 137.572 39.795C135.452 39.795 133.756 39.1237 132.484 37.781C131.247 36.4383 130.629 34.8307 130.629 32.958C130.629 30.5907 131.547 28.5943 133.385 26.969C135.222 25.3437 137.748 24.1953 140.964 23.524L144.462 22.782V21.881C144.462 17.7117 142.607 15.627 138.897 15.627C137.165 15.627 135.752 16.0333 134.657 16.846C133.561 17.6233 132.678 18.9837 132.007 20.927L131.636 20.821C132.095 17.535 133.349 14.9733 135.399 13.136C137.483 11.2987 140.204 10.38 143.561 10.38C147.306 10.38 150.062 11.4753 151.829 13.666C153.631 15.8213 154.532 18.7717 154.532 22.517V31.845C154.532 32.7283 154.726 33.3997 155.115 33.859C155.503 34.283 155.98 34.495 156.546 34.495C157.853 34.495 158.701 33.7707 159.09 32.322ZM142.978 34.495C143.684 34.495 144.179 34.3007 144.462 33.912V24.372L143.72 24.531C141.034 25.061 139.692 26.9337 139.692 30.149C139.692 31.4917 139.992 32.5517 140.593 33.329C141.193 34.1063 141.988 34.495 142.978 34.495ZM181.927 31.792L182.404 31.951C181.732 34.1417 180.566 35.9967 178.906 37.516C177.245 39.0353 175.125 39.795 172.546 39.795C170.143 39.795 168.323 39.106 167.087 37.728C165.885 36.3147 165.285 34.4597 165.285 32.163V12.659H162.688V12.394C163.924 11.334 165.956 9.67333 168.783 7.412C171.645 5.11533 173.818 3.31333 175.302 2.006H175.355V11.281H180.231V12.606H175.355V30.732C175.355 31.898 175.602 32.8167 176.097 33.488C176.591 34.1593 177.298 34.495 178.217 34.495C180.054 34.495 181.291 33.594 181.927 31.792ZM202.515 31.898C205.2 31.898 207.214 30.9617 208.557 29.089L208.981 29.195C208.627 31.1383 208.044 32.8343 207.232 34.283C206.419 35.6963 205.465 36.7917 204.37 37.569C203.31 38.3463 202.232 38.9117 201.137 39.265C200.041 39.6183 198.928 39.795 197.798 39.795C194.512 39.795 191.667 38.5407 189.265 36.032C186.897 33.5233 185.714 30.0607 185.714 25.644C185.714 21.192 186.88 17.535 189.212 14.673C191.579 11.811 194.565 10.38 198.169 10.38C199.441 10.38 200.66 10.5743 201.826 10.963C202.992 11.3163 204.14 11.9347 205.271 12.818C206.437 13.666 207.355 14.9557 208.027 16.687C208.733 18.4183 209.087 20.4677 209.087 22.835H193.823C194.211 25.803 195.148 28.0643 196.632 29.619C198.151 31.1383 200.112 31.898 202.515 31.898ZM199.441 14.143C198.911 12.8003 198.098 12.129 197.003 12.129C195.907 12.129 195.059 12.8003 194.459 14.143C193.893 15.4503 193.611 17.3053 193.611 19.708C193.611 20.3793 193.628 20.874 193.664 21.192H200.236C200.236 17.8353 199.971 15.4857 199.441 14.143ZM17.126 103.898C19.8113 103.898 21.8253 102.962 23.168 101.089L23.592 101.195C23.2387 103.138 22.6557 104.834 21.843 106.283C21.0303 107.696 20.0763 108.792 18.981 109.569C17.921 110.346 16.8433 110.912 15.748 111.265C14.6527 111.618 13.5397 111.795 12.409 111.795C9.123 111.795 6.27867 110.541 3.876 108.032C1.50867 105.523 0.325 102.061 0.325 97.644C0.325 93.192 1.491 89.535 3.823 86.673C6.19033 83.811 9.176 82.38 12.78 82.38C14.052 82.38 15.271 82.5743 16.437 82.963C17.603 83.3163 18.7513 83.9347 19.882 84.818C21.048 85.666 21.9667 86.9557 22.638 88.687C23.3447 90.4183 23.698 92.4677 23.698 94.835H8.434C8.82267 97.803 9.759 100.064 11.243 101.619C12.7623 103.138 14.7233 103.898 17.126 103.898ZM14.052 86.143C13.522 84.8003 12.7093 84.129 11.614 84.129C10.5187 84.129 9.67067 84.8003 9.07 86.143C8.50467 87.4503 8.222 89.3053 8.222 91.708C8.222 92.3793 8.23967 92.874 8.275 93.192H14.847C14.847 89.8353 14.582 87.4857 14.052 86.143ZM70.1762 106.76C70.1762 108.668 71.0418 109.993 72.7732 110.735V111H58.8342V110.735C59.5055 110.417 59.9295 109.94 60.1062 109.304V90.118C60.1062 87.9273 59.2935 86.832 57.6682 86.832C56.6788 86.832 55.9368 87.3443 55.4422 88.369C55.5482 88.899 55.6012 89.482 55.6012 90.118V107.29C55.6012 109.092 56.1135 110.24 57.1382 110.735V111H43.9942V110.735C45.0188 110.24 45.5312 109.092 45.5312 107.29V90.118C45.5312 87.9273 44.7185 86.832 43.0932 86.832C42.2098 86.832 41.5208 87.2737 41.0262 88.157V107.29C41.0262 109.092 41.5385 110.24 42.5632 110.735V111H28.3592V110.735C30.0905 109.993 30.9562 108.668 30.9562 106.76V90.489C30.9562 89.217 30.7618 88.263 30.3732 87.627C29.9845 86.991 29.3132 86.5317 28.3592 86.249V85.984L41.0262 82.38V87.256C42.1215 84.0053 44.4182 82.38 47.9162 82.38C49.8595 82.38 51.4672 82.8217 52.7392 83.705C54.0112 84.5883 54.8592 85.8603 55.2832 87.521C55.6718 86.037 56.5375 84.818 57.8802 83.864C59.2582 82.8747 60.7952 82.38 62.4912 82.38C64.8938 82.38 66.7665 83.069 68.1092 84.447C69.4872 85.7897 70.1762 87.68 70.1762 90.118V106.76ZM76.6182 121.6V121.335C78.3496 120.593 79.2152 119.268 79.2152 117.36V90.489C79.2152 89.217 79.0209 88.263 78.6322 87.627C78.2436 86.991 77.5722 86.5317 76.6182 86.249V85.984L89.2852 82.38V86.779C89.9212 85.3657 90.8929 84.288 92.2002 83.546C93.5429 82.7687 94.9739 82.38 96.4932 82.38C99.3552 82.38 101.67 83.599 103.436 86.037C105.203 88.475 106.086 91.6727 106.086 95.63C106.086 100.435 104.85 104.34 102.376 107.343C99.9382 110.311 96.7229 111.795 92.7302 111.795C91.3876 111.795 90.2392 111.512 89.2852 110.947V117.36C89.2852 119.48 90.5042 120.805 92.9422 121.335V121.6H76.6182ZM90.8752 110.099C92.1826 110.099 93.2249 109.074 94.0022 107.025C94.8149 104.976 95.2212 102.273 95.2212 98.916C95.2212 95.1707 94.8149 92.2203 94.0022 90.065C93.1896 87.9097 92.0589 86.832 90.6102 86.832C90.0449 86.832 89.6032 87.044 89.2852 87.468V109.516C89.7092 109.905 90.2392 110.099 90.8752 110.099ZM123.381 106.76C123.381 108.668 124.247 109.993 125.978 110.735V111H110.714V110.735C112.446 109.993 113.311 108.668 113.311 106.76V80.419C113.311 78.3697 112.446 77.0447 110.714 76.444V76.179L123.381 72.31V106.76ZM155.333 107.714C152.612 110.435 149.132 111.795 144.892 111.795C140.652 111.795 137.172 110.435 134.451 107.714C131.73 104.958 130.37 101.407 130.37 97.061C130.37 92.715 131.73 89.1817 134.451 86.461C137.172 83.7403 140.652 82.38 144.892 82.38C149.132 82.38 152.612 83.7403 155.333 86.461C158.054 89.1817 159.414 92.715 159.414 97.061C159.414 101.407 158.054 104.958 155.333 107.714ZM141.871 106.813C142.507 108.721 143.514 109.675 144.892 109.675C146.27 109.675 147.259 108.721 147.86 106.813C148.496 104.87 148.814 101.619 148.814 97.061C148.814 92.503 148.496 89.27 147.86 87.362C147.259 85.4187 146.27 84.447 144.892 84.447C143.514 84.447 142.507 85.4187 141.871 87.362C141.27 89.27 140.97 92.503 140.97 97.061C140.97 101.619 141.27 104.87 141.871 106.813ZM164.745 122.395C162.378 122.395 160.293 121.794 158.491 120.593L161.459 112.484H161.724C162.501 113.226 163.526 113.809 164.798 114.233C166.07 114.657 167.201 114.869 168.19 114.869C171.405 114.869 173.561 114.074 174.656 112.484L174.868 112.166L163.95 87.574C162.89 85.2773 161.724 83.8993 160.452 83.44V83.175H176.564V83.44C175.08 83.9347 174.338 84.7297 174.338 85.825C174.338 86.673 174.497 87.5033 174.815 88.316L179.055 99.34L183.189 88.952C183.578 87.998 183.772 87.1323 183.772 86.355C183.772 84.8003 182.942 83.8287 181.281 83.44V83.175H189.231V83.44C188.418 83.7227 187.729 84.2173 187.164 84.924C186.634 85.6307 186.086 86.726 185.521 88.21L175.928 112.908C174.55 116.441 172.978 118.897 171.211 120.275C169.444 121.688 167.289 122.395 164.745 122.395ZM207.225 103.898C209.91 103.898 211.924 102.962 213.267 101.089L213.691 101.195C213.337 103.138 212.754 104.834 211.942 106.283C211.129 107.696 210.175 108.792 209.08 109.569C208.02 110.346 206.942 110.912 205.847 111.265C204.751 111.618 203.638 111.795 202.508 111.795C199.222 111.795 196.377 110.541 193.975 108.032C191.607 105.523 190.424 102.061 190.424 97.644C190.424 93.192 191.59 89.535 193.922 86.673C196.289 83.811 199.275 82.38 202.879 82.38C204.151 82.38 205.37 82.5743 206.536 82.963C207.702 83.3163 208.85 83.9347 209.981 84.818C211.147 85.666 212.065 86.9557 212.737 88.687C213.443 90.4183 213.797 92.4677 213.797 94.835H198.533C198.921 97.803 199.858 100.064 201.342 101.619C202.861 103.138 204.822 103.898 207.225 103.898ZM204.151 86.143C203.621 84.8003 202.808 84.129 201.713 84.129C200.617 84.129 199.769 84.8003 199.169 86.143C198.603 87.4503 198.321 89.3053 198.321 91.708C198.321 92.3793 198.338 92.874 198.374 93.192H204.946C204.946 89.8353 204.681 87.4857 204.151 86.143ZM235.518 103.898C238.203 103.898 240.217 102.962 241.56 101.089L241.984 101.195C241.63 103.138 241.047 104.834 240.235 106.283C239.422 107.696 238.468 108.792 237.373 109.569C236.313 110.346 235.235 110.912 234.14 111.265C233.044 111.618 231.931 111.795 230.801 111.795C227.515 111.795 224.67 110.541 222.268 108.032C219.9 105.523 218.717 102.061 218.717 97.644C218.717 93.192 219.883 89.535 222.215 86.673C224.582 83.811 227.568 82.38 231.172 82.38C232.444 82.38 233.663 82.5743 234.829 82.963C235.995 83.3163 237.143 83.9347 238.274 84.818C239.44 85.666 240.358 86.9557 241.03 88.687C241.736 90.4183 242.09 92.4677 242.09 94.835H226.826C227.214 97.803 228.151 100.064 229.635 101.619C231.154 103.138 233.115 103.898 235.518 103.898ZM232.444 86.143C231.914 84.8003 231.101 84.129 230.006 84.129C228.91 84.129 228.062 84.8003 227.462 86.143C226.896 87.4503 226.614 89.3053 226.614 91.708C226.614 92.3793 226.631 92.874 226.667 93.192H233.239C233.239 89.8353 232.974 87.4857 232.444 86.143ZM257.133 111.795C253.14 111.795 249.589 110.541 246.48 108.032L249.66 100.877L249.978 100.93C250.649 103.333 251.833 105.364 253.529 107.025C255.26 108.65 257.115 109.463 259.094 109.463C260.436 109.463 261.408 109.18 262.009 108.615C262.609 108.014 262.91 107.308 262.91 106.495C262.91 105.258 262.291 104.375 261.055 103.845L252.84 100.029C249.377 98.4037 247.646 95.789 247.646 92.185C247.646 89.6763 248.653 87.415 250.667 85.401C252.681 83.387 255.631 82.38 259.518 82.38C263.298 82.38 266.567 83.4047 269.323 85.454L266.037 91.602L265.719 91.549C263.987 86.8497 261.214 84.5 257.398 84.5C255.066 84.5 253.9 85.3127 253.9 86.938C253.9 88.21 254.642 89.1993 256.126 89.906L263.917 93.51C267.203 95.0647 268.846 97.5557 268.846 100.983C268.846 103.916 267.821 106.46 265.772 108.615C263.758 110.735 260.878 111.795 257.133 111.795Z" fill="black"/>
</svg>
