<svg width="354" height="112" viewBox="0 0 354 112" fill="none" xmlns="http://www.w3.org/2000/svg">
<path d="M16.914 40.06C11.9673 40.06 7.957 38.2933 4.883 34.76C1.84433 31.2267 0.325 26.5803 0.325 20.821C0.325 15.0263 2.10933 10.2563 5.678 6.511C9.24667 2.73033 13.7517 0.839998 19.193 0.839998C23.857 0.839998 28.1677 1.88233 32.125 3.967L27.726 15.998L27.461 15.945C27.0017 12.341 25.924 9.60267 24.228 7.73C22.532 5.85733 20.2707 4.921 17.444 4.921C14.8647 4.921 12.8153 5.83967 11.296 7.677C9.812 9.479 9.07 11.9347 9.07 15.044C9.07 19.8493 10.342 23.736 12.886 26.704C15.43 29.672 18.7513 31.156 22.85 31.156C25.182 31.156 27.0193 30.785 28.362 30.043C29.74 29.301 30.7647 28.1173 31.436 26.492L31.807 26.651C29.793 35.5903 24.8287 40.06 16.914 40.06ZM53.5967 31.898C56.282 31.898 58.296 30.9617 59.6387 29.089L60.0627 29.195C59.7094 31.1383 59.1264 32.8343 58.3137 34.283C57.501 35.6963 56.547 36.7917 55.4517 37.569C54.3917 38.3463 53.314 38.9117 52.2187 39.265C51.1234 39.6183 50.0104 39.795 48.8797 39.795C45.5937 39.795 42.7494 38.5407 40.3467 36.032C37.9794 33.5233 36.7957 30.0607 36.7957 25.644C36.7957 21.192 37.9617 17.535 40.2937 14.673C42.661 11.811 45.6467 10.38 49.2507 10.38C50.5227 10.38 51.7417 10.5743 52.9077 10.963C54.0737 11.3163 55.222 11.9347 56.3527 12.818C57.5187 13.666 58.4374 14.9557 59.1087 16.687C59.8154 18.4183 60.1687 20.4677 60.1687 22.835H44.9047C45.2934 25.803 46.2297 28.0643 47.7137 29.619C49.233 31.1383 51.194 31.898 53.5967 31.898ZM50.5227 14.143C49.9927 12.8003 49.18 12.129 48.0847 12.129C46.9894 12.129 46.1414 12.8003 45.5407 14.143C44.9754 15.4503 44.6927 17.3053 44.6927 19.708C44.6927 20.3793 44.7104 20.874 44.7457 21.192H51.3177C51.3177 17.8353 51.0527 15.4857 50.5227 14.143ZM77.4907 34.76C77.4907 36.668 78.3563 37.993 80.0877 38.735V39H64.8237V38.735C66.555 37.993 67.4207 36.668 67.4207 34.76V8.419C67.4207 6.36966 66.555 5.04466 64.8237 4.444V4.179L77.4907 0.309999V34.76ZM101.28 31.898C103.966 31.898 105.98 30.9617 107.322 29.089L107.746 29.195C107.393 31.1383 106.81 32.8343 105.997 34.283C105.185 35.6963 104.231 36.7917 103.135 37.569C102.075 38.3463 100.998 38.9117 99.9023 39.265C98.807 39.6183 97.694 39.795 96.5633 39.795C93.2773 39.795 90.433 38.5407 88.0303 36.032C85.663 33.5233 84.4793 30.0607 84.4793 25.644C84.4793 21.192 85.6453 17.535 87.9773 14.673C90.3446 11.811 93.3303 10.38 96.9343 10.38C98.2063 10.38 99.4253 10.5743 100.591 10.963C101.757 11.3163 102.906 11.9347 104.036 12.818C105.202 13.666 106.121 14.9557 106.792 16.687C107.499 18.4183 107.852 20.4677 107.852 22.835H92.5883C92.977 25.803 93.9133 28.0643 95.3973 29.619C96.9166 31.1383 98.8776 31.898 101.28 31.898ZM98.2063 14.143C97.6763 12.8003 96.8636 12.129 95.7683 12.129C94.673 12.129 93.825 12.8003 93.2243 14.143C92.659 15.4503 92.3763 17.3053 92.3763 19.708C92.3763 20.3793 92.394 20.874 92.4293 21.192H99.0013C99.0013 17.8353 98.7363 15.4857 98.2063 14.143ZM132.647 10.38C135.333 10.38 137.506 11.5107 139.166 13.772C140.862 15.998 141.71 18.9307 141.71 22.57C141.71 27.87 140.138 32.0747 136.993 35.184C133.849 38.258 129.838 39.795 124.962 39.795C121.182 39.795 117.807 39.0353 114.839 37.516V8.419C114.839 6.36966 113.974 5.04466 112.242 4.444V4.179L124.909 0.309999V14.673C125.581 13.295 126.623 12.235 128.036 11.493C129.45 10.751 130.987 10.38 132.647 10.38ZM126.499 37.993C127.842 37.993 128.902 37.0213 129.679 35.078C130.457 33.0993 130.845 30.202 130.845 26.386C130.845 22.4287 130.439 19.5137 129.626 17.641C128.849 15.7683 127.807 14.832 126.499 14.832C125.687 14.832 125.157 15.097 124.909 15.627V37.569C125.298 37.8517 125.828 37.993 126.499 37.993ZM167.538 10.38H168.333V19.973H168.068C167.362 19.549 166.319 19.337 164.941 19.337C163.069 19.337 161.655 19.9377 160.701 21.139C159.747 22.3403 159.27 24.5487 159.27 27.764V34.76C159.27 36.88 160.489 38.205 162.927 38.735V39H146.603V38.735C148.335 37.993 149.2 36.668 149.2 34.76V19.178C149.2 16.4927 148.335 14.8673 146.603 14.302V14.037L158.846 10.38V23.418H159.164C159.518 14.726 162.309 10.38 167.538 10.38ZM200.666 32.322L201.196 32.375C200.772 34.813 199.8 36.668 198.281 37.94C196.762 39.1767 194.924 39.795 192.769 39.795C190.967 39.795 189.518 39.371 188.423 38.523C187.328 37.675 186.639 36.509 186.356 35.025L186.197 34.972C185.738 36.4207 184.89 37.5867 183.653 38.47C182.452 39.3533 180.95 39.795 179.148 39.795C177.028 39.795 175.332 39.1237 174.06 37.781C172.823 36.4383 172.205 34.8307 172.205 32.958C172.205 30.5907 173.124 28.5943 174.961 26.969C176.798 25.3437 179.325 24.1953 182.54 23.524L186.038 22.782V21.881C186.038 17.7117 184.183 15.627 180.473 15.627C178.742 15.627 177.328 16.0333 176.233 16.846C175.138 17.6233 174.254 18.9837 173.583 20.927L173.212 20.821C173.671 17.535 174.926 14.9733 176.975 13.136C179.06 11.2987 181.78 10.38 185.137 10.38C188.882 10.38 191.638 11.4753 193.405 13.666C195.207 15.8213 196.108 18.7717 196.108 22.517V31.845C196.108 32.7283 196.302 33.3997 196.691 33.859C197.08 34.283 197.557 34.495 198.122 34.495C199.429 34.495 200.277 33.7707 200.666 32.322ZM184.554 34.495C185.261 34.495 185.755 34.3007 186.038 33.912V24.372L185.296 24.531C182.611 25.061 181.268 26.9337 181.268 30.149C181.268 31.4917 181.568 32.5517 182.169 33.329C182.77 34.1063 183.565 34.495 184.554 34.495ZM223.503 31.792L223.98 31.951C223.308 34.1417 222.142 35.9967 220.482 37.516C218.821 39.0353 216.701 39.795 214.122 39.795C211.719 39.795 209.899 39.106 208.663 37.728C207.461 36.3147 206.861 34.4597 206.861 32.163V12.659H204.264V12.394C205.5 11.334 207.532 9.67333 210.359 7.412C213.221 5.11533 215.394 3.31333 216.878 2.006H216.931V11.281H221.807V12.606H216.931V30.732C216.931 31.898 217.178 32.8167 217.673 33.488C218.167 34.1593 218.874 34.495 219.793 34.495C221.63 34.495 222.867 33.594 223.503 31.792ZM244.091 31.898C246.776 31.898 248.79 30.9617 250.133 29.089L250.557 29.195C250.204 31.1383 249.621 32.8343 248.808 34.283C247.995 35.6963 247.041 36.7917 245.946 37.569C244.886 38.3463 243.808 38.9117 242.713 39.265C241.618 39.6183 240.505 39.795 239.374 39.795C236.088 39.795 233.244 38.5407 230.841 36.032C228.474 33.5233 227.29 30.0607 227.29 25.644C227.29 21.192 228.456 17.535 230.788 14.673C233.155 11.811 236.141 10.38 239.745 10.38C241.017 10.38 242.236 10.5743 243.402 10.963C244.568 11.3163 245.716 11.9347 246.847 12.818C248.013 13.666 248.932 14.9557 249.603 16.687C250.31 18.4183 250.663 20.4677 250.663 22.835H235.399C235.788 25.803 236.724 28.0643 238.208 29.619C239.727 31.1383 241.688 31.898 244.091 31.898ZM241.017 14.143C240.487 12.8003 239.674 12.129 238.579 12.129C237.484 12.129 236.636 12.8003 236.035 14.143C235.47 15.4503 235.187 17.3053 235.187 19.708C235.187 20.3793 235.205 20.874 235.24 21.192H241.812C241.812 17.8353 241.547 15.4857 241.017 14.143ZM28.786 104.322L29.316 104.375C28.892 106.813 27.9203 108.668 26.401 109.94C24.8817 111.177 23.0443 111.795 20.889 111.795C19.087 111.795 17.6383 111.371 16.543 110.523C15.4477 109.675 14.7587 108.509 14.476 107.025L14.317 106.972C13.8577 108.421 13.0097 109.587 11.773 110.47C10.5717 111.353 9.07 111.795 7.268 111.795C5.148 111.795 3.452 111.124 2.18 109.781C0.943333 108.438 0.325 106.831 0.325 104.958C0.325 102.591 1.24367 100.594 3.081 98.969C4.91833 97.3437 7.44467 96.1953 10.66 95.524L14.158 94.782V93.881C14.158 89.7117 12.303 87.627 8.593 87.627C6.86167 87.627 5.44833 88.0333 4.353 88.846C3.25767 89.6233 2.37433 90.9837 1.703 92.927L1.332 92.821C1.79133 89.535 3.04567 86.9733 5.095 85.136C7.17967 83.2987 9.90033 82.38 13.257 82.38C17.0023 82.38 19.7583 83.4753 21.525 85.666C23.327 87.8213 24.228 90.7717 24.228 94.517V103.845C24.228 104.728 24.4223 105.4 24.811 105.859C25.1997 106.283 25.6767 106.495 26.242 106.495C27.5493 106.495 28.3973 105.771 28.786 104.322ZM12.674 106.495C13.3807 106.495 13.8753 106.301 14.158 105.912V96.372L13.416 96.531C10.7307 97.061 9.388 98.9337 9.388 102.149C9.388 103.492 9.68833 104.552 10.289 105.329C10.8897 106.106 11.6847 106.495 12.674 106.495ZM45.2629 111.795C41.5882 111.795 38.6025 110.488 36.3059 107.873C34.0445 105.258 32.9139 101.831 32.9139 97.591C32.9139 93.1743 34.2212 89.535 36.8359 86.673C39.4859 83.811 42.8955 82.38 47.0649 82.38C50.7395 82.38 53.9549 83.1397 56.7109 84.659L52.6829 94.252L52.4179 94.199C52.2765 91.4783 51.6582 89.4467 50.5629 88.104C49.4675 86.7613 48.1072 86.09 46.4819 86.09C44.4325 86.09 42.8955 86.779 41.8709 88.157C40.8815 89.535 40.3869 91.3547 40.3869 93.616C40.3869 96.1953 41.1642 98.545 42.7189 100.665C44.3089 102.785 46.5702 103.845 49.5029 103.845C52.5415 103.845 54.6792 102.767 55.9159 100.612L56.2339 100.718C56.0219 104.004 54.8912 106.672 52.8419 108.721C50.8279 110.77 48.3015 111.795 45.2629 111.795ZM59.8032 111V110.735C61.5345 109.993 62.4002 108.668 62.4002 106.76V80.419C62.4002 78.3697 61.5345 77.0447 59.8032 76.444V76.179L72.4702 72.31V87.203C73.7068 83.9877 76.1802 82.38 79.8902 82.38C82.2928 82.38 84.1655 83.069 85.5082 84.447C86.8862 85.7897 87.5752 87.6623 87.5752 90.065V106.76C87.5752 108.668 88.4408 109.993 90.1722 110.735V111H75.9682V110.735C76.9928 110.24 77.5052 109.092 77.5052 107.29V90.118C77.5052 87.9627 76.6925 86.885 75.0672 86.885C73.9365 86.885 73.0708 87.3267 72.4702 88.21V107.29C72.4702 109.092 72.9825 110.24 74.0072 110.735V111H59.8032ZM105.649 80.472C104.66 81.4613 103.423 81.956 101.939 81.956C100.455 81.956 99.2007 81.4613 98.1761 80.472C97.1867 79.4473 96.6921 78.2107 96.6921 76.762C96.6921 75.3133 97.1867 74.0767 98.1761 73.052C99.2007 72.0273 100.455 71.515 101.939 71.515C103.423 71.515 104.66 72.0273 105.649 73.052C106.674 74.0767 107.186 75.3133 107.186 76.762C107.186 78.2107 106.674 79.4473 105.649 80.472ZM107.239 106.76C107.239 108.668 108.105 109.993 109.836 110.735V111H94.5721V110.735C96.3034 109.993 97.1691 108.668 97.1691 106.76V90.489C97.1691 89.217 96.9747 88.263 96.5861 87.627C96.1974 86.991 95.5261 86.5317 94.5721 86.249V85.984L107.239 82.38V106.76ZM131.022 103.898C133.708 103.898 135.722 102.962 137.064 101.089L137.488 101.195C137.135 103.138 136.552 104.834 135.739 106.283C134.927 107.696 133.973 108.792 132.877 109.569C131.817 110.346 130.74 110.912 129.644 111.265C128.549 111.618 127.436 111.795 126.305 111.795C123.019 111.795 120.175 110.541 117.772 108.032C115.405 105.523 114.221 102.061 114.221 97.644C114.221 93.192 115.387 89.535 117.719 86.673C120.087 83.811 123.072 82.38 126.676 82.38C127.948 82.38 129.167 82.5743 130.333 82.963C131.499 83.3163 132.648 83.9347 133.778 84.818C134.944 85.666 135.863 86.9557 136.534 88.687C137.241 90.4183 137.594 92.4677 137.594 94.835H122.33C122.719 97.803 123.655 100.064 125.139 101.619C126.659 103.138 128.62 103.898 131.022 103.898ZM127.948 86.143C127.418 84.8003 126.606 84.129 125.51 84.129C124.415 84.129 123.567 84.8003 122.966 86.143C122.401 87.4503 122.118 89.3053 122.118 91.708C122.118 92.3793 122.136 92.874 122.171 93.192H128.743C128.743 89.8353 128.478 87.4857 127.948 86.143ZM153.642 111.53L142.83 87.362C141.841 85.1713 140.675 83.864 139.332 83.44V83.175H155.868V83.44C154.314 83.7933 153.536 84.5883 153.536 85.825C153.536 86.3197 153.713 87.0087 154.066 87.892L158.306 97.909L162.546 87.892C162.9 87.0087 163.076 86.3373 163.076 85.878C163.076 84.606 162.299 83.7933 160.744 83.44V83.175H168.164V83.44C166.822 83.7933 165.656 85.1007 164.666 87.362L153.96 111.53H153.642ZM186.159 103.898C188.845 103.898 190.859 102.962 192.201 101.089L192.625 101.195C192.272 103.138 191.689 104.834 190.876 106.283C190.064 107.696 189.11 108.792 188.014 109.569C186.954 110.346 185.877 110.912 184.781 111.265C183.686 111.618 182.573 111.795 181.442 111.795C178.156 111.795 175.312 110.541 172.909 108.032C170.542 105.523 169.358 102.061 169.358 97.644C169.358 93.192 170.524 89.535 172.856 86.673C175.224 83.811 178.209 82.38 181.813 82.38C183.085 82.38 184.304 82.5743 185.47 82.963C186.636 83.3163 187.785 83.9347 188.915 84.818C190.081 85.666 191 86.9557 191.671 88.687C192.378 90.4183 192.731 92.4677 192.731 94.835H177.467C177.856 97.803 178.792 100.064 180.276 101.619C181.796 103.138 183.757 103.898 186.159 103.898ZM183.085 86.143C182.555 84.8003 181.743 84.129 180.647 84.129C179.552 84.129 178.704 84.8003 178.103 86.143C177.538 87.4503 177.255 89.3053 177.255 91.708C177.255 92.3793 177.273 92.874 177.308 93.192H183.88C183.88 89.8353 183.615 87.4857 183.085 86.143ZM239.209 106.76C239.209 108.668 240.075 109.993 241.806 110.735V111H227.867V110.735C228.539 110.417 228.963 109.94 229.139 109.304V90.118C229.139 87.9273 228.327 86.832 226.701 86.832C225.712 86.832 224.97 87.3443 224.475 88.369C224.581 88.899 224.634 89.482 224.634 90.118V107.29C224.634 109.092 225.147 110.24 226.171 110.735V111H213.027V110.735C214.052 110.24 214.564 109.092 214.564 107.29V90.118C214.564 87.9273 213.752 86.832 212.126 86.832C211.243 86.832 210.554 87.2737 210.059 88.157V107.29C210.059 109.092 210.572 110.24 211.596 110.735V111H197.392V110.735C199.124 109.993 199.989 108.668 199.989 106.76V90.489C199.989 89.217 199.795 88.263 199.406 87.627C199.018 86.991 198.346 86.5317 197.392 86.249V85.984L210.059 82.38V87.256C211.155 84.0053 213.451 82.38 216.949 82.38C218.893 82.38 220.5 82.8217 221.772 83.705C223.044 84.5883 223.892 85.8603 224.316 87.521C224.705 86.037 225.571 84.818 226.913 83.864C228.291 82.8747 229.828 82.38 231.524 82.38C233.927 82.38 235.8 83.069 237.142 84.447C238.52 85.7897 239.209 87.68 239.209 90.118V106.76ZM262.206 103.898C264.891 103.898 266.905 102.962 268.248 101.089L268.672 101.195C268.319 103.138 267.736 104.834 266.923 106.283C266.11 107.696 265.156 108.792 264.061 109.569C263.001 110.346 261.923 110.912 260.828 111.265C259.733 111.618 258.62 111.795 257.489 111.795C254.203 111.795 251.359 110.541 248.956 108.032C246.589 105.523 245.405 102.061 245.405 97.644C245.405 93.192 246.571 89.535 248.903 86.673C251.27 83.811 254.256 82.38 257.86 82.38C259.132 82.38 260.351 82.5743 261.517 82.963C262.683 83.3163 263.831 83.9347 264.962 84.818C266.128 85.666 267.047 86.9557 267.718 88.687C268.425 90.4183 268.778 92.4677 268.778 94.835H253.514C253.903 97.803 254.839 100.064 256.323 101.619C257.842 103.138 259.803 103.898 262.206 103.898ZM259.132 86.143C258.602 84.8003 257.789 84.129 256.694 84.129C255.599 84.129 254.751 84.8003 254.15 86.143C253.585 87.4503 253.302 89.3053 253.302 91.708C253.302 92.3793 253.32 92.874 253.355 93.192H259.927C259.927 89.8353 259.662 87.4857 259.132 86.143ZM301.211 106.76C301.211 108.668 302.077 109.993 303.808 110.735V111H289.604V110.735C290.629 110.24 291.141 109.092 291.141 107.29V90.065C291.141 87.9097 290.329 86.832 288.703 86.832C287.608 86.832 286.742 87.2737 286.106 88.157V107.29C286.106 109.092 286.619 110.24 287.643 110.735V111H273.439V110.735C275.171 109.993 276.036 108.668 276.036 106.76V90.489C276.036 89.217 275.842 88.263 275.453 87.627C275.065 86.991 274.393 86.5317 273.439 86.249V85.984L286.106 82.38V87.203C287.308 83.9877 289.781 82.38 293.526 82.38C295.964 82.38 297.855 83.0513 299.197 84.394C300.54 85.7367 301.211 87.627 301.211 90.065V106.76ZM326.911 103.792L327.388 103.951C326.717 106.142 325.551 107.997 323.89 109.516C322.229 111.035 320.109 111.795 317.53 111.795C315.127 111.795 313.308 111.106 312.071 109.728C310.87 108.315 310.269 106.46 310.269 104.163V84.659H307.672V84.394C308.909 83.334 310.94 81.6733 313.767 79.412C316.629 77.1153 318.802 75.3133 320.286 74.006H320.339V83.281H325.215V84.606H320.339V102.732C320.339 103.898 320.586 104.817 321.081 105.488C321.576 106.159 322.282 106.495 323.201 106.495C325.038 106.495 326.275 105.594 326.911 103.792ZM341.597 111.795C337.605 111.795 334.054 110.541 330.944 108.032L334.124 100.877L334.442 100.93C335.114 103.333 336.297 105.364 337.993 107.025C339.725 108.65 341.58 109.463 343.558 109.463C344.901 109.463 345.873 109.18 346.473 108.615C347.074 108.014 347.374 107.308 347.374 106.495C347.374 105.258 346.756 104.375 345.519 103.845L337.304 100.029C333.842 98.4037 332.11 95.789 332.11 92.185C332.11 89.6763 333.117 87.415 335.131 85.401C337.145 83.387 340.096 82.38 343.982 82.38C347.763 82.38 351.031 83.4047 353.787 85.454L350.501 91.602L350.183 91.549C348.452 86.8497 345.678 84.5 341.862 84.5C339.53 84.5 338.364 85.3127 338.364 86.938C338.364 88.21 339.106 89.1993 340.59 89.906L348.381 93.51C351.667 95.0647 353.31 97.5557 353.31 100.983C353.31 103.916 352.286 106.46 350.236 108.615C348.222 110.735 345.343 111.795 341.597 111.795Z" fill="black"/>
</svg>
