<svg width="10" height="13" viewBox="0 0 10 13" fill="none" xmlns="http://www.w3.org/2000/svg">
<path d="M0.8125 8.94531C0.8125 8.39844 0.963542 7.89583 1.26562 7.4375C1.57292 6.97917 2.15625 6.44531 3.01562 5.83594C2.51042 5.22135 2.17188 4.72656 2 4.35156C1.82812 3.97656 1.74219 3.60417 1.74219 3.23438C1.74219 2.36979 1.9974 1.69271 2.50781 1.20312C3.01823 0.713542 3.71094 0.46875 4.58594 0.46875C5.36719 0.46875 6.01302 0.697917 6.52344 1.15625C7.03385 1.60938 7.28906 2.18229 7.28906 2.875C7.28906 3.33333 7.17188 3.75781 6.9375 4.14844C6.70833 4.53385 6.30469 4.9401 5.72656 5.36719L4.89062 5.98438L7.42188 9.00781C7.77604 8.33073 7.95312 7.57812 7.95312 6.75H9.25781C9.25781 8.07812 8.9375 9.17969 8.29688 10.0547L9.92188 12H8.1875L7.42969 11.1016C7.04427 11.4453 6.59115 11.7083 6.07031 11.8906C5.55469 12.0677 5.02865 12.1562 4.49219 12.1562C3.38281 12.1562 2.49219 11.862 1.82031 11.2734C1.14844 10.6849 0.8125 9.90885 0.8125 8.94531ZM4.49219 10.9766C5.25781 10.9766 5.95833 10.6849 6.59375 10.1016L3.82031 6.78125L3.5625 6.96875C2.69271 7.60938 2.25781 8.26823 2.25781 8.94531C2.25781 9.5599 2.45573 10.0521 2.85156 10.4219C3.2526 10.7917 3.79948 10.9766 4.49219 10.9766ZM3.1875 3.1875C3.1875 3.6875 3.49479 4.3125 4.10938 5.0625L5.03125 4.41406C5.38542 4.16406 5.6276 3.92708 5.75781 3.70312C5.88802 3.47396 5.95312 3.19792 5.95312 2.875C5.95312 2.52604 5.82292 2.23698 5.5625 2.00781C5.30208 1.77344 4.97396 1.65625 4.57812 1.65625C4.15104 1.65625 3.8125 1.80208 3.5625 2.09375C3.3125 2.38021 3.1875 2.74479 3.1875 3.1875Z" fill="white"/>
</svg>
