<svg width="185" height="52" viewBox="0 0 185 52" fill="none" xmlns="http://www.w3.org/2000/svg">
<path d="M0 4C0 1.79086 1.79086 0 4 0H181C183.209 0 185 1.79086 185 4V48C185 50.2091 183.209 52 181 52H4C1.79087 52 0 50.2091 0 48V4Z" fill="white"/>
<path d="M21.07 29.0151C21.0684 29.6717 20.8068 30.301 20.3424 30.7652C19.878 31.2294 19.2486 31.4908 18.592 31.4921C17.9355 31.4905 17.3064 31.229 16.8422 30.7648C16.3781 30.3007 16.1166 29.6715 16.115 29.0151C16.1166 28.3586 16.3781 27.7295 16.8422 27.2653C17.3064 26.8011 17.9355 26.5397 18.592 26.5381H21.07V29.0151ZM22.317 29.0151C22.3186 28.3586 22.5801 27.7295 23.0442 27.2653C23.5084 26.8011 24.1375 26.5397 24.794 26.5381C25.4504 26.5397 26.0796 26.8011 26.5437 27.2653C27.0079 27.7295 27.2694 28.3586 27.271 29.0151V35.2171C27.2694 35.8735 27.0079 36.5027 26.5437 36.9668C26.0796 37.431 25.4504 37.6925 24.794 37.6941C24.1375 37.6925 23.5084 37.431 23.0442 36.9668C22.5801 36.5027 22.3186 35.8735 22.317 35.2171V29.0151Z" fill="#023A15"/>
<path d="M24.794 19.0702C24.1374 19.0686 23.5081 18.807 23.0439 18.3426C22.5797 17.8782 22.3183 17.2489 22.317 16.5922C22.3186 15.9358 22.5801 15.3067 23.0442 14.8425C23.5084 14.3783 24.1375 14.1168 24.794 14.1152C25.4504 14.1168 26.0796 14.3783 26.5437 14.8425C27.0079 15.3067 27.2694 15.9358 27.271 16.5922V19.0702H24.794ZM24.794 20.3172C25.4504 20.3188 26.0796 20.5803 26.5437 21.0445C27.0079 21.5087 27.2694 22.1378 27.271 22.7942C27.2694 23.4507 27.0079 24.0798 26.5437 24.544C26.0796 25.0082 25.4504 25.2697 24.794 25.2712H18.592C17.9355 25.2697 17.3064 25.0082 16.8422 24.544C16.3781 24.0798 16.1166 23.4507 16.115 22.7942C16.1166 22.1378 16.3781 21.5087 16.8422 21.0445C17.3064 20.5803 17.9355 20.3188 18.592 20.3172H24.794Z" fill="#023A15"/>
<path d="M34.74 22.7942C34.7415 22.1378 35.003 21.5087 35.4672 21.0445C35.9314 20.5803 36.5605 20.3188 37.217 20.3172C37.8734 20.3188 38.5025 20.5803 38.9667 21.0445C39.4309 21.5087 39.6924 22.1378 39.694 22.7942C39.6924 23.4507 39.4309 24.0798 38.9667 24.544C38.5025 25.0082 37.8734 25.2697 37.217 25.2712H34.74V22.7942ZM33.492 22.7942C33.4904 23.4507 33.2289 24.0798 32.7647 24.544C32.3005 25.0082 31.6714 25.2697 31.015 25.2712C30.3585 25.2697 29.7294 25.0082 29.2652 24.544C28.801 24.0798 28.5395 23.4507 28.538 22.7942V16.5922C28.5395 15.9358 28.801 15.3067 29.2652 14.8425C29.7294 14.3783 30.3585 14.1168 31.015 14.1152C31.6714 14.1168 32.3005 14.3783 32.7647 14.8425C33.2289 15.3067 33.4904 15.9358 33.492 16.5922V22.7942Z" fill="#023A15"/>
<path d="M31.015 32.7401C31.6714 32.7417 32.3005 33.0031 32.7647 33.4673C33.2289 33.9315 33.4904 34.5606 33.492 35.2171C33.4904 35.8735 33.2289 36.5027 32.7647 36.9668C32.3005 37.431 31.6714 37.6925 31.015 37.6941C30.3585 37.6925 29.7294 37.431 29.2652 36.9668C28.801 36.5027 28.5395 35.8735 28.538 35.2171V32.7401H31.015ZM31.015 31.4921C30.3585 31.4905 29.7294 31.229 29.2652 30.7648C28.801 30.3007 28.5395 29.6715 28.538 29.0151C28.5395 28.3586 28.801 27.7295 29.2652 27.2653C29.7294 26.8011 30.3585 26.5397 31.015 26.5381H37.217C37.8734 26.5397 38.5025 26.8011 38.9667 27.2653C39.4309 27.7295 39.6924 28.3586 39.694 29.0151C39.6924 29.6715 39.4309 30.3007 38.9667 30.7648C38.5025 31.229 37.8734 31.4905 37.217 31.4921H31.015Z" fill="#023A15"/>
<path d="M57.6875 27.3906C57.5469 28.5938 57.1016 29.5234 56.3516 30.1797C55.6068 30.8307 54.6146 31.1562 53.375 31.1562C52.0312 31.1562 50.9531 30.6745 50.1406 29.7109C49.3333 28.7474 48.9297 27.4583 48.9297 25.8438V24.75C48.9297 23.6927 49.1172 22.763 49.4922 21.9609C49.8724 21.1589 50.4089 20.5443 51.1016 20.1172C51.7943 19.6849 52.5964 19.4688 53.5078 19.4688C54.7161 19.4688 55.6849 19.8073 56.4141 20.4844C57.1432 21.1562 57.5677 22.0885 57.6875 23.2812H56.1797C56.0495 22.375 55.7656 21.7188 55.3281 21.3125C54.8958 20.9062 54.2891 20.7031 53.5078 20.7031C52.5495 20.7031 51.7969 21.0573 51.25 21.7656C50.7083 22.474 50.4375 23.4818 50.4375 24.7891V25.8906C50.4375 27.125 50.6953 28.1068 51.2109 28.8359C51.7266 29.5651 52.4479 29.9297 53.375 29.9297C54.2083 29.9297 54.8464 29.7422 55.2891 29.3672C55.737 28.987 56.0339 28.3281 56.1797 27.3906H57.6875ZM59.1328 26.6953C59.1328 25.8672 59.2943 25.1224 59.6172 24.4609C59.9453 23.7995 60.3984 23.2891 60.9766 22.9297C61.5599 22.5703 62.224 22.3906 62.9688 22.3906C64.1198 22.3906 65.0495 22.7891 65.7578 23.5859C66.4714 24.3828 66.8281 25.4427 66.8281 26.7656V26.8672C66.8281 27.6901 66.6693 28.4297 66.3516 29.0859C66.0391 29.737 65.5885 30.2448 65 30.6094C64.4167 30.974 63.7448 31.1562 62.9844 31.1562C61.8385 31.1562 60.9089 30.7578 60.1953 29.9609C59.487 29.1641 59.1328 28.1094 59.1328 26.7969V26.6953ZM60.5859 26.8672C60.5859 27.8047 60.8021 28.5573 61.2344 29.125C61.6719 29.6927 62.2552 29.9766 62.9844 29.9766C63.7188 29.9766 64.3021 29.6901 64.7344 29.1172C65.1667 28.5391 65.3828 27.7318 65.3828 26.6953C65.3828 25.7682 65.1615 25.0182 64.7188 24.4453C64.2812 23.8672 63.6979 23.5781 62.9688 23.5781C62.2552 23.5781 61.6797 23.862 61.2422 24.4297C60.8047 24.9974 60.5859 25.8099 60.5859 26.8672ZM70.0078 22.5469L70.0547 23.6094C70.7005 22.7969 71.5443 22.3906 72.5859 22.3906C74.3724 22.3906 75.2734 23.3984 75.2891 25.4141V31H73.8438V25.4062C73.8385 24.7969 73.6979 24.3464 73.4219 24.0547C73.151 23.763 72.7266 23.6172 72.1484 23.6172C71.6797 23.6172 71.2682 23.7422 70.9141 23.9922C70.5599 24.2422 70.2839 24.5703 70.0859 24.9766V31H68.6406V22.5469H70.0078ZM78.8359 22.5469L78.8828 23.6094C79.5286 22.7969 80.3724 22.3906 81.4141 22.3906C83.2005 22.3906 84.1016 23.3984 84.1172 25.4141V31H82.6719V25.4062C82.6667 24.7969 82.526 24.3464 82.25 24.0547C81.9792 23.763 81.5547 23.6172 80.9766 23.6172C80.5078 23.6172 80.0964 23.7422 79.7422 23.9922C79.388 24.2422 79.112 24.5703 78.9141 24.9766V31H77.4688V22.5469H78.8359ZM89.8047 31.1562C88.6589 31.1562 87.7266 30.7812 87.0078 30.0312C86.2891 29.276 85.9297 28.2682 85.9297 27.0078V26.7422C85.9297 25.9036 86.0885 25.1562 86.4062 24.5C86.7292 23.8385 87.1771 23.3229 87.75 22.9531C88.3281 22.5781 88.9531 22.3906 89.625 22.3906C90.724 22.3906 91.5781 22.7526 92.1875 23.4766C92.7969 24.2005 93.1016 25.237 93.1016 26.5859V27.1875H87.375C87.3958 28.0208 87.638 28.6953 88.1016 29.2109C88.5703 29.7214 89.1641 29.9766 89.8828 29.9766C90.3932 29.9766 90.8255 29.8724 91.1797 29.6641C91.5339 29.4557 91.8438 29.1797 92.1094 28.8359L92.9922 29.5234C92.2839 30.612 91.2214 31.1562 89.8047 31.1562ZM89.625 23.5781C89.0417 23.5781 88.5521 23.7917 88.1562 24.2188C87.7604 24.6406 87.5156 25.2344 87.4219 26H91.6562V25.8906C91.6146 25.1562 91.4167 24.5885 91.0625 24.1875C90.7083 23.7812 90.2292 23.5781 89.625 23.5781ZM98.1719 29.9766C98.6875 29.9766 99.138 29.8203 99.5234 29.5078C99.9089 29.1953 100.122 28.8047 100.164 28.3359H101.531C101.505 28.8203 101.339 29.2812 101.031 29.7188C100.724 30.1562 100.312 30.5052 99.7969 30.7656C99.2865 31.026 98.7448 31.1562 98.1719 31.1562C97.0208 31.1562 96.1042 30.7734 95.4219 30.0078C94.7448 29.237 94.4062 28.1849 94.4062 26.8516V26.6094C94.4062 25.7865 94.5573 25.0547 94.8594 24.4141C95.1615 23.7734 95.5938 23.276 96.1562 22.9219C96.724 22.5677 97.3932 22.3906 98.1641 22.3906C99.112 22.3906 99.8984 22.6745 100.523 23.2422C101.154 23.8099 101.49 24.5469 101.531 25.4531H100.164C100.122 24.9062 99.9141 24.4583 99.5391 24.1094C99.1693 23.7552 98.7109 23.5781 98.1641 23.5781C97.4297 23.5781 96.8594 23.8438 96.4531 24.375C96.0521 24.901 95.8516 25.6641 95.8516 26.6641V26.9375C95.8516 27.9115 96.0521 28.6615 96.4531 29.1875C96.8542 29.7135 97.4271 29.9766 98.1719 29.9766ZM105.117 20.5V22.5469H106.695V23.6641H105.117V28.9062C105.117 29.2448 105.188 29.5 105.328 29.6719C105.469 29.8385 105.708 29.9219 106.047 29.9219C106.214 29.9219 106.443 29.8906 106.734 29.8281V31C106.354 31.1042 105.984 31.1562 105.625 31.1562C104.979 31.1562 104.492 30.9609 104.164 30.5703C103.836 30.1797 103.672 29.625 103.672 28.9062V23.6641H102.133V22.5469H103.672V20.5H105.117ZM114.32 20.5V22.5469H115.898V23.6641H114.32V28.9062C114.32 29.2448 114.391 29.5 114.531 29.6719C114.672 29.8385 114.911 29.9219 115.25 29.9219C115.417 29.9219 115.646 29.8906 115.938 29.8281V31C115.557 31.1042 115.188 31.1562 114.828 31.1562C114.182 31.1562 113.695 30.9609 113.367 30.5703C113.039 30.1797 112.875 29.625 112.875 28.9062V23.6641H111.336V22.5469H112.875V20.5H114.32ZM117.055 26.6953C117.055 25.8672 117.216 25.1224 117.539 24.4609C117.867 23.7995 118.32 23.2891 118.898 22.9297C119.482 22.5703 120.146 22.3906 120.891 22.3906C122.042 22.3906 122.971 22.7891 123.68 23.5859C124.393 24.3828 124.75 25.4427 124.75 26.7656V26.8672C124.75 27.6901 124.591 28.4297 124.273 29.0859C123.961 29.737 123.51 30.2448 122.922 30.6094C122.339 30.974 121.667 31.1562 120.906 31.1562C119.76 31.1562 118.831 30.7578 118.117 29.9609C117.409 29.1641 117.055 28.1094 117.055 26.7969V26.6953ZM118.508 26.8672C118.508 27.8047 118.724 28.5573 119.156 29.125C119.594 29.6927 120.177 29.9766 120.906 29.9766C121.641 29.9766 122.224 29.6901 122.656 29.1172C123.089 28.5391 123.305 27.7318 123.305 26.6953C123.305 25.7682 123.083 25.0182 122.641 24.4453C122.203 23.8672 121.62 23.5781 120.891 23.5781C120.177 23.5781 119.602 23.862 119.164 24.4297C118.727 24.9974 118.508 25.8099 118.508 26.8672ZM134.109 25.9297C132.823 25.5599 131.885 25.1068 131.297 24.5703C130.714 24.0286 130.422 23.362 130.422 22.5703C130.422 21.6745 130.779 20.9349 131.492 20.3516C132.211 19.763 133.143 19.4688 134.289 19.4688C135.07 19.4688 135.766 19.6198 136.375 19.9219C136.99 20.224 137.464 20.6406 137.797 21.1719C138.135 21.7031 138.305 22.2839 138.305 22.9141H136.797C136.797 22.2266 136.578 21.6875 136.141 21.2969C135.703 20.901 135.086 20.7031 134.289 20.7031C133.549 20.7031 132.971 20.8672 132.555 21.1953C132.143 21.5182 131.938 21.9688 131.938 22.5469C131.938 23.0104 132.133 23.4036 132.523 23.7266C132.919 24.0443 133.589 24.3359 134.531 24.6016C135.479 24.8672 136.219 25.1615 136.75 25.4844C137.286 25.8021 137.682 26.1745 137.938 26.6016C138.198 27.0286 138.328 27.5312 138.328 28.1094C138.328 29.0312 137.969 29.7708 137.25 30.3281C136.531 30.8802 135.57 31.1562 134.367 31.1562C133.586 31.1562 132.857 31.0078 132.18 30.7109C131.503 30.4089 130.979 29.9974 130.609 29.4766C130.245 28.9557 130.062 28.3646 130.062 27.7031H131.57C131.57 28.3906 131.823 28.9349 132.328 29.3359C132.839 29.7318 133.518 29.9297 134.367 29.9297C135.159 29.9297 135.766 29.7682 136.188 29.4453C136.609 29.1224 136.82 28.6823 136.82 28.125C136.82 27.5677 136.625 27.138 136.234 26.8359C135.844 26.5286 135.135 26.2266 134.109 25.9297ZM141.602 31H140.156V19H141.602V31ZM149.141 31C149.057 30.8333 148.99 30.5365 148.938 30.1094C148.266 30.8073 147.464 31.1562 146.531 31.1562C145.698 31.1562 145.013 30.9219 144.477 30.4531C143.945 29.9792 143.68 29.3802 143.68 28.6562C143.68 27.776 144.013 27.0938 144.68 26.6094C145.352 26.1198 146.294 25.875 147.508 25.875H148.914V25.2109C148.914 24.7057 148.763 24.3047 148.461 24.0078C148.159 23.7057 147.714 23.5547 147.125 23.5547C146.609 23.5547 146.177 23.6849 145.828 23.9453C145.479 24.2057 145.305 24.5208 145.305 24.8906H143.852C143.852 24.4688 144 24.0625 144.297 23.6719C144.599 23.276 145.005 22.9635 145.516 22.7344C146.031 22.5052 146.596 22.3906 147.211 22.3906C148.185 22.3906 148.948 22.6354 149.5 23.125C150.052 23.6094 150.339 24.2786 150.359 25.1328V29.0234C150.359 29.7995 150.458 30.4167 150.656 30.875V31H149.141ZM146.742 29.8984C147.195 29.8984 147.625 29.7812 148.031 29.5469C148.438 29.3125 148.732 29.0078 148.914 28.6328V26.8984H147.781C146.01 26.8984 145.125 27.4167 145.125 28.4531C145.125 28.9062 145.276 29.2604 145.578 29.5156C145.88 29.7708 146.268 29.8984 146.742 29.8984ZM156.016 29.9766C156.531 29.9766 156.982 29.8203 157.367 29.5078C157.753 29.1953 157.966 28.8047 158.008 28.3359H159.375C159.349 28.8203 159.182 29.2812 158.875 29.7188C158.568 30.1562 158.156 30.5052 157.641 30.7656C157.13 31.026 156.589 31.1562 156.016 31.1562C154.865 31.1562 153.948 30.7734 153.266 30.0078C152.589 29.237 152.25 28.1849 152.25 26.8516V26.6094C152.25 25.7865 152.401 25.0547 152.703 24.4141C153.005 23.7734 153.438 23.276 154 22.9219C154.568 22.5677 155.237 22.3906 156.008 22.3906C156.956 22.3906 157.742 22.6745 158.367 23.2422C158.997 23.8099 159.333 24.5469 159.375 25.4531H158.008C157.966 24.9062 157.758 24.4583 157.383 24.1094C157.013 23.7552 156.555 23.5781 156.008 23.5781C155.273 23.5781 154.703 23.8438 154.297 24.375C153.896 24.901 153.695 25.6641 153.695 26.6641V26.9375C153.695 27.9115 153.896 28.6615 154.297 29.1875C154.698 29.7135 155.271 29.9766 156.016 29.9766ZM163.359 27.0859L162.453 28.0312V31H161.008V19H162.453V26.2578L163.227 25.3281L165.859 22.5469H167.617L164.328 26.0781L168 31H166.305L163.359 27.0859Z" fill="#023A15"/>
</svg>
