<svg width="487" height="85" viewBox="0 0 487 85" fill="none" xmlns="http://www.w3.org/2000/svg">
<path d="M76.8833 45.81V46.36C72.19 48.34 69.8433 52.1533 69.8433 57.8V75.95C66.3233 78.4433 61.8133 80.46 56.3133 82C50.8133 83.4667 45.3133 84.2 39.8133 84.2C27.7867 84.2 18.2533 80.6433 11.2133 73.53C4.17332 66.4167 0.65332 56.81 0.65332 44.71C0.65332 32.0233 4.72332 21.8667 12.8633 14.24C21.0767 6.61333 32.0033 2.8 45.6433 2.8C54.81 2.8 63.28 4.92666 71.0533 9.17999L62.9133 31.4H62.3633C61.85 23.4067 60.1267 17.54 57.1933 13.8C54.3333 9.98666 50.08 8.07999 44.4333 8.07999C32.48 8.07999 26.5033 18.3467 26.5033 38.88C26.5033 50.76 28.3 60.7333 31.8933 68.8C35.4867 76.8667 39.9233 80.9 45.2033 80.9C46.3767 80.9 47.2567 80.68 47.8433 80.24V58.9C47.8433 55.0867 47.1833 52.2267 45.8633 50.32C44.5433 48.4133 42.3433 47.0933 39.2633 46.36V45.81H76.8833ZM126.133 22.6H127.783V42.51H127.233C125.766 41.63 123.603 41.19 120.743 41.19C116.856 41.19 113.923 42.4367 111.943 44.93C109.963 47.4233 108.973 52.0067 108.973 58.68V73.2C108.973 77.6 111.503 80.35 116.563 81.45V82H82.6826V81.45C86.276 79.91 88.0726 77.16 88.0726 73.2V40.86C88.0726 35.2867 86.276 31.9133 82.6826 30.74V30.19L108.093 22.6V49.66H108.753C109.486 31.62 115.279 22.6 126.133 22.6ZM168.537 67.26C174.11 67.26 178.29 65.3167 181.077 61.43L181.957 61.65C181.224 65.6833 180.014 69.2033 178.327 72.21C176.64 75.1433 174.66 77.4167 172.387 79.03C170.187 80.6433 167.95 81.8167 165.677 82.55C163.404 83.2833 161.094 83.65 158.747 83.65C151.927 83.65 146.024 81.0467 141.037 75.84C136.124 70.6333 133.667 63.4467 133.667 54.28C133.667 45.04 136.087 37.45 140.927 31.51C145.84 25.57 152.037 22.6 159.517 22.6C162.157 22.6 164.687 23.0033 167.107 23.81C169.527 24.5433 171.91 25.8267 174.257 27.66C176.677 29.42 178.584 32.0967 179.977 35.69C181.444 39.2833 182.177 43.5367 182.177 48.45H150.497C151.304 54.61 153.247 59.3033 156.327 62.53C159.48 65.6833 163.55 67.26 168.537 67.26ZM162.157 30.41C161.057 27.6233 159.37 26.23 157.097 26.23C154.824 26.23 153.064 27.6233 151.817 30.41C150.644 33.1233 150.057 36.9733 150.057 41.96C150.057 43.3533 150.094 44.38 150.167 45.04H163.807C163.807 38.0733 163.257 33.1967 162.157 30.41ZM225.107 67.26C230.681 67.26 234.861 65.3167 237.647 61.43L238.527 61.65C237.794 65.6833 236.584 69.2033 234.897 72.21C233.211 75.1433 231.231 77.4167 228.957 79.03C226.757 80.6433 224.521 81.8167 222.247 82.55C219.974 83.2833 217.664 83.65 215.317 83.65C208.497 83.65 202.594 81.0467 197.607 75.84C192.694 70.6333 190.237 63.4467 190.237 54.28C190.237 45.04 192.657 37.45 197.497 31.51C202.411 25.57 208.607 22.6 216.087 22.6C218.727 22.6 221.257 23.0033 223.677 23.81C226.097 24.5433 228.481 25.8267 230.827 27.66C233.247 29.42 235.154 32.0967 236.547 35.69C238.014 39.2833 238.747 43.5367 238.747 48.45H207.067C207.874 54.61 209.817 59.3033 212.897 62.53C216.051 65.6833 220.121 67.26 225.107 67.26ZM218.727 30.41C217.627 27.6233 215.941 26.23 213.667 26.23C211.394 26.23 209.634 27.6233 208.387 30.41C207.214 33.1233 206.627 36.9733 206.627 41.96C206.627 43.3533 206.664 44.38 206.737 45.04H220.377C220.377 38.0733 219.827 33.1967 218.727 30.41ZM303.911 73.2C303.911 77.16 305.707 79.91 309.301 81.45V82H279.821V81.45C281.947 80.4233 283.011 78.04 283.011 74.3V38.55C283.011 34.0767 281.324 31.84 277.951 31.84C275.677 31.84 273.881 32.7567 272.561 34.59V74.3C272.561 78.04 273.624 80.4233 275.751 81.45V82H246.271V81.45C249.864 79.91 251.661 77.16 251.661 73.2V39.43C251.661 36.79 251.257 34.81 250.451 33.49C249.644 32.17 248.251 31.2167 246.271 30.63V30.08L272.561 22.6V32.61C275.054 25.9367 280.187 22.6 287.961 22.6C293.021 22.6 296.944 23.9933 299.731 26.78C302.517 29.5667 303.911 33.49 303.911 38.55V73.2ZM342.009 73.2C342.009 77.16 343.805 79.91 347.399 81.45V82H315.719V81.45C319.312 79.91 321.109 77.16 321.109 73.2V18.53C321.109 14.2767 319.312 11.5267 315.719 10.28V9.73L342.009 1.7V73.2ZM377.352 18.64C375.299 20.6933 372.732 21.72 369.652 21.72C366.572 21.72 363.969 20.6933 361.842 18.64C359.789 16.5133 358.762 13.9467 358.762 10.94C358.762 7.93333 359.789 5.36666 361.842 3.24C363.969 1.11333 366.572 0.0499929 369.652 0.0499929C372.732 0.0499929 375.299 1.11333 377.352 3.24C379.479 5.36666 380.542 7.93333 380.542 10.94C380.542 13.9467 379.479 16.5133 377.352 18.64ZM380.652 73.2C380.652 77.16 382.449 79.91 386.042 81.45V82H354.362V81.45C357.956 79.91 359.752 77.16 359.752 73.2V39.43C359.752 36.79 359.349 34.81 358.542 33.49C357.736 32.17 356.342 31.2167 354.362 30.63V30.08L380.652 22.6V73.2ZM414.003 83.65C405.716 83.65 398.346 81.0467 391.893 75.84L398.493 60.99L399.153 61.1C400.546 66.0867 403.003 70.3033 406.523 73.75C410.116 77.1233 413.966 78.81 418.073 78.81C420.86 78.81 422.876 78.2233 424.123 77.05C425.37 75.8033 425.993 74.3367 425.993 72.65C425.993 70.0833 424.71 68.25 422.143 67.15L405.093 59.23C397.906 55.8567 394.313 50.43 394.313 42.95C394.313 37.7433 396.403 33.05 400.583 28.87C404.763 24.69 410.886 22.6 418.953 22.6C426.8 22.6 433.583 24.7267 439.303 28.98L432.483 41.74L431.823 41.63C428.23 31.8767 422.473 27 414.553 27C409.713 27 407.293 28.6867 407.293 32.06C407.293 34.7 408.833 36.7533 411.913 38.22L428.083 45.7C434.903 48.9267 438.313 54.0967 438.313 61.21C438.313 67.2967 436.186 72.5767 431.933 77.05C427.753 81.45 421.776 83.65 414.003 83.65ZM485.601 67.04L486.591 67.37C485.197 71.9167 482.777 75.7667 479.331 78.92C475.884 82.0733 471.484 83.65 466.131 83.65C461.144 83.65 457.367 82.22 454.801 79.36C452.307 76.4267 451.061 72.5767 451.061 67.81V27.33H445.671V26.78C448.237 24.58 452.454 21.1333 458.321 16.44C464.261 11.6733 468.771 7.93333 471.851 5.22H471.961V24.47H482.081V27.22H471.961V64.84C471.961 67.26 472.474 69.1667 473.501 70.56C474.527 71.9533 475.994 72.65 477.901 72.65C481.714 72.65 484.281 70.78 485.601 67.04Z" fill="#F09C96"/>
</svg>
