<svg width="52" height="16" viewBox="0 0 52 16" fill="none" xmlns="http://www.w3.org/2000/svg">
<path d="M2.47656 7.54688V12H0.976562V0.625H5.17188C6.41667 0.625 7.39062 0.942708 8.09375 1.57812C8.80208 2.21354 9.15625 3.05469 9.15625 4.10156C9.15625 5.20573 8.8099 6.05729 8.11719 6.65625C7.42969 7.25 6.44271 7.54688 5.15625 7.54688H2.47656ZM2.47656 6.32031H5.17188C5.97396 6.32031 6.58854 6.13281 7.01562 5.75781C7.44271 5.3776 7.65625 4.83073 7.65625 4.11719C7.65625 3.4401 7.44271 2.89844 7.01562 2.49219C6.58854 2.08594 6.0026 1.875 5.25781 1.85938H2.47656V6.32031ZM14.9297 4.84375C14.7109 4.80729 14.474 4.78906 14.2188 4.78906C13.2708 4.78906 12.6276 5.19271 12.2891 6V12H10.8438V3.54688H12.25L12.2734 4.52344C12.7474 3.76823 13.4193 3.39062 14.2891 3.39062C14.5703 3.39062 14.7839 3.42708 14.9297 3.5V4.84375ZM17.8359 12H16.3906V3.54688H17.8359V12ZM16.2734 1.30469C16.2734 1.07031 16.3438 0.872396 16.4844 0.710938C16.6302 0.549479 16.8438 0.46875 17.125 0.46875C17.4062 0.46875 17.6198 0.549479 17.7656 0.710938C17.9115 0.872396 17.9844 1.07031 17.9844 1.30469C17.9844 1.53906 17.9115 1.73438 17.7656 1.89062C17.6198 2.04688 17.4062 2.125 17.125 2.125C16.8438 2.125 16.6302 2.04688 16.4844 1.89062C16.3438 1.73438 16.2734 1.53906 16.2734 1.30469ZM22.9453 10.0391L25.0391 3.54688H26.5156L23.4844 12H22.3828L19.3203 3.54688H20.7969L22.9453 10.0391ZM33 12C32.9167 11.8333 32.849 11.5365 32.7969 11.1094C32.125 11.8073 31.3229 12.1562 30.3906 12.1562C29.5573 12.1562 28.8724 11.9219 28.3359 11.4531C27.8047 10.9792 27.5391 10.3802 27.5391 9.65625C27.5391 8.77604 27.8724 8.09375 28.5391 7.60938C29.2109 7.11979 30.1536 6.875 31.3672 6.875H32.7734V6.21094C32.7734 5.70573 32.6224 5.30469 32.3203 5.00781C32.0182 4.70573 31.5729 4.55469 30.9844 4.55469C30.4688 4.55469 30.0365 4.6849 29.6875 4.94531C29.3385 5.20573 29.1641 5.52083 29.1641 5.89062H27.7109C27.7109 5.46875 27.8594 5.0625 28.1562 4.67188C28.4583 4.27604 28.8646 3.96354 29.375 3.73438C29.8906 3.50521 30.4557 3.39062 31.0703 3.39062C32.0443 3.39062 32.8073 3.63542 33.3594 4.125C33.9115 4.60938 34.1979 5.27865 34.2188 6.13281V10.0234C34.2188 10.7995 34.3177 11.4167 34.5156 11.875V12H33ZM30.6016 10.8984C31.0547 10.8984 31.4844 10.7812 31.8906 10.5469C32.2969 10.3125 32.5911 10.0078 32.7734 9.63281V7.89844H31.6406C29.8698 7.89844 28.9844 8.41667 28.9844 9.45312C28.9844 9.90625 29.1354 10.2604 29.4375 10.5156C29.7396 10.7708 30.1276 10.8984 30.6016 10.8984ZM39.875 10.9766C40.3906 10.9766 40.8411 10.8203 41.2266 10.5078C41.612 10.1953 41.8255 9.80469 41.8672 9.33594H43.2344C43.2083 9.82031 43.0417 10.2812 42.7344 10.7188C42.4271 11.1562 42.0156 11.5052 41.5 11.7656C40.9896 12.026 40.4479 12.1562 39.875 12.1562C38.724 12.1562 37.8073 11.7734 37.125 11.0078C36.4479 10.237 36.1094 9.1849 36.1094 7.85156V7.60938C36.1094 6.78646 36.2604 6.05469 36.5625 5.41406C36.8646 4.77344 37.2969 4.27604 37.8594 3.92188C38.4271 3.56771 39.0964 3.39062 39.8672 3.39062C40.8151 3.39062 41.6016 3.67448 42.2266 4.24219C42.8568 4.8099 43.1927 5.54688 43.2344 6.45312H41.8672C41.8255 5.90625 41.6172 5.45833 41.2422 5.10938C40.8724 4.75521 40.4141 4.57812 39.8672 4.57812C39.1328 4.57812 38.5625 4.84375 38.1562 5.375C37.7552 5.90104 37.5547 6.66406 37.5547 7.66406V7.9375C37.5547 8.91146 37.7552 9.66146 38.1562 10.1875C38.5573 10.7135 39.1302 10.9766 39.875 10.9766ZM47.625 9.88281L49.5938 3.54688H51.1406L47.7422 13.3047C47.2161 14.7109 46.3802 15.4141 45.2344 15.4141L44.9609 15.3906L44.4219 15.2891V14.1172L44.8125 14.1484C45.3021 14.1484 45.6823 14.0495 45.9531 13.8516C46.2292 13.6536 46.4557 13.2917 46.6328 12.7656L46.9531 11.9062L43.9375 3.54688H45.5156L47.625 9.88281Z" fill="white"/>
</svg>
