<svg width="507" height="102" viewBox="0 0 507 102" fill="none" xmlns="http://www.w3.org/2000/svg">
<path d="M29.9422 81.12C18.8475 81.12 9.13082 78.7527 0.792149 74.018L7.47015 53.772H8.00015C9.76682 60.8387 13.0881 66.3507 17.9641 70.308C22.9108 74.2653 28.2461 76.244 33.9701 76.244C37.0088 76.244 39.5175 75.4313 41.4962 73.806C43.4748 72.11 44.4642 69.884 44.4642 67.128C44.4642 63.1707 41.9555 60.0613 36.9381 57.8L19.3421 49.744C14.2541 47.3413 10.3321 44.126 7.57615 40.098C4.89082 36.07 3.54815 31.6533 3.54815 26.848C3.54815 23.8093 4.04282 20.912 5.03215 18.156C6.09215 15.4 7.68215 12.856 9.80215 10.524C11.9221 8.12133 14.8901 6.21333 18.7062 4.79999C22.5221 3.38666 26.9741 2.68 32.0621 2.68C36.6555 2.68 41.4608 3.316 46.4781 4.588C51.4955 5.86 55.6295 7.41466 58.8802 9.25199L51.2482 26.636H50.7182C48.6688 20.4173 45.5595 15.6473 41.3902 12.326C37.2208 9.00466 32.6981 7.34399 27.8221 7.34399C24.2888 7.34399 21.6388 8.08599 19.8721 9.57C18.1761 11.054 17.3281 12.7853 17.3281 14.764C17.3281 18.7213 19.8015 21.9013 24.7481 24.304L42.8742 32.89C48.4568 35.5047 52.3788 38.508 54.6401 41.9C56.9015 45.2213 58.0321 49.32 58.0321 54.196C58.0321 61.828 55.4175 68.2233 50.1882 73.382C44.9588 78.5407 38.2101 81.12 29.9422 81.12ZM87.2874 17.944C85.3087 19.9227 82.8354 20.912 79.8674 20.912C76.8994 20.912 74.3907 19.9227 72.3414 17.944C70.3627 15.8947 69.3734 13.4213 69.3734 10.524C69.3734 7.62666 70.3627 5.15333 72.3414 3.104C74.3907 1.05466 76.8994 0.0299932 79.8674 0.0299932C82.8354 0.0299932 85.3087 1.05466 87.2874 3.104C89.3367 5.15333 90.3614 7.62666 90.3614 10.524C90.3614 13.4213 89.3367 15.8947 87.2874 17.944ZM90.4674 70.52C90.4674 74.336 92.1987 76.986 95.6614 78.47V79H65.1334V78.47C68.5961 76.986 70.3274 74.336 70.3274 70.52V37.978C70.3274 35.434 69.9387 33.526 69.1614 32.254C68.3841 30.982 67.0414 30.0633 65.1334 29.498V28.968L90.4674 21.76V70.52ZM141.228 65.432C145.963 65.856 149.673 67.2693 152.358 69.672C155.114 72.0747 156.492 75.5373 156.492 80.06C156.492 82.4627 155.998 84.83 155.008 87.162C154.09 89.5647 152.57 91.8967 150.45 94.158C148.33 96.4193 145.221 98.2567 141.122 99.67C137.024 101.083 132.183 101.79 126.6 101.79C117.484 101.79 110.912 100.765 106.884 98.716C102.856 96.6667 100.842 93.628 100.842 89.6C100.842 87.6213 101.549 85.7487 102.962 83.982C104.446 82.2153 106.39 80.9787 108.792 80.272C105.118 77.7987 103.28 74.018 103.28 68.93C103.28 65.8207 104.199 62.9587 106.036 60.344C107.874 57.6587 110.1 55.892 112.714 55.044C106.778 51.652 103.81 46.67 103.81 40.098C103.81 34.5153 106.001 30.0633 110.382 26.742C114.834 23.4207 120.735 21.76 128.084 21.76C132.112 21.76 135.787 22.29 139.108 23.35H155.75V26H144.726C149.956 29.3213 152.57 34.0207 152.57 40.098C152.57 45.7513 150.344 50.2387 145.892 53.56C141.44 56.8813 135.504 58.542 128.084 58.542C122.996 58.542 118.615 57.7293 114.94 56.104C113.174 56.8107 112.29 57.9413 112.29 59.496C112.29 62.04 114.128 63.418 117.802 63.63L141.228 65.432ZM133.278 40.84C133.278 29.6747 131.582 24.092 128.19 24.092C124.798 24.092 123.102 29.6747 123.102 40.84C123.102 51.016 124.798 56.104 128.19 56.104C131.582 56.104 133.278 51.016 133.278 40.84ZM131.794 97.444C136.6 97.444 140.38 96.702 143.136 95.218C145.892 93.8047 147.27 91.826 147.27 89.282C147.27 88.01 146.74 86.9853 145.68 86.208C144.62 85.5013 142.536 85.0067 139.426 84.724L115.894 82.498C114.552 82.4273 113.174 82.1447 111.76 81.65C111.548 82.498 111.442 83.3813 111.442 84.3C111.442 88.2573 113.244 91.4373 116.848 93.84C120.452 96.2427 125.434 97.444 131.794 97.444ZM217.22 70.52C217.22 74.336 218.952 76.986 222.414 78.47V79H194.006V78.47C196.056 77.4807 197.08 75.184 197.08 71.58V37.13C197.08 32.8193 195.455 30.664 192.204 30.664C190.014 30.664 188.282 31.5473 187.01 33.314V71.58C187.01 75.184 188.035 77.4807 190.084 78.47V79H161.676V78.47C165.139 76.986 166.87 74.336 166.87 70.52V37.978C166.87 35.434 166.482 33.526 165.704 32.254C164.927 30.982 163.584 30.0633 161.676 29.498V28.968L187.01 21.76V31.406C189.413 24.9753 194.36 21.76 201.85 21.76C206.726 21.76 210.507 23.1027 213.192 25.788C215.878 28.4733 217.22 32.254 217.22 37.13V70.52ZM304.811 70.52C304.811 72.9933 305.235 74.76 306.083 75.82C306.931 76.8093 308.239 77.6927 310.005 78.47V79H284.671V69.46C283.682 72.7107 281.915 75.396 279.371 77.516C276.898 79.5653 273.859 80.59 270.255 80.59C260.433 80.59 255.521 74.972 255.521 63.736V35.116C255.521 32.5013 255.133 30.558 254.355 29.286C253.578 27.9433 252.235 26.9893 250.327 26.424V25.894L275.661 21.76V63.948C275.661 67.976 277.322 69.99 280.643 69.99C282.481 69.99 283.823 69.248 284.671 67.764V35.01C284.671 30.134 283.47 27.166 281.067 26.106V25.576L304.811 21.76V70.52ZM315.679 100.2V99.67C319.142 98.186 320.873 95.536 320.873 91.72V37.978C320.873 35.434 320.484 33.526 319.707 32.254C318.93 30.982 317.587 30.0633 315.679 29.498V28.968L341.013 21.76V30.558C342.285 27.7313 344.228 25.576 346.843 24.092C349.528 22.5373 352.39 21.76 355.429 21.76C361.153 21.76 365.782 24.198 369.315 29.074C372.848 33.95 374.615 40.3453 374.615 48.26C374.615 57.8707 372.142 65.6793 367.195 71.686C362.319 77.622 355.888 80.59 347.903 80.59C345.218 80.59 342.921 80.0247 341.013 78.894V91.72C341.013 95.96 343.451 98.61 348.327 99.67V100.2H315.679ZM344.193 77.198C346.808 77.198 348.892 75.1487 350.447 71.05C352.072 66.9513 352.885 61.5453 352.885 54.832C352.885 47.3413 352.072 41.4407 350.447 37.13C348.822 32.8193 346.56 30.664 343.663 30.664C342.532 30.664 341.649 31.088 341.013 31.936V76.032C341.861 76.8093 342.921 77.198 344.193 77.198ZM443.04 64.584L443.994 64.902C442.651 69.2833 440.319 72.9933 436.998 76.032C433.676 79.0707 429.436 80.59 424.278 80.59C419.472 80.59 415.833 79.212 413.36 76.456C410.957 73.6293 409.756 69.9193 409.756 65.326V26.318H404.562V25.788C407.035 23.668 411.098 20.3467 416.752 15.824C422.476 11.2307 426.822 7.62667 429.79 5.012H429.896V23.562H439.648V26.212H429.896V62.464C429.896 64.796 430.39 66.6333 431.38 67.976C432.369 69.3187 433.782 69.99 435.62 69.99C439.294 69.99 441.768 68.188 443.04 64.584ZM498.022 72.428C492.581 77.8693 485.62 80.59 477.14 80.59C468.66 80.59 461.7 77.8693 456.258 72.428C450.817 66.916 448.096 59.814 448.096 51.122C448.096 42.43 450.817 35.3633 456.258 29.922C461.7 24.4807 468.66 21.76 477.14 21.76C485.62 21.76 492.581 24.4807 498.022 29.922C503.464 35.3633 506.184 42.43 506.184 51.122C506.184 59.814 503.464 66.916 498.022 72.428ZM471.098 70.626C472.37 74.442 474.384 76.35 477.14 76.35C479.896 76.35 481.875 74.442 483.076 70.626C484.348 66.7393 484.984 60.238 484.984 51.122C484.984 42.006 484.348 35.54 483.076 31.724C481.875 27.8373 479.896 25.894 477.14 25.894C474.384 25.894 472.37 27.8373 471.098 31.724C469.897 35.54 469.296 42.006 469.296 51.122C469.296 60.238 469.897 66.7393 471.098 70.626Z" fill="white"/>
</svg>
