<svg width="42" height="12" viewBox="0 0 42 12" fill="none" xmlns="http://www.w3.org/2000/svg">
<path d="M9.03418 1.49316H5.60645V11H4.20752V1.49316H0.787109V0.335938H9.03418V1.49316ZM12.96 11.1465C11.8857 11.1465 11.0117 10.7949 10.3379 10.0918C9.66406 9.38379 9.32715 8.43896 9.32715 7.25732V7.0083C9.32715 6.22217 9.47607 5.52148 9.77393 4.90625C10.0767 4.28613 10.4966 3.80273 11.0337 3.45605C11.5757 3.10449 12.1616 2.92871 12.7915 2.92871C13.8218 2.92871 14.6226 3.26807 15.1938 3.94678C15.7651 4.62549 16.0508 5.59717 16.0508 6.86182V7.42578H10.6821C10.7017 8.20703 10.9287 8.83936 11.3633 9.32275C11.8027 9.80127 12.3594 10.0405 13.0332 10.0405C13.5117 10.0405 13.917 9.94287 14.249 9.74756C14.5811 9.55225 14.8716 9.29346 15.1206 8.97119L15.9482 9.61572C15.2842 10.6362 14.2881 11.1465 12.96 11.1465ZM12.7915 4.04199C12.2446 4.04199 11.7856 4.24219 11.4146 4.64258C11.0435 5.03809 10.814 5.59473 10.7261 6.3125H14.6958V6.20996C14.6567 5.52148 14.4712 4.98926 14.1392 4.61328C13.8071 4.23242 13.3579 4.04199 12.7915 4.04199ZM21.4561 4.29102C21.251 4.25684 21.0288 4.23975 20.7896 4.23975C19.9009 4.23975 19.2979 4.61816 18.9805 5.375V11H17.6255V3.0752H18.9438L18.9658 3.99072C19.4102 3.28271 20.04 2.92871 20.8555 2.92871C21.1191 2.92871 21.3193 2.96289 21.4561 3.03125V4.29102ZM23.9829 3.0752L24.0195 3.9541C24.6006 3.27051 25.3843 2.92871 26.3706 2.92871C27.479 2.92871 28.2334 3.35352 28.6338 4.20312C28.8975 3.82227 29.2393 3.51465 29.6592 3.28027C30.084 3.0459 30.5845 2.92871 31.1606 2.92871C32.8989 2.92871 33.7827 3.84912 33.812 5.68994V11H32.457V5.77051C32.457 5.2041 32.3276 4.78174 32.0688 4.50342C31.8101 4.22021 31.3755 4.07861 30.7651 4.07861C30.2622 4.07861 29.8447 4.22998 29.5127 4.53271C29.1807 4.83057 28.9878 5.2334 28.9341 5.74121V11H27.5718V5.80713C27.5718 4.65479 27.0078 4.07861 25.8799 4.07861C24.9912 4.07861 24.3833 4.45703 24.0562 5.21387V11H22.7012V3.0752H23.9829ZM40.4771 8.89795C40.4771 8.53174 40.3379 8.24854 40.0596 8.04834C39.7861 7.84326 39.3052 7.66748 38.6167 7.521C37.9331 7.37451 37.3887 7.19873 36.9834 6.99365C36.583 6.78857 36.2852 6.54443 36.0898 6.26123C35.8994 5.97803 35.8042 5.64111 35.8042 5.25049C35.8042 4.60107 36.0776 4.05176 36.6245 3.60254C37.1763 3.15332 37.8794 2.92871 38.7339 2.92871C39.6323 2.92871 40.3599 3.16064 40.9165 3.62451C41.478 4.08838 41.7588 4.68164 41.7588 5.4043H40.3965C40.3965 5.0332 40.2378 4.71338 39.9204 4.44482C39.6079 4.17627 39.2124 4.04199 38.7339 4.04199C38.2407 4.04199 37.855 4.14941 37.5767 4.36426C37.2983 4.5791 37.1592 4.85986 37.1592 5.20654C37.1592 5.53369 37.2886 5.78027 37.5474 5.94629C37.8062 6.1123 38.2725 6.271 38.9463 6.42236C39.625 6.57373 40.1743 6.75439 40.5942 6.96436C41.0142 7.17432 41.3242 7.42822 41.5244 7.72607C41.7295 8.01904 41.832 8.37793 41.832 8.80273C41.832 9.51074 41.5488 10.0796 40.9824 10.5093C40.416 10.9341 39.6812 11.1465 38.7778 11.1465C38.1431 11.1465 37.5815 11.0342 37.0933 10.8096C36.605 10.585 36.2217 10.2725 35.9434 9.87207C35.6699 9.4668 35.5332 9.02979 35.5332 8.56104H36.8882C36.9126 9.01514 37.0933 9.37646 37.4302 9.64502C37.772 9.90869 38.2212 10.0405 38.7778 10.0405C39.2905 10.0405 39.7007 9.93799 40.0083 9.73291C40.3208 9.52295 40.4771 9.24463 40.4771 8.89795Z" fill="white"/>
</svg>
