<svg width="305" height="103" viewBox="0 0 305 103" fill="none" xmlns="http://www.w3.org/2000/svg">
<path d="M39.1862 64.448L40.1492 64.769C38.7939 69.1917 36.4399 72.9367 33.0872 76.004C29.7346 79.0713 25.4546 80.605 20.2472 80.605C15.3966 80.605 11.7229 79.214 9.22623 76.432C6.8009 73.5787 5.58823 69.8337 5.58823 65.197V25.821H0.345234V25.286C2.8419 23.146 6.94357 19.7933 12.6502 15.228C18.4282 10.5913 22.8152 6.95333 25.8112 4.314H25.9182V23.039H35.7622V25.714H25.9182V62.308C25.9182 64.662 26.4176 66.5167 27.4162 67.872C28.4149 69.2273 29.8416 69.905 31.6962 69.905C35.4056 69.905 37.9022 68.086 39.1862 64.448ZM94.6687 72.366C89.176 77.8587 82.1497 80.605 73.5897 80.605C65.0297 80.605 58.0033 77.8587 52.5107 72.366C47.018 66.802 44.2717 59.633 44.2717 50.859C44.2717 42.085 47.018 34.9517 52.5107 29.459C58.0033 23.9663 65.0297 21.22 73.5897 21.22C82.1497 21.22 89.176 23.9663 94.6687 29.459C100.161 34.9517 102.908 42.085 102.908 50.859C102.908 59.633 100.161 66.802 94.6687 72.366ZM67.4907 70.547C68.7747 74.399 70.8077 76.325 73.5897 76.325C76.3717 76.325 78.369 74.399 79.5817 70.547C80.8657 66.6237 81.5077 60.061 81.5077 50.859C81.5077 41.657 80.8657 35.13 79.5817 31.278C78.369 27.3547 76.3717 25.393 73.5897 25.393C70.8077 25.393 68.7747 27.3547 67.4907 31.278C66.278 35.13 65.6717 41.657 65.6717 50.859C65.6717 60.061 66.278 66.6237 67.4907 70.547ZM165.005 70.44C165.005 72.9367 165.433 74.72 166.289 75.79C167.145 76.7887 168.465 77.6803 170.248 78.465V79H144.675V69.477C143.605 72.7583 141.786 75.4333 139.218 77.502C136.721 79.5707 133.583 80.605 129.802 80.605C123.953 80.605 119.316 78.0727 115.892 73.008C112.468 67.872 110.756 61.2023 110.756 52.999C110.756 43.7257 113.217 36.1287 118.139 30.208C123.061 24.216 129.303 21.22 136.864 21.22C140.145 21.22 142.749 21.9333 144.675 23.36V17.154C144.675 15.014 143.997 13.302 142.642 12.018C141.358 10.734 139.396 10.092 136.757 10.092V9.55699L165.005 0.889998V70.44ZM140.823 69.905C142.606 69.905 143.89 69.156 144.675 67.658V25.928C143.962 25.2147 142.927 24.858 141.572 24.858C138.79 24.858 136.614 26.998 135.045 31.278C133.476 35.4867 132.691 40.908 132.691 47.542C132.691 54.4613 133.476 59.9183 135.045 63.913C136.614 67.9077 138.54 69.905 140.823 69.905ZM234.57 65.518L235.64 65.625C234.784 70.547 232.822 74.292 229.755 76.86C226.687 79.3567 222.978 80.605 218.627 80.605C214.989 80.605 212.064 79.749 209.853 78.037C207.641 76.325 206.25 73.971 205.68 70.975L205.359 70.868C204.431 73.7927 202.719 76.1467 200.223 77.93C197.797 79.7133 194.766 80.605 191.128 80.605C186.848 80.605 183.424 79.2497 180.856 76.539C178.359 73.8283 177.111 70.5827 177.111 66.802C177.111 62.0227 178.965 57.9923 182.675 54.711C186.384 51.4297 191.484 49.1113 197.976 47.756L205.038 46.258V44.439C205.038 36.0217 201.293 31.813 193.803 31.813C190.307 31.813 187.454 32.6333 185.243 34.274C183.031 35.8433 181.248 38.5897 179.893 42.513L179.144 42.299C180.071 35.665 182.603 30.4933 186.741 26.784C190.949 23.0747 196.442 21.22 203.219 21.22C210.78 21.22 216.344 23.4313 219.911 27.854C223.549 32.2053 225.368 38.1617 225.368 45.723V64.555C225.368 66.3383 225.76 67.6937 226.545 68.621C227.329 69.477 228.292 69.905 229.434 69.905C232.073 69.905 233.785 68.4427 234.57 65.518ZM202.042 69.905C203.468 69.905 204.467 69.5127 205.038 68.728V49.468L203.54 49.789C198.118 50.859 195.408 54.6397 195.408 61.131C195.408 63.8417 196.014 65.9817 197.227 67.551C198.439 69.1203 200.044 69.905 202.042 69.905ZM238.516 102.005C233.736 102.005 229.528 100.792 225.89 98.367L231.882 81.996H232.417C233.986 83.494 236.055 84.671 238.623 85.527C241.191 86.383 243.473 86.811 245.471 86.811C251.962 86.811 256.313 85.206 258.525 81.996L258.953 81.354L236.911 31.706C234.771 27.0693 232.417 24.2873 229.849 23.36V22.825H262.377V23.36C259.381 24.3587 257.883 25.9637 257.883 28.175C257.883 29.887 258.204 31.5633 258.846 33.204L267.406 55.46L275.752 34.488C276.536 32.562 276.929 30.8143 276.929 29.245C276.929 26.1063 275.252 24.1447 271.9 23.36V22.825H287.95V23.36C286.309 23.9307 284.918 24.9293 283.777 26.356C282.707 27.7827 281.601 29.994 280.46 32.99L261.093 82.852C258.311 89.9853 255.136 94.943 251.57 97.725C248.003 100.578 243.652 102.005 238.516 102.005ZM301.835 77.502C299.838 79.5707 297.412 80.605 294.559 80.605C291.706 80.605 289.245 79.6063 287.176 77.609C285.107 75.5403 284.073 73.0437 284.073 70.119C284.073 67.2657 285.107 64.8403 287.176 62.843C289.245 60.7743 291.706 59.74 294.559 59.74C297.412 59.74 299.838 60.7743 301.835 62.843C303.904 64.8403 304.938 67.2657 304.938 70.119C304.938 72.9723 303.904 75.4333 301.835 77.502Z" fill="white"/>
</svg>
