<svg width="22" height="21" viewBox="0 0 22 21" fill="none" xmlns="http://www.w3.org/2000/svg">
<path fill-rule="evenodd" clip-rule="evenodd" d="M12.432 1.153C11.4071 0.936821 10.3642 0.816966 9.317 0.795001C7.132 0.752001 5.165 1.172 3.678 1.955C3.31526 2.14463 3.01905 2.44048 2.829 2.803C2.049 4.29 1.627 6.257 1.669 8.442C1.69152 9.48957 1.81171 10.5328 2.028 11.558C3.205 17.184 6.398 20.67 9.777 19.963C12.171 19.462 14.259 17.237 14.567 13.693C18.111 13.385 20.335 11.296 20.837 8.903C21.544 5.523 18.057 2.331 12.432 1.154V1.153Z" stroke="#023A15" stroke-width="1.417"/>
<path d="M3.254 2.379L18.751 17.876" stroke="#023A15" stroke-width="1.417" stroke-linecap="round" stroke-linejoin="round"/>
<path d="M15.4959 2.40682L13.3957 12.5204L3.28139 14.6206" stroke="#023A15" stroke-width="1.417" stroke-linecap="round" stroke-linejoin="round"/>
<path d="M10.5208 0.863503L9.13456 8.25992L1.90814 9.47613" stroke="#023A15" stroke-width="1.417" stroke-linecap="round" stroke-linejoin="round"/>
</svg>
