<svg width="32" height="34" viewBox="0 0 32 34" fill="none" xmlns="http://www.w3.org/2000/svg">
<path d="M15.583 34C18.379 34 20.967 33.333 23.347 32C25.727 30.667 27.625 28.724 29.042 26.171C30.458 23.619 31.167 20.571 31.167 17.029C31.167 13.486 30.458 10.429 29.042 7.857C27.625 5.286 25.727 3.333 23.347 2C20.967 0.667 18.379 0 15.583 0C12.788 0 10.2 0.667 7.82 2C5.44 3.333 3.542 5.286 2.125 7.857C0.708 10.43 0 13.486 0 17.03C0 20.572 0.708 23.62 2.125 26.172C3.542 28.724 5.44 30.667 7.82 32C10.2 33.333 12.788 34 15.583 34Z" fill="#F09C96"/>
</svg>
