<svg width="706" height="55" viewBox="0 0 706 55" fill="none" xmlns="http://www.w3.org/2000/svg">
<path d="M23.5479 12.06C26.6386 12.06 29.1396 13.3613 31.0509 15.964C33.003 18.526 33.979 21.9013 33.979 26.09C33.979 32.19 32.1693 37.0293 28.55 40.608C24.9306 44.146 20.3149 45.915 14.703 45.915C10.3516 45.915 6.46795 45.0407 3.05195 43.292V9.803C3.05195 7.44433 2.05562 5.91933 0.0629493 5.228V4.923L14.6419 0.469999V17.001C15.4146 15.415 16.6143 14.195 18.241 13.341C19.8676 12.487 21.6366 12.06 23.5479 12.06ZM16.4719 43.841C18.0173 43.841 19.2373 42.7227 20.1319 40.486C21.0266 38.2087 21.474 34.874 21.474 30.482C21.474 25.9273 21.0063 22.5723 20.071 20.417C19.1763 18.2617 17.9766 17.184 16.4719 17.184C15.5366 17.184 14.9266 17.489 14.6419 18.099V43.353C15.0893 43.6783 15.6993 43.841 16.4719 43.841ZM59.6457 36.826C62.7364 36.826 65.0544 35.7483 66.5997 33.593L67.0877 33.715C66.681 35.9517 66.01 37.9037 65.0747 39.571C64.1394 41.1977 63.0414 42.4583 61.7807 43.353C60.5607 44.2477 59.3204 44.8983 58.0597 45.305C56.799 45.7117 55.518 45.915 54.2167 45.915C50.4347 45.915 47.161 44.4713 44.3957 41.584C41.671 38.6967 40.3087 34.7113 40.3087 29.628C40.3087 24.504 41.6507 20.295 44.3347 17.001C47.0594 13.707 50.4957 12.06 54.6437 12.06C56.1077 12.06 57.5107 12.2837 58.8527 12.731C60.1947 13.1377 61.5164 13.8493 62.8177 14.866C64.1597 15.842 65.217 17.3263 65.9897 19.319C66.803 21.3117 67.2097 23.6703 67.2097 26.395H49.6417C50.089 29.811 51.1667 32.4137 52.8747 34.203C54.6234 35.9517 56.8804 36.826 59.6457 36.826ZM56.1077 16.391C55.4977 14.8457 54.5624 14.073 53.3017 14.073C52.041 14.073 51.065 14.8457 50.3737 16.391C49.723 17.8957 49.3977 20.0307 49.3977 22.796C49.3977 23.5687 49.418 24.138 49.4587 24.504H57.0227C57.0227 20.6407 56.7177 17.9363 56.1077 16.391ZM95.1034 36.704L95.6524 36.887C94.8797 39.4083 93.5377 41.5433 91.6264 43.292C89.7151 45.0407 87.2751 45.915 84.3064 45.915C81.5411 45.915 79.4467 45.122 78.0234 43.536C76.6407 41.9093 75.9494 39.7743 75.9494 37.131V14.683H72.9604V14.378C74.3837 13.158 76.7221 11.2467 79.9754 8.644C83.2694 6.00067 85.7704 3.92667 87.4784 2.422H87.5394V13.097H93.1514V14.622H87.5394V35.484C87.5394 36.826 87.8241 37.8833 88.3934 38.656C88.9627 39.4287 89.7761 39.815 90.8334 39.815C92.9481 39.815 94.3714 38.778 95.1034 36.704ZM121.395 36.704L121.944 36.887C121.172 39.4083 119.83 41.5433 117.918 43.292C116.007 45.0407 113.567 45.915 110.598 45.915C107.833 45.915 105.739 45.122 104.315 43.536C102.933 41.9093 102.241 39.7743 102.241 37.131V14.683H99.2524V14.378C100.676 13.158 103.014 11.2467 106.267 8.644C109.561 6.00067 112.062 3.92667 113.77 2.422H113.831V13.097H119.443V14.622H113.831V35.484C113.831 36.826 114.116 37.8833 114.685 38.656C115.255 39.4287 116.068 39.815 117.125 39.815C119.24 39.815 120.663 38.778 121.395 36.704ZM145.789 36.826C148.88 36.826 151.198 35.7483 152.743 33.593L153.231 33.715C152.825 35.9517 152.154 37.9037 151.218 39.571C150.283 41.1977 149.185 42.4583 147.924 43.353C146.704 44.2477 145.464 44.8983 144.203 45.305C142.943 45.7117 141.662 45.915 140.36 45.915C136.578 45.915 133.305 44.4713 130.539 41.584C127.815 38.6967 126.452 34.7113 126.452 29.628C126.452 24.504 127.794 20.295 130.478 17.001C133.203 13.707 136.639 12.06 140.787 12.06C142.251 12.06 143.654 12.2837 144.996 12.731C146.338 13.1377 147.66 13.8493 148.961 14.866C150.303 15.842 151.361 17.3263 152.133 19.319C152.947 21.3117 153.353 23.6703 153.353 26.395H135.785C136.233 29.811 137.31 32.4137 139.018 34.203C140.767 35.9517 143.024 36.826 145.789 36.826ZM142.251 16.391C141.641 14.8457 140.706 14.073 139.445 14.073C138.185 14.073 137.209 14.8457 136.517 16.391C135.867 17.8957 135.541 20.0307 135.541 22.796C135.541 23.5687 135.562 24.138 135.602 24.504H143.166C143.166 20.6407 142.861 17.9363 142.251 16.391ZM183.511 12.06H184.426V23.101H184.121C183.308 22.613 182.108 22.369 180.522 22.369C178.367 22.369 176.74 23.0603 175.642 24.443C174.544 25.8257 173.995 28.3673 173.995 32.068V40.12C173.995 42.56 175.398 44.085 178.204 44.695V45H159.416V44.695C161.409 43.841 162.405 42.316 162.405 40.12V22.186C162.405 19.0953 161.409 17.2247 159.416 16.574V16.269L173.507 12.06V27.066H173.873C174.28 17.062 177.492 12.06 183.511 12.06ZM247.079 12.975H255.802V13.28C254.054 14.0933 252.712 15.598 251.776 17.794L239.881 45.61H239.576L229.389 23.589L218.958 45.61H218.653L207.002 17.794C205.986 15.3947 204.644 13.89 202.976 13.28V12.975H220.666V13.28C219.731 13.89 219.263 14.7237 219.263 15.781C219.263 16.391 219.507 17.3263 219.995 18.587L224.448 29.994L228.352 21.332L226.034 16.269C225.384 14.7643 224.692 13.768 223.96 13.28V12.975H241.467V13.28C240.613 13.3613 239.942 13.6663 239.454 14.195C239.007 14.683 238.783 15.2117 238.783 15.781C238.783 16.513 238.987 17.3873 239.393 18.404L244.273 29.994L249.153 18.404C249.56 17.4687 249.763 16.6147 249.763 15.842C249.763 15.2727 249.519 14.7237 249.031 14.195C248.584 13.6663 247.933 13.3613 247.079 13.28V12.975ZM286.324 41.218C283.193 44.3493 279.187 45.915 274.307 45.915C269.427 45.915 265.421 44.3493 262.29 41.218C259.159 38.046 257.593 33.959 257.593 28.957C257.593 23.955 259.159 19.8883 262.29 16.757C265.421 13.6257 269.427 12.06 274.307 12.06C279.187 12.06 283.193 13.6257 286.324 16.757C289.455 19.8883 291.021 23.955 291.021 28.957C291.021 33.959 289.455 38.046 286.324 41.218ZM270.83 40.181C271.562 42.377 272.721 43.475 274.307 43.475C275.893 43.475 277.032 42.377 277.723 40.181C278.455 37.9443 278.821 34.203 278.821 28.957C278.821 23.711 278.455 19.99 277.723 17.794C277.032 15.5573 275.893 14.439 274.307 14.439C272.721 14.439 271.562 15.5573 270.83 17.794C270.139 19.99 269.793 23.711 269.793 28.957C269.793 34.203 270.139 37.9443 270.83 40.181ZM320.013 12.06H320.928V23.101H320.623C319.81 22.613 318.61 22.369 317.024 22.369C314.869 22.369 313.242 23.0603 312.144 24.443C311.046 25.8257 310.497 28.3673 310.497 32.068V40.12C310.497 42.56 311.9 44.085 314.706 44.695V45H295.918V44.695C297.911 43.841 298.907 42.316 298.907 40.12V22.186C298.907 19.0953 297.911 17.2247 295.918 16.574V16.269L310.009 12.06V27.066H310.375C310.782 17.062 313.994 12.06 320.013 12.06ZM340.356 40.12C340.356 42.316 341.352 43.841 343.345 44.695V45H325.777V44.695C327.77 43.841 328.766 42.316 328.766 40.12V9.803C328.766 7.44433 327.77 5.91933 325.777 5.228V4.923L340.356 0.469999V40.12ZM380.33 40.12C380.33 41.5433 380.574 42.56 381.062 43.17C381.55 43.7393 382.302 44.2477 383.319 44.695V45H368.74V39.571C368.13 41.4417 367.093 42.9667 365.629 44.146C364.205 45.3253 362.416 45.915 360.261 45.915C356.926 45.915 354.283 44.4713 352.331 41.584C350.379 38.656 349.403 34.8537 349.403 30.177C349.403 24.8903 350.806 20.5593 353.612 17.184C356.418 13.768 359.976 12.06 364.287 12.06C366.157 12.06 367.642 12.4667 368.74 13.28V9.742C368.74 8.522 368.353 7.546 367.581 6.814C366.849 6.082 365.73 5.716 364.226 5.716V5.411L380.33 0.469999V40.12ZM366.544 39.815C367.56 39.815 368.292 39.388 368.74 38.534V14.744C368.333 14.3373 367.743 14.134 366.971 14.134C365.385 14.134 364.144 15.354 363.25 17.794C362.355 20.1933 361.908 23.284 361.908 27.066C361.908 31.0107 362.355 34.1217 363.25 36.399C364.144 38.6763 365.242 39.815 366.544 39.815ZM392.629 54.821L392.141 53.418C393.93 52.8893 395.293 52.2387 396.228 51.466C397.204 50.6933 397.753 50.063 397.875 49.575C398.038 49.1277 398.119 48.599 398.119 47.989C398.119 47.0537 397.834 46.3217 397.265 45.793C396.736 45.305 395.862 44.878 394.642 44.512C391.551 43.658 390.006 41.95 390.006 39.388C390.006 37.8427 390.474 36.5617 391.409 35.545C392.344 34.4877 393.686 33.959 395.435 33.959C397.306 33.959 398.912 34.691 400.254 36.155C401.596 37.5783 402.267 39.6523 402.267 42.377C402.267 48.6803 399.054 52.8283 392.629 54.821ZM451.939 41.218C448.808 44.3493 444.802 45.915 439.922 45.915C435.042 45.915 431.036 44.3493 427.905 41.218C424.774 38.046 423.208 33.959 423.208 28.957C423.208 23.955 424.774 19.8883 427.905 16.757C431.036 13.6257 435.042 12.06 439.922 12.06C444.802 12.06 448.808 13.6257 451.939 16.757C455.07 19.8883 456.636 23.955 456.636 28.957C456.636 33.959 455.07 38.046 451.939 41.218ZM436.445 40.181C437.177 42.377 438.336 43.475 439.922 43.475C441.508 43.475 442.647 42.377 443.338 40.181C444.07 37.9443 444.436 34.203 444.436 28.957C444.436 23.711 444.07 19.99 443.338 17.794C442.647 15.5573 441.508 14.439 439.922 14.439C438.336 14.439 437.177 15.5573 436.445 17.794C435.754 19.99 435.408 23.711 435.408 28.957C435.408 34.203 435.754 37.9443 436.445 40.181ZM493.497 40.12C493.497 42.316 494.494 43.841 496.486 44.695V45H480.138V44.695C481.318 44.1257 481.907 42.804 481.907 40.73V20.905C481.907 18.4243 480.972 17.184 479.101 17.184C477.841 17.184 476.844 17.6923 476.112 18.709V40.73C476.112 42.804 476.702 44.1257 477.881 44.695V45H461.533V44.695C463.526 43.841 464.522 42.316 464.522 40.12V21.393C464.522 19.929 464.299 18.831 463.851 18.099C463.404 17.367 462.631 16.8383 461.533 16.513V16.208L476.112 12.06V17.611C477.495 13.9103 480.342 12.06 484.652 12.06C487.458 12.06 489.634 12.8327 491.179 14.378C492.725 15.9233 493.497 18.099 493.497 20.905V40.12ZM533.618 46.22C527.234 46.22 521.642 44.8577 516.843 42.133L520.686 30.482H520.991C522.008 34.5487 523.919 37.7207 526.725 39.998C529.572 42.2753 532.642 43.414 535.936 43.414C537.685 43.414 539.129 42.9463 540.267 42.011C541.406 41.035 541.975 39.754 541.975 38.168C541.975 35.8907 540.532 34.1013 537.644 32.8L527.518 28.164C524.59 26.7813 522.333 24.931 520.747 22.613C519.202 20.295 518.429 17.7533 518.429 14.988C518.429 13.2393 518.714 11.572 519.283 9.986C519.893 8.4 520.808 6.936 522.028 5.594C523.248 4.21133 524.956 3.11333 527.152 2.3C529.348 1.48666 531.91 1.08 534.838 1.08C537.482 1.08 540.247 1.446 543.134 2.178C546.022 2.91 548.401 3.80466 550.271 4.862L545.879 14.866H545.574C544.395 11.2873 542.606 8.54233 540.206 6.631C537.807 4.71966 535.204 3.764 532.398 3.764C530.365 3.764 528.84 4.191 527.823 5.045C526.847 5.899 526.359 6.89533 526.359 8.034C526.359 10.3113 527.783 12.1413 530.629 13.524L541.06 18.465C544.273 19.9697 546.53 21.698 547.831 23.65C549.133 25.5613 549.783 27.92 549.783 30.726C549.783 35.118 548.279 38.7983 545.269 41.767C542.26 44.7357 538.376 46.22 533.618 46.22ZM570.589 40.12C570.589 42.316 571.585 43.841 573.578 44.695V45H556.01V44.695C558.002 43.841 558.999 42.316 558.999 40.12V9.803C558.999 7.44433 558.002 5.91933 556.01 5.228V4.923L570.589 0.469999V40.12ZM612.087 37.314L612.697 37.375C612.209 40.181 611.091 42.316 609.342 43.78C607.594 45.2033 605.479 45.915 602.998 45.915C600.924 45.915 599.257 45.427 597.996 44.451C596.736 43.475 595.943 42.133 595.617 40.425L595.434 40.364C594.906 42.0313 593.93 43.3733 592.506 44.39C591.124 45.4067 589.395 45.915 587.321 45.915C584.881 45.915 582.929 45.1423 581.465 43.597C580.042 42.0517 579.33 40.2013 579.33 38.046C579.33 35.3213 580.388 33.0237 582.502 31.153C584.617 29.2823 587.525 27.9607 591.225 27.188L595.251 26.334V25.297C595.251 20.4983 593.116 18.099 588.846 18.099C586.854 18.099 585.227 18.5667 583.966 19.502C582.706 20.3967 581.689 21.9623 580.916 24.199L580.489 24.077C581.018 20.295 582.462 17.3467 584.82 15.232C587.22 13.1173 590.351 12.06 594.214 12.06C598.525 12.06 601.697 13.3207 603.73 15.842C605.804 18.3227 606.841 21.7183 606.841 26.029V36.765C606.841 37.7817 607.065 38.5543 607.512 39.083C607.96 39.571 608.509 39.815 609.159 39.815C610.664 39.815 611.64 38.9813 612.087 37.314ZM593.543 39.815C594.357 39.815 594.926 39.5913 595.251 39.144V28.164L594.397 28.347C591.307 28.957 589.761 31.1123 589.761 34.813C589.761 36.3583 590.107 37.5783 590.798 38.473C591.49 39.3677 592.405 39.815 593.543 39.815ZM631.749 45.915C627.52 45.915 624.084 44.4103 621.44 41.401C618.838 38.3917 617.536 34.447 617.536 29.567C617.536 24.4837 619.041 20.295 622.05 17.001C625.1 13.707 629.025 12.06 633.823 12.06C638.053 12.06 641.753 12.9343 644.925 14.683L640.289 25.724L639.984 25.663C639.822 22.5317 639.11 20.1933 637.849 18.648C636.589 17.1027 635.023 16.33 633.152 16.33C630.794 16.33 629.025 17.123 627.845 18.709C626.707 20.295 626.137 22.3893 626.137 24.992C626.137 27.9607 627.032 30.665 628.821 33.105C630.651 35.545 633.254 36.765 636.629 36.765C640.127 36.765 642.587 35.5247 644.01 33.044L644.376 33.166C644.132 36.948 642.831 40.0183 640.472 42.377C638.154 44.7357 635.247 45.915 631.749 45.915ZM649.182 45V44.695C651.175 43.841 652.171 42.316 652.171 40.12V9.803C652.171 7.44433 651.175 5.91933 649.182 5.228V4.923L663.761 0.469999V40.73C663.761 41.828 663.985 42.7023 664.432 43.353C664.88 43.963 665.632 44.4103 666.689 44.695V45H649.182ZM672.545 45L664.066 28.469L673.033 21.576C675.433 19.7053 676.632 17.9973 676.632 16.452C676.632 14.4593 675.25 13.402 672.484 13.28V12.975H686.392V13.28C684.359 14.5407 681.573 16.6147 678.035 19.502L674.07 22.796L684.013 40.425C685.315 42.743 686.962 44.1663 688.954 44.695V45H672.545ZM703.619 44.146C702.481 45.3253 701.098 45.915 699.471 45.915C697.845 45.915 696.442 45.3457 695.262 44.207C694.083 43.0277 693.493 41.6043 693.493 39.937C693.493 38.3103 694.083 36.9277 695.262 35.789C696.442 34.6097 697.845 34.02 699.471 34.02C701.098 34.02 702.481 34.6097 703.619 35.789C704.799 36.9277 705.388 38.3103 705.388 39.937C705.388 41.5637 704.799 42.9667 703.619 44.146Z" fill="black"/>
</svg>
