<svg width="610" height="46" viewBox="0 0 610 46" fill="none" xmlns="http://www.w3.org/2000/svg">
<path d="M18.9 45.18C13.3933 45.18 8.92901 43.2133 5.50701 39.28C2.12434 35.3467 0.433008 30.1743 0.433008 23.763C0.433008 17.3123 2.41934 12.0023 6.39201 7.833C10.3647 3.62433 15.3797 1.52 21.437 1.52C26.629 1.52 31.4277 2.68033 35.833 5.001L30.936 18.394L30.641 18.335C30.1297 14.323 28.93 11.2747 27.042 9.19C25.154 7.10533 22.6367 6.063 19.49 6.063C16.6187 6.063 14.3373 7.08567 12.646 9.131C10.994 11.137 10.168 13.8707 10.168 17.332C10.168 22.6813 11.584 27.008 14.416 30.312C17.248 33.616 20.9453 35.268 25.508 35.268C28.104 35.268 30.1493 34.855 31.644 34.029C33.178 33.203 34.3187 31.8853 35.066 30.076L35.479 30.253C33.237 40.2043 27.7107 45.18 18.9 45.18ZM65.1111 12.14H65.9961V22.819H65.7011C64.9144 22.347 63.7541 22.111 62.2201 22.111C60.1354 22.111 58.5621 22.7797 57.5001 24.117C56.4381 25.4543 55.9071 27.9127 55.9071 31.492V39.28C55.9071 41.64 57.2641 43.115 59.9781 43.705V44H41.8061V43.705C43.7334 42.879 44.6971 41.404 44.6971 39.28V21.934C44.6971 18.9447 43.7334 17.1353 41.8061 16.506V16.211L55.4351 12.14V26.654H55.7891C56.1824 16.978 59.2897 12.14 65.1111 12.14ZM89.7825 36.094C92.7718 36.094 95.0138 35.0517 96.5085 32.967L96.9805 33.085C96.5872 35.2483 95.9382 37.1363 95.0335 38.749C94.1288 40.3223 93.0668 41.5417 91.8475 42.407C90.6675 43.2723 89.4678 43.9017 88.2485 44.295C87.0292 44.6883 85.7902 44.885 84.5315 44.885C80.8735 44.885 77.7072 43.4887 75.0325 40.696C72.3972 37.9033 71.0795 34.0487 71.0795 29.132C71.0795 24.176 72.3775 20.105 74.9735 16.919C77.6088 13.733 80.9325 12.14 84.9445 12.14C86.3605 12.14 87.7175 12.3563 89.0155 12.789C90.3135 13.1823 91.5918 13.8707 92.8505 14.854C94.1485 15.798 95.1712 17.2337 95.9185 19.161C96.7052 21.0883 97.0985 23.3697 97.0985 26.005H80.1065C80.5392 29.309 81.5815 31.8263 83.2335 33.557C84.9248 35.2483 87.1078 36.094 89.7825 36.094ZM86.3605 16.329C85.7705 14.8343 84.8658 14.087 83.6465 14.087C82.4272 14.087 81.4832 14.8343 80.8145 16.329C80.1852 17.7843 79.8705 19.8493 79.8705 22.524C79.8705 23.2713 79.8902 23.822 79.9295 24.176H87.2455C87.2455 20.4393 86.9505 17.8237 86.3605 16.329ZM135.032 36.566L135.622 36.625C135.15 39.339 134.068 41.404 132.377 42.82C130.686 44.1967 128.64 44.885 126.241 44.885C124.235 44.885 122.622 44.413 121.403 43.469C120.184 42.525 119.417 41.227 119.102 39.575L118.925 39.516C118.414 41.1287 117.47 42.4267 116.093 43.41C114.756 44.3933 113.084 44.885 111.078 44.885C108.718 44.885 106.83 44.1377 105.414 42.643C104.037 41.1483 103.349 39.3587 103.349 37.274C103.349 34.6387 104.372 32.4163 106.417 30.607C108.462 28.7977 111.275 27.5193 114.854 26.772L118.748 25.946V24.943C118.748 20.3017 116.683 17.981 112.553 17.981C110.626 17.981 109.052 18.4333 107.833 19.338C106.614 20.2033 105.63 21.7177 104.883 23.881L104.47 23.763C104.981 20.105 106.378 17.2533 108.659 15.208C110.98 13.1627 114.008 12.14 117.745 12.14C121.914 12.14 124.982 13.3593 126.949 15.798C128.955 18.1973 129.958 21.4817 129.958 25.651V36.035C129.958 37.0183 130.174 37.7657 130.607 38.277C131.04 38.749 131.571 38.985 132.2 38.985C133.655 38.985 134.599 38.1787 135.032 36.566ZM117.096 38.985C117.883 38.985 118.433 38.7687 118.748 38.336V27.716L117.922 27.893C114.933 28.483 113.438 30.5677 113.438 34.147C113.438 35.6417 113.772 36.8217 114.441 37.687C115.11 38.5523 115.995 38.985 117.096 38.985ZM161.228 35.976L161.759 36.153C161.011 38.5917 159.713 40.6567 157.865 42.348C156.016 44.0393 153.656 44.885 150.785 44.885C148.11 44.885 146.084 44.118 144.708 42.584C143.37 41.0107 142.702 38.9457 142.702 36.389V14.677H139.811V14.382C141.187 13.202 143.449 11.3533 146.596 8.836C149.782 6.27933 152.201 4.27333 153.853 2.818H153.912V13.143H159.34V14.618H153.912V34.796C153.912 36.094 154.187 37.1167 154.738 37.864C155.288 38.6113 156.075 38.985 157.098 38.985C159.143 38.985 160.52 37.982 161.228 35.976ZM184.92 36.094C187.91 36.094 190.152 35.0517 191.646 32.967L192.118 33.085C191.725 35.2483 191.076 37.1363 190.171 38.749C189.267 40.3223 188.205 41.5417 186.985 42.407C185.805 43.2723 184.606 43.9017 183.386 44.295C182.167 44.6883 180.928 44.885 179.669 44.885C176.011 44.885 172.845 43.4887 170.17 40.696C167.535 37.9033 166.217 34.0487 166.217 29.132C166.217 24.176 167.515 20.105 170.111 16.919C172.747 13.733 176.07 12.14 180.082 12.14C181.498 12.14 182.855 12.3563 184.153 12.789C185.451 13.1823 186.73 13.8707 187.988 14.854C189.286 15.798 190.309 17.2337 191.056 19.161C191.843 21.0883 192.236 23.3697 192.236 26.005H175.244C175.677 29.309 176.719 31.8263 178.371 33.557C180.063 35.2483 182.246 36.094 184.92 36.094ZM181.498 16.329C180.908 14.8343 180.004 14.087 178.784 14.087C177.565 14.087 176.621 14.8343 175.952 16.329C175.323 17.7843 175.008 19.8493 175.008 22.524C175.008 23.2713 175.028 23.822 175.067 24.176H182.383C182.383 20.4393 182.088 17.8237 181.498 16.329ZM244.981 36.566L245.571 36.625C245.099 39.339 244.018 41.404 242.326 42.82C240.635 44.1967 238.59 44.885 236.19 44.885C234.184 44.885 232.572 44.413 231.352 43.469C230.133 42.525 229.366 41.227 229.051 39.575L228.874 39.516C228.363 41.1287 227.419 42.4267 226.042 43.41C224.705 44.3933 223.033 44.885 221.027 44.885C218.667 44.885 216.779 44.1377 215.363 42.643C213.987 41.1483 213.298 39.3587 213.298 37.274C213.298 34.6387 214.321 32.4163 216.366 30.607C218.412 28.7977 221.224 27.5193 224.803 26.772L228.697 25.946V24.943C228.697 20.3017 226.632 17.981 222.502 17.981C220.575 17.981 219.002 18.4333 217.782 19.338C216.563 20.2033 215.58 21.7177 214.832 23.881L214.419 23.763C214.931 20.105 216.327 17.2533 218.608 15.208C220.929 13.1627 223.958 12.14 227.694 12.14C231.864 12.14 234.932 13.3593 236.898 15.798C238.904 18.1973 239.907 21.4817 239.907 25.651V36.035C239.907 37.0183 240.124 37.7657 240.556 38.277C240.989 38.749 241.52 38.985 242.149 38.985C243.605 38.985 244.549 38.1787 244.981 36.566ZM227.045 38.985C227.832 38.985 228.383 38.7687 228.697 38.336V27.716L227.871 27.893C224.882 28.483 223.387 30.5677 223.387 34.147C223.387 35.6417 223.722 36.8217 224.39 37.687C225.059 38.5523 225.944 38.985 227.045 38.985ZM277.756 44.885C273.666 44.885 270.342 43.4297 267.785 40.519C265.268 37.6083 264.009 33.793 264.009 29.073C264.009 24.1563 265.465 20.105 268.375 16.919C271.325 13.733 275.121 12.14 279.762 12.14C283.853 12.14 287.432 12.9857 290.5 14.677L286.016 25.356L285.721 25.297C285.564 22.2683 284.876 20.0067 283.656 18.512C282.437 17.0173 280.923 16.27 279.113 16.27C276.832 16.27 275.121 17.037 273.98 18.571C272.879 20.105 272.328 22.1307 272.328 24.648C272.328 27.5193 273.194 30.135 274.924 32.495C276.694 34.855 279.212 36.035 282.476 36.035C285.859 36.035 288.239 34.8353 289.615 32.436L289.969 32.554C289.733 36.212 288.475 39.1817 286.193 41.463C283.951 43.7443 281.139 44.885 277.756 44.885ZM308.817 39.28C308.817 41.404 309.781 42.879 311.708 43.705V44H294.716V43.705C296.643 42.879 297.607 41.404 297.607 39.28V9.957C297.607 7.67566 296.643 6.20066 294.716 5.532V5.237L308.817 0.929999V39.28ZM336.074 36.094C339.063 36.094 341.305 35.0517 342.8 32.967L343.272 33.085C342.878 35.2483 342.229 37.1363 341.325 38.749C340.42 40.3223 339.358 41.5417 338.139 42.407C336.959 43.2723 335.759 43.9017 334.54 44.295C333.32 44.6883 332.081 44.885 330.823 44.885C327.165 44.885 323.998 43.4887 321.324 40.696C318.688 37.9033 317.371 34.0487 317.371 29.132C317.371 24.176 318.669 20.105 321.265 16.919C323.9 13.733 327.224 12.14 331.236 12.14C332.652 12.14 334.009 12.3563 335.307 12.789C336.605 13.1823 337.883 13.8707 339.142 14.854C340.44 15.798 341.462 17.2337 342.21 19.161C342.996 21.0883 343.39 23.3697 343.39 26.005H326.398C326.83 29.309 327.873 31.8263 329.525 33.557C331.216 35.2483 333.399 36.094 336.074 36.094ZM332.652 16.329C332.062 14.8343 331.157 14.087 329.938 14.087C328.718 14.087 327.774 14.8343 327.106 16.329C326.476 17.7843 326.162 19.8493 326.162 22.524C326.162 23.2713 326.181 23.822 326.221 24.176H333.537C333.537 20.4393 333.242 17.8237 332.652 16.329ZM381.323 36.566L381.913 36.625C381.441 39.339 380.359 41.404 378.668 42.82C376.977 44.1967 374.931 44.885 372.532 44.885C370.526 44.885 368.913 44.413 367.694 43.469C366.475 42.525 365.708 41.227 365.393 39.575L365.216 39.516C364.705 41.1287 363.761 42.4267 362.384 43.41C361.047 44.3933 359.375 44.885 357.369 44.885C355.009 44.885 353.121 44.1377 351.705 42.643C350.328 41.1483 349.64 39.3587 349.64 37.274C349.64 34.6387 350.663 32.4163 352.708 30.607C354.753 28.7977 357.566 27.5193 361.145 26.772L365.039 25.946V24.943C365.039 20.3017 362.974 17.981 358.844 17.981C356.917 17.981 355.343 18.4333 354.124 19.338C352.905 20.2033 351.921 21.7177 351.174 23.881L350.761 23.763C351.272 20.105 352.669 17.2533 354.95 15.208C357.271 13.1627 360.299 12.14 364.036 12.14C368.205 12.14 371.273 13.3593 373.24 15.798C375.246 18.1973 376.249 21.4817 376.249 25.651V36.035C376.249 37.0183 376.465 37.7657 376.898 38.277C377.331 38.749 377.862 38.985 378.491 38.985C379.946 38.985 380.89 38.1787 381.323 36.566ZM363.387 38.985C364.174 38.985 364.724 38.7687 365.039 38.336V27.716L364.213 27.893C361.224 28.483 359.729 30.5677 359.729 34.147C359.729 35.6417 360.063 36.8217 360.732 37.687C361.401 38.5523 362.286 38.985 363.387 38.985ZM417.032 39.28C417.032 41.404 417.995 42.879 419.923 43.705V44H404.111V43.705C405.251 43.1543 405.822 41.876 405.822 39.87V20.695C405.822 18.2957 404.917 17.096 403.108 17.096C401.888 17.096 400.925 17.5877 400.217 18.571V39.87C400.217 41.876 400.787 43.1543 401.928 43.705V44H386.116V43.705C388.043 42.879 389.007 41.404 389.007 39.28V21.167C389.007 19.751 388.79 18.689 388.358 17.981C387.925 17.273 387.178 16.7617 386.116 16.447V16.152L400.217 12.14V17.509C401.554 13.9297 404.307 12.14 408.477 12.14C411.191 12.14 413.295 12.8873 414.79 14.382C416.284 15.8767 417.032 17.981 417.032 20.695V39.28ZM443.426 36.094C446.415 36.094 448.657 35.0517 450.152 32.967L450.624 33.085C450.231 35.2483 449.582 37.1363 448.677 38.749C447.772 40.3223 446.71 41.5417 445.491 42.407C444.311 43.2723 443.111 43.9017 441.892 44.295C440.673 44.6883 439.434 44.885 438.175 44.885C434.517 44.885 431.351 43.4887 428.676 40.696C426.041 37.9033 424.723 34.0487 424.723 29.132C424.723 24.176 426.021 20.105 428.617 16.919C431.252 13.733 434.576 12.14 438.588 12.14C440.004 12.14 441.361 12.3563 442.659 12.789C443.957 13.1823 445.235 13.8707 446.494 14.854C447.792 15.798 448.815 17.2337 449.562 19.161C450.349 21.0883 450.742 23.3697 450.742 26.005H433.75C434.183 29.309 435.225 31.8263 436.877 33.557C438.568 35.2483 440.751 36.094 443.426 36.094ZM440.004 16.329C439.414 14.8343 438.509 14.087 437.29 14.087C436.071 14.087 435.127 14.8343 434.458 16.329C433.829 17.7843 433.514 19.8493 433.514 22.524C433.514 23.2713 433.534 23.822 433.573 24.176H440.889C440.889 20.4393 440.594 17.8237 440.004 16.329ZM480.009 12.14H480.894V22.819H480.599C479.813 22.347 478.652 22.111 477.118 22.111C475.034 22.111 473.46 22.7797 472.398 24.117C471.336 25.4543 470.805 27.9127 470.805 31.492V39.28C470.805 41.64 472.162 43.115 474.876 43.705V44H456.704V43.705C458.632 42.879 459.595 41.404 459.595 39.28V21.934C459.595 18.9447 458.632 17.1353 456.704 16.506V16.211L470.333 12.14V26.654H470.687C471.081 16.978 474.188 12.14 480.009 12.14ZM532.472 36.566L533.062 36.625C532.59 39.339 531.509 41.404 529.817 42.82C528.126 44.1967 526.081 44.885 523.681 44.885C521.675 44.885 520.063 44.413 518.843 43.469C517.624 42.525 516.857 41.227 516.542 39.575L516.365 39.516C515.854 41.1287 514.91 42.4267 513.533 43.41C512.196 44.3933 510.524 44.885 508.518 44.885C506.158 44.885 504.27 44.1377 502.854 42.643C501.478 41.1483 500.789 39.3587 500.789 37.274C500.789 34.6387 501.812 32.4163 503.857 30.607C505.903 28.7977 508.715 27.5193 512.294 26.772L516.188 25.946V24.943C516.188 20.3017 514.123 17.981 509.993 17.981C508.066 17.981 506.493 18.4333 505.273 19.338C504.054 20.2033 503.071 21.7177 502.323 23.881L501.91 23.763C502.422 20.105 503.818 17.2533 506.099 15.208C508.42 13.1627 511.449 12.14 515.185 12.14C519.355 12.14 522.423 13.3593 524.389 15.798C526.395 18.1973 527.398 21.4817 527.398 25.651V36.035C527.398 37.0183 527.615 37.7657 528.047 38.277C528.48 38.749 529.011 38.985 529.64 38.985C531.096 38.985 532.04 38.1787 532.472 36.566ZM514.536 38.985C515.323 38.985 515.874 38.7687 516.188 38.336V27.716L515.362 27.893C512.373 28.483 510.878 30.5677 510.878 34.147C510.878 35.6417 511.213 36.8217 511.881 37.687C512.55 38.5523 513.435 38.985 514.536 38.985ZM568.181 39.28C568.181 41.404 569.145 42.879 571.072 43.705V44H555.26V43.705C556.401 43.1543 556.971 41.876 556.971 39.87V20.695C556.971 18.2957 556.066 17.096 554.257 17.096C553.038 17.096 552.074 17.5877 551.366 18.571V39.87C551.366 41.876 551.936 43.1543 553.077 43.705V44H537.265V43.705C539.192 42.879 540.156 41.404 540.156 39.28V21.167C540.156 19.751 539.94 18.689 539.507 17.981C539.074 17.273 538.327 16.7617 537.265 16.447V16.152L551.366 12.14V17.509C552.703 13.9297 555.457 12.14 559.626 12.14C562.34 12.14 564.444 12.8873 565.939 14.382C567.434 15.8767 568.181 17.981 568.181 20.695V39.28ZM606.945 39.28C606.945 40.6567 607.181 41.64 607.653 42.23C608.125 42.7807 608.852 43.2723 609.836 43.705V44H595.735V38.749C595.145 40.5583 594.142 42.0333 592.726 43.174C591.349 44.3147 589.618 44.885 587.534 44.885C584.308 44.885 581.752 43.4887 579.864 40.696C577.976 37.864 577.032 34.1863 577.032 29.663C577.032 24.5497 578.389 20.3607 581.103 17.096C583.817 13.792 587.258 12.14 591.428 12.14C593.237 12.14 594.673 12.5333 595.735 13.32V9.898C595.735 8.718 595.361 7.774 594.614 7.066C593.906 6.358 592.824 6.004 591.369 6.004V5.709L606.945 0.929999V39.28ZM593.611 38.985C594.594 38.985 595.302 38.572 595.735 37.746V14.736C595.341 14.3427 594.771 14.146 594.024 14.146C592.49 14.146 591.29 15.326 590.425 17.686C589.559 20.0067 589.127 22.996 589.127 26.654C589.127 30.4693 589.559 33.4783 590.425 35.681C591.29 37.8837 592.352 38.985 593.611 38.985Z" fill="black"/>
</svg>
