<svg width="312" height="80" viewBox="0 0 312 80" fill="none" xmlns="http://www.w3.org/2000/svg">
<path d="M34.594 63.662C40.0153 63.662 44.0813 61.7717 46.792 57.991L47.648 58.205C46.9347 62.1283 45.7577 65.5523 44.117 68.477C42.4763 71.3303 40.5503 73.5417 38.339 75.111C36.199 76.6803 34.0233 77.8217 31.812 78.535C29.6007 79.2483 27.3537 79.605 25.071 79.605C18.437 79.605 12.6947 77.0727 7.844 72.008C3.06467 66.9433 0.675 59.9527 0.675 51.036C0.675 42.048 3.029 34.665 7.737 28.887C12.5163 23.109 18.544 20.22 25.82 20.22C28.388 20.22 30.849 20.6123 33.203 21.397C35.557 22.1103 37.8753 23.3587 40.158 25.142C42.512 26.854 44.3667 29.4577 45.722 32.953C47.1487 36.4483 47.862 40.5857 47.862 45.365H17.046C17.8307 51.357 19.721 55.9223 22.717 59.061C25.7843 62.1283 29.7433 63.662 34.594 63.662ZM28.388 27.817C27.318 25.1063 25.6773 23.751 23.466 23.751C21.2547 23.751 19.5427 25.1063 18.33 27.817C17.1887 30.4563 16.618 34.2013 16.618 39.052C16.618 40.4073 16.6537 41.406 16.725 42.048H29.993C29.993 35.2713 29.458 30.5277 28.388 27.817ZM117.068 0.959997C123.203 0.959997 128.553 2.565 133.118 5.775L124.879 16.475L124.344 16.368C124.059 12.73 122.989 9.98366 121.134 8.12899C119.279 6.27433 117.104 5.347 114.607 5.347C112.253 5.347 110.434 6.096 109.15 7.59399C107.937 9.092 107.331 10.6613 107.331 12.302C107.331 17.438 109.721 20.6123 114.5 21.825H123.809V24.5H116.961V69.44C116.961 73.72 119.422 76.395 124.344 77.465V78H91.388V77.465C94.8834 75.967 96.631 73.292 96.631 69.44V24.5H91.388V21.825H96.631V21.397C96.631 18.5437 97.0234 15.8687 97.808 13.372C96.31 10.7327 94.2414 8.62833 91.602 7.05899C88.9627 5.41833 86.0737 4.59799 82.935 4.59799C79.8677 4.59799 77.371 5.31133 75.445 6.738C73.5904 8.16466 72.6987 10.376 72.77 13.372C72.8414 17.652 75.124 20.4697 79.618 21.825H87.108V24.5H81.33V69.44C81.33 73.292 83.0777 75.967 86.573 77.465V78H55.757V77.465C59.2524 75.967 61 73.292 61 69.44V24.5H55.757V21.825H61V21.397C61 15.3337 63.0687 10.4117 67.206 6.63099C71.3434 2.85033 77.264 0.959997 84.968 0.959997C91.8874 0.959997 97.8794 2.458 102.944 5.454C106.582 2.458 111.29 0.959997 117.068 0.959997ZM180.254 71.366C174.761 76.8587 167.735 79.605 159.175 79.605C150.615 79.605 143.588 76.8587 138.096 71.366C132.603 65.802 129.857 58.633 129.857 49.859C129.857 41.085 132.603 33.9517 138.096 28.459C143.588 22.9663 150.615 20.22 159.175 20.22C167.735 20.22 174.761 22.9663 180.254 28.459C185.746 33.9517 188.493 41.085 188.493 49.859C188.493 58.633 185.746 65.802 180.254 71.366ZM153.076 69.547C154.36 73.399 156.393 75.325 159.175 75.325C161.957 75.325 163.954 73.399 165.167 69.547C166.451 65.6237 167.093 59.061 167.093 49.859C167.093 40.657 166.451 34.13 165.167 30.278C163.954 26.3547 161.957 24.393 159.175 24.393C156.393 24.393 154.36 26.3547 153.076 30.278C151.863 34.13 151.257 40.657 151.257 49.859C151.257 59.061 151.863 65.6237 153.076 69.547ZM236.086 20.22H237.691V39.587H237.156C235.729 38.731 233.625 38.303 230.843 38.303C227.062 38.303 224.209 39.5157 222.283 41.941C220.357 44.3663 219.394 48.8247 219.394 55.316V69.44C219.394 73.72 221.855 76.395 226.777 77.465V78H193.821V77.465C197.316 75.967 199.064 73.292 199.064 69.44V37.982C199.064 32.5607 197.316 29.2793 193.821 28.138V27.603L218.538 20.22V46.542H219.18C219.893 28.994 225.528 20.22 236.086 20.22ZM283.33 63.448L284.293 63.769C282.937 68.1917 280.583 71.9367 277.231 75.004C273.878 78.0713 269.598 79.605 264.391 79.605C259.54 79.605 255.866 78.214 253.37 75.432C250.944 72.5787 249.732 68.8337 249.732 64.197V24.821H244.489V24.286C246.985 22.146 251.087 18.7933 256.794 14.228C262.572 9.59133 266.959 5.95333 269.955 3.314H270.062V22.039H279.906V24.714H270.062V61.308C270.062 63.662 270.561 65.5167 271.56 66.872C272.558 68.2273 273.985 68.905 275.84 68.905C279.549 68.905 282.046 67.086 283.33 63.448ZM308.827 76.502C306.83 78.5707 304.404 79.605 301.551 79.605C298.698 79.605 296.237 78.6063 294.168 76.609C292.099 74.5403 291.065 72.0437 291.065 69.119C291.065 66.2657 292.099 63.8403 294.168 61.843C296.237 59.7743 298.698 58.74 301.551 58.74C304.404 58.74 306.83 59.7743 308.827 61.843C310.896 63.8403 311.93 66.2657 311.93 69.119C311.93 71.9723 310.896 74.4333 308.827 76.502Z" fill="white"/>
</svg>
