<svg width="599" height="111" viewBox="0 0 599 111" fill="none" xmlns="http://www.w3.org/2000/svg">
<g clip-path="url(#clip0)">
<path d="M313.068 69.584L314.022 69.902C312.679 74.2833 310.347 77.9933 307.026 81.032C303.705 84.0707 299.465 85.59 294.306 85.59C289.501 85.59 285.861 84.212 283.388 81.456C280.985 78.6293 279.784 74.9193 279.784 70.326V31.318H274.59V30.788C277.063 28.668 281.127 25.3467 286.78 20.824C292.504 16.2307 296.85 12.6267 299.818 10.012H299.924V28.562H309.676V31.212H299.924V67.464C299.924 69.796 300.419 71.6333 301.408 72.976C302.397 74.3187 303.811 74.99 305.648 74.99C309.323 74.99 311.796 73.188 313.068 69.584ZM352.244 69.796C357.615 69.796 361.643 67.9233 364.328 64.178L365.176 64.39C364.47 68.2767 363.304 71.6687 361.678 74.566C360.053 77.3927 358.145 79.5833 355.954 81.138C353.834 82.6927 351.679 83.8233 349.488 84.53C347.298 85.2367 345.072 85.59 342.81 85.59C336.238 85.59 330.55 83.0813 325.744 78.064C321.01 73.0467 318.642 66.1213 318.642 57.288C318.642 48.384 320.974 41.07 325.638 35.346C330.373 29.622 336.344 26.76 343.552 26.76C346.096 26.76 348.534 27.1487 350.866 27.926C353.198 28.6327 355.495 29.8693 357.756 31.636C360.088 33.332 361.926 35.9113 363.268 39.374C364.682 42.8367 365.388 46.9353 365.388 51.67H334.86C335.638 57.606 337.51 62.1287 340.478 65.238C343.517 68.2767 347.439 69.796 352.244 69.796ZM346.096 34.286C345.036 31.6007 343.411 30.258 341.22 30.258C339.03 30.258 337.334 31.6007 336.132 34.286C335.002 36.9007 334.436 40.6107 334.436 45.416C334.436 46.7587 334.472 47.748 334.542 48.384H347.686C347.686 41.6707 347.156 36.9713 346.096 34.286ZM430.15 70.644L431.21 70.75C430.362 75.626 428.419 79.336 425.38 81.88C422.341 84.3533 418.667 85.59 414.356 85.59C410.752 85.59 407.855 84.742 405.664 83.046C403.473 81.35 402.095 79.018 401.53 76.05L401.212 75.944C400.293 78.8413 398.597 81.1733 396.124 82.94C393.721 84.7067 390.718 85.59 387.114 85.59C382.874 85.59 379.482 84.2473 376.938 81.562C374.465 78.8767 373.228 75.6613 373.228 71.916C373.228 67.1813 375.065 63.1887 378.74 59.938C382.415 56.6873 387.467 54.3907 393.898 53.048L400.894 51.564V49.762C400.894 41.4233 397.184 37.254 389.764 37.254C386.301 37.254 383.475 38.0667 381.284 39.692C379.093 41.2467 377.327 43.9673 375.984 47.854L375.242 47.642C376.161 41.07 378.669 35.9467 382.768 32.272C386.937 28.5973 392.379 26.76 399.092 26.76C406.583 26.76 412.095 28.9507 415.628 33.332C419.232 37.6427 421.034 43.5433 421.034 51.034V69.69C421.034 71.4567 421.423 72.7993 422.2 73.718C422.977 74.566 423.931 74.99 425.062 74.99C427.677 74.99 429.373 73.5413 430.15 70.644ZM397.926 74.99C399.339 74.99 400.329 74.6013 400.894 73.824V54.744L399.41 55.062C394.039 56.122 391.354 59.8673 391.354 66.298C391.354 68.9833 391.955 71.1033 393.156 72.658C394.357 74.2127 395.947 74.99 397.926 74.99ZM519.005 75.52C519.005 79.336 520.736 81.986 524.199 83.47V84H496.321V83.47C497.663 82.834 498.511 81.88 498.865 80.608V42.236C498.865 37.8547 497.239 35.664 493.989 35.664C492.01 35.664 490.526 36.6887 489.537 38.738C489.749 39.798 489.855 40.964 489.855 42.236V76.58C489.855 80.184 490.879 82.4807 492.929 83.47V84H466.641V83.47C468.69 82.4807 469.715 80.184 469.715 76.58V42.236C469.715 37.8547 468.089 35.664 464.839 35.664C463.072 35.664 461.694 36.5473 460.705 38.314V76.58C460.705 80.184 461.729 82.4807 463.779 83.47V84H435.371V83.47C438.833 81.986 440.565 79.336 440.565 75.52V42.978C440.565 40.434 440.176 38.526 439.399 37.254C438.621 35.982 437.279 35.0633 435.371 34.498V33.968L460.705 26.76V36.512C462.895 30.0107 467.489 26.76 474.485 26.76C478.371 26.76 481.587 27.6433 484.131 29.41C486.675 31.1767 488.371 33.7207 489.219 37.042C489.996 34.074 491.727 31.636 494.413 29.728C497.169 27.7493 500.243 26.76 503.635 26.76C508.44 26.76 512.185 28.138 514.871 30.894C517.627 33.5793 519.005 37.36 519.005 42.236V75.52Z" fill="#F09C96"/>
<path d="M39.376 9.63499C34.8107 11.561 32.528 15.2703 32.528 20.763V71.909C32.528 74.5483 33.1343 76.938 34.347 79.078C35.631 81.1467 37.3073 82.609 39.376 83.465V84H3.21V83.465C5.564 82.5377 7.276 81.2537 8.346 79.613C9.48733 77.9723 10.058 75.4043 10.058 71.909V20.763C10.058 17.339 9.523 14.878 8.453 13.38C7.383 11.882 5.63533 10.6337 3.21 9.63499V9.09999H39.376V9.63499ZM85.0788 69.448L86.0418 69.769C84.6865 74.1917 82.3325 77.9367 78.9798 81.004C75.6271 84.0713 71.3471 85.605 66.1398 85.605C61.2891 85.605 57.6155 84.214 55.1188 81.432C52.6935 78.5787 51.4808 74.8337 51.4808 70.197V30.821H46.2378V30.286C48.7345 28.146 52.8361 24.7933 58.5428 20.228C64.3208 15.5913 68.7078 11.9533 71.7038 9.314H71.8108V28.039H81.6548V30.714H71.8108V67.308C71.8108 69.662 72.3101 71.5167 73.3088 72.872C74.3075 74.2273 75.7341 74.905 77.5888 74.905C81.2981 74.905 83.7948 73.086 85.0788 69.448ZM93.8549 39.916L92.9989 37.99C95.7809 37.134 97.9209 36.171 99.4189 35.101C100.917 33.9597 101.773 33.068 101.987 32.426C102.272 31.7127 102.415 30.8923 102.415 29.965C102.415 27.2543 100.596 25.5423 96.9579 24.829C92.0359 23.8303 89.5749 21.1197 89.5749 16.697C89.5749 14.2717 90.3239 12.2387 91.8219 10.598C93.3913 8.886 95.5313 8.03 98.2419 8.03C101.095 8.03 103.592 9.207 105.732 11.561C107.943 13.8437 109.049 17.125 109.049 21.405C109.049 25.5423 108.015 29.216 105.946 32.426C103.877 35.636 99.8469 38.1327 93.8549 39.916ZM132.037 85.605C123.976 85.605 116.807 83.0727 110.53 78.008L116.95 63.563L117.592 63.67C118.947 68.5207 121.337 72.6223 124.761 75.975C128.256 79.2563 132.001 80.897 135.996 80.897C138.706 80.897 140.668 80.3263 141.881 79.185C143.093 77.9723 143.7 76.5457 143.7 74.905C143.7 72.4083 142.451 70.625 139.955 69.555L123.37 61.851C116.379 58.5697 112.884 53.291 112.884 46.015C112.884 40.9503 114.917 36.385 118.983 32.319C123.049 28.253 129.005 26.22 136.852 26.22C144.484 26.22 151.083 28.2887 156.647 32.426L150.013 44.838L149.371 44.731C145.875 35.2437 140.276 30.5 132.572 30.5C127.864 30.5 125.51 32.1407 125.51 35.422C125.51 37.99 127.008 39.9873 130.004 41.414L145.733 48.69C152.367 51.8287 155.684 56.8577 155.684 63.777C155.684 69.6977 153.615 74.8337 149.478 79.185C145.412 83.465 139.598 85.605 132.037 85.605ZM243.8 70.518L244.87 70.625C244.014 75.547 242.052 79.292 238.985 81.86C235.918 84.3567 232.208 85.605 227.857 85.605C224.219 85.605 221.294 84.749 219.083 83.037C216.872 81.325 215.481 78.971 214.91 75.975L214.589 75.868C213.662 78.7927 211.95 81.1467 209.453 82.93C207.028 84.7133 203.996 85.605 200.358 85.605C196.078 85.605 192.654 84.2497 190.086 81.539C187.589 78.8283 186.341 75.5827 186.341 71.802C186.341 67.0227 188.196 62.9923 191.905 59.711C195.614 56.4297 200.715 54.1113 207.206 52.756L214.268 51.258V49.439C214.268 41.0217 210.523 36.813 203.033 36.813C199.538 36.813 196.684 37.6333 194.473 39.274C192.262 40.8433 190.478 43.5897 189.123 47.513L188.374 47.299C189.301 40.665 191.834 35.4933 195.971 31.784C200.18 28.0747 205.672 26.22 212.449 26.22C220.01 26.22 225.574 28.4313 229.141 32.854C232.779 37.2053 234.598 43.1617 234.598 50.723V69.555C234.598 71.3383 234.99 72.6937 235.775 73.621C236.56 74.477 237.523 74.905 238.664 74.905C241.303 74.905 243.015 73.4427 243.8 70.518ZM211.272 74.905C212.699 74.905 213.697 74.5127 214.268 73.728V54.468L212.77 54.789C207.349 55.859 204.638 59.6397 204.638 66.131C204.638 68.8417 205.244 70.9817 206.457 72.551C207.67 74.1203 209.275 74.905 211.272 74.905Z" fill="white"/>
</g>
<defs>
<clipPath id="clip0">
<rect width="599" height="110" fill="white" transform="translate(0 0.5)"/>
</clipPath>
</defs>
</svg>
