<svg width="599" height="114" viewBox="0 0 599 114" fill="none" xmlns="http://www.w3.org/2000/svg">
<path d="M0 21C0 18.7909 1.79086 17 4 17H181C183.209 17 185 18.7909 185 21V65C185 67.2091 183.209 69 181 69H4C1.79087 69 0 67.2091 0 65V21Z" fill="white"/>
<path d="M21.07 46.015C21.0684 46.6716 20.8068 47.3009 20.3424 47.7651C19.878 48.2293 19.2486 48.4906 18.592 48.492C17.9355 48.4904 17.3064 48.2289 16.8422 47.7647C16.3781 47.3005 16.1166 46.6714 16.115 46.015C16.1166 45.3585 16.3781 44.7294 16.8422 44.2652C17.3064 43.801 17.9355 43.5395 18.592 43.538H21.07V46.015ZM22.317 46.015C22.3186 45.3585 22.5801 44.7294 23.0442 44.2652C23.5084 43.801 24.1375 43.5395 24.794 43.538C25.4505 43.5395 26.0796 43.801 26.5438 44.2652C27.0079 44.7294 27.2694 45.3585 27.271 46.015V52.217C27.2694 52.8734 27.0079 53.5025 26.5438 53.9667C26.0796 54.4309 25.4505 54.6924 24.794 54.694C24.1375 54.6924 23.5084 54.4309 23.0442 53.9667C22.5801 53.5025 22.3186 52.8734 22.317 52.217V46.015Z" fill="#023A15"/>
<path d="M24.794 36.07C24.1374 36.0684 23.5081 35.8068 23.0439 35.3424C22.5797 34.878 22.3183 34.2486 22.317 33.592C22.3186 32.9355 22.5801 32.3064 23.0442 31.8422C23.5084 31.3781 24.1375 31.1166 24.794 31.115C25.4505 31.1166 26.0796 31.3781 26.5438 31.8422C27.0079 32.3064 27.2694 32.9355 27.271 33.592V36.07H24.794ZM24.794 37.317C25.4505 37.3186 26.0796 37.5801 26.5438 38.0442C27.0079 38.5084 27.2694 39.1375 27.271 39.794C27.2694 40.4504 27.0079 41.0796 26.5438 41.5437C26.0796 42.0079 25.4505 42.2694 24.794 42.271H18.592C17.9355 42.2694 17.3064 42.0079 16.8422 41.5437C16.3781 41.0796 16.1166 40.4504 16.115 39.794C16.1166 39.1375 16.3781 38.5084 16.8422 38.0442C17.3064 37.5801 17.9355 37.3186 18.592 37.317H24.794Z" fill="#023A15"/>
<path d="M34.74 39.794C34.7416 39.1375 35.0031 38.5084 35.4672 38.0442C35.9314 37.5801 36.5605 37.3186 37.217 37.317C37.8734 37.3186 38.5026 37.5801 38.9667 38.0442C39.4309 38.5084 39.6924 39.1375 39.694 39.794C39.6924 40.4504 39.4309 41.0796 38.9667 41.5437C38.5026 42.0079 37.8734 42.2694 37.217 42.271H34.74V39.794ZM33.492 39.794C33.4904 40.4504 33.2289 41.0796 32.7647 41.5437C32.3006 42.0079 31.6714 42.2694 31.015 42.271C30.3585 42.2694 29.7294 42.0079 29.2652 41.5437C28.8011 41.0796 28.5396 40.4504 28.538 39.794V33.592C28.5396 32.9355 28.8011 32.3064 29.2652 31.8422C29.7294 31.3781 30.3585 31.1166 31.015 31.115C31.6714 31.1166 32.3006 31.3781 32.7647 31.8422C33.2289 32.3064 33.4904 32.9355 33.492 33.592V39.794Z" fill="#023A15"/>
<path d="M31.015 49.74C31.6714 49.7415 32.3006 50.003 32.7647 50.4672C33.2289 50.9314 33.4904 51.5605 33.492 52.217C33.4904 52.8734 33.2289 53.5025 32.7647 53.9667C32.3006 54.4309 31.6714 54.6924 31.015 54.694C30.3585 54.6924 29.7294 54.4309 29.2652 53.9667C28.8011 53.5025 28.5396 52.8734 28.538 52.217V49.74H31.015ZM31.015 48.492C30.3585 48.4904 29.7294 48.2289 29.2652 47.7647C28.8011 47.3005 28.5396 46.6714 28.538 46.015C28.5396 45.3585 28.8011 44.7294 29.2652 44.2652C29.7294 43.801 30.3585 43.5395 31.015 43.538H37.217C37.8734 43.5395 38.5026 43.801 38.9667 44.2652C39.4309 44.7294 39.6924 45.3585 39.694 46.015C39.6924 46.6714 39.4309 47.3005 38.9667 47.7647C38.5026 48.2289 37.8734 48.4904 37.217 48.492H31.015Z" fill="#023A15"/>
<path d="M57.6875 44.3906C57.5469 45.5938 57.1016 46.5234 56.3516 47.1797C55.6068 47.8307 54.6146 48.1562 53.375 48.1562C52.0312 48.1562 50.9531 47.6745 50.1406 46.7109C49.3333 45.7474 48.9297 44.4583 48.9297 42.8438V41.75C48.9297 40.6927 49.1172 39.763 49.4922 38.9609C49.8724 38.1589 50.4089 37.5443 51.1016 37.1172C51.7943 36.6849 52.5964 36.4688 53.5078 36.4688C54.7161 36.4688 55.6849 36.8073 56.4141 37.4844C57.1432 38.1562 57.5677 39.0885 57.6875 40.2812H56.1797C56.0495 39.375 55.7656 38.7188 55.3281 38.3125C54.8958 37.9062 54.2891 37.7031 53.5078 37.7031C52.5495 37.7031 51.7969 38.0573 51.25 38.7656C50.7083 39.474 50.4375 40.4818 50.4375 41.7891V42.8906C50.4375 44.125 50.6953 45.1068 51.2109 45.8359C51.7266 46.5651 52.4479 46.9297 53.375 46.9297C54.2083 46.9297 54.8464 46.7422 55.2891 46.3672C55.737 45.987 56.0339 45.3281 56.1797 44.3906H57.6875ZM59.1328 43.6953C59.1328 42.8672 59.2943 42.1224 59.6172 41.4609C59.9453 40.7995 60.3984 40.2891 60.9766 39.9297C61.5599 39.5703 62.224 39.3906 62.9688 39.3906C64.1198 39.3906 65.0495 39.7891 65.7578 40.5859C66.4714 41.3828 66.8281 42.4427 66.8281 43.7656V43.8672C66.8281 44.6901 66.6693 45.4297 66.3516 46.0859C66.0391 46.737 65.5885 47.2448 65 47.6094C64.4167 47.974 63.7448 48.1562 62.9844 48.1562C61.8385 48.1562 60.9089 47.7578 60.1953 46.9609C59.487 46.1641 59.1328 45.1094 59.1328 43.7969V43.6953ZM60.5859 43.8672C60.5859 44.8047 60.8021 45.5573 61.2344 46.125C61.6719 46.6927 62.2552 46.9766 62.9844 46.9766C63.7188 46.9766 64.3021 46.6901 64.7344 46.1172C65.1667 45.5391 65.3828 44.7318 65.3828 43.6953C65.3828 42.7682 65.1615 42.0182 64.7188 41.4453C64.2812 40.8672 63.6979 40.5781 62.9688 40.5781C62.2552 40.5781 61.6797 40.862 61.2422 41.4297C60.8047 41.9974 60.5859 42.8099 60.5859 43.8672ZM70.0078 39.5469L70.0547 40.6094C70.7005 39.7969 71.5443 39.3906 72.5859 39.3906C74.3724 39.3906 75.2734 40.3984 75.2891 42.4141V48H73.8438V42.4062C73.8385 41.7969 73.6979 41.3464 73.4219 41.0547C73.151 40.763 72.7266 40.6172 72.1484 40.6172C71.6797 40.6172 71.2682 40.7422 70.9141 40.9922C70.5599 41.2422 70.2839 41.5703 70.0859 41.9766V48H68.6406V39.5469H70.0078ZM78.8359 39.5469L78.8828 40.6094C79.5286 39.7969 80.3724 39.3906 81.4141 39.3906C83.2005 39.3906 84.1016 40.3984 84.1172 42.4141V48H82.6719V42.4062C82.6667 41.7969 82.526 41.3464 82.25 41.0547C81.9792 40.763 81.5547 40.6172 80.9766 40.6172C80.5078 40.6172 80.0964 40.7422 79.7422 40.9922C79.388 41.2422 79.112 41.5703 78.9141 41.9766V48H77.4688V39.5469H78.8359ZM89.8047 48.1562C88.6589 48.1562 87.7266 47.7812 87.0078 47.0312C86.2891 46.276 85.9297 45.2682 85.9297 44.0078V43.7422C85.9297 42.9036 86.0885 42.1562 86.4062 41.5C86.7292 40.8385 87.1771 40.3229 87.75 39.9531C88.3281 39.5781 88.9531 39.3906 89.625 39.3906C90.724 39.3906 91.5781 39.7526 92.1875 40.4766C92.7969 41.2005 93.1016 42.237 93.1016 43.5859V44.1875H87.375C87.3958 45.0208 87.638 45.6953 88.1016 46.2109C88.5703 46.7214 89.1641 46.9766 89.8828 46.9766C90.3932 46.9766 90.8255 46.8724 91.1797 46.6641C91.5339 46.4557 91.8438 46.1797 92.1094 45.8359L92.9922 46.5234C92.2839 47.612 91.2214 48.1562 89.8047 48.1562ZM89.625 40.5781C89.0417 40.5781 88.5521 40.7917 88.1562 41.2188C87.7604 41.6406 87.5156 42.2344 87.4219 43H91.6562V42.8906C91.6146 42.1562 91.4167 41.5885 91.0625 41.1875C90.7083 40.7812 90.2292 40.5781 89.625 40.5781ZM98.1719 46.9766C98.6875 46.9766 99.138 46.8203 99.5234 46.5078C99.9089 46.1953 100.122 45.8047 100.164 45.3359H101.531C101.505 45.8203 101.339 46.2812 101.031 46.7188C100.724 47.1562 100.312 47.5052 99.7969 47.7656C99.2865 48.026 98.7448 48.1562 98.1719 48.1562C97.0208 48.1562 96.1042 47.7734 95.4219 47.0078C94.7448 46.237 94.4062 45.1849 94.4062 43.8516V43.6094C94.4062 42.7865 94.5573 42.0547 94.8594 41.4141C95.1615 40.7734 95.5938 40.276 96.1562 39.9219C96.724 39.5677 97.3932 39.3906 98.1641 39.3906C99.112 39.3906 99.8984 39.6745 100.523 40.2422C101.154 40.8099 101.49 41.5469 101.531 42.4531H100.164C100.122 41.9062 99.9141 41.4583 99.5391 41.1094C99.1693 40.7552 98.7109 40.5781 98.1641 40.5781C97.4297 40.5781 96.8594 40.8438 96.4531 41.375C96.0521 41.901 95.8516 42.6641 95.8516 43.6641V43.9375C95.8516 44.9115 96.0521 45.6615 96.4531 46.1875C96.8542 46.7135 97.4271 46.9766 98.1719 46.9766ZM105.117 37.5V39.5469H106.695V40.6641H105.117V45.9062C105.117 46.2448 105.188 46.5 105.328 46.6719C105.469 46.8385 105.708 46.9219 106.047 46.9219C106.214 46.9219 106.443 46.8906 106.734 46.8281V48C106.354 48.1042 105.984 48.1562 105.625 48.1562C104.979 48.1562 104.492 47.9609 104.164 47.5703C103.836 47.1797 103.672 46.625 103.672 45.9062V40.6641H102.133V39.5469H103.672V37.5H105.117ZM114.32 37.5V39.5469H115.898V40.6641H114.32V45.9062C114.32 46.2448 114.391 46.5 114.531 46.6719C114.672 46.8385 114.911 46.9219 115.25 46.9219C115.417 46.9219 115.646 46.8906 115.938 46.8281V48C115.557 48.1042 115.188 48.1562 114.828 48.1562C114.182 48.1562 113.695 47.9609 113.367 47.5703C113.039 47.1797 112.875 46.625 112.875 45.9062V40.6641H111.336V39.5469H112.875V37.5H114.32ZM117.055 43.6953C117.055 42.8672 117.216 42.1224 117.539 41.4609C117.867 40.7995 118.32 40.2891 118.898 39.9297C119.482 39.5703 120.146 39.3906 120.891 39.3906C122.042 39.3906 122.971 39.7891 123.68 40.5859C124.393 41.3828 124.75 42.4427 124.75 43.7656V43.8672C124.75 44.6901 124.591 45.4297 124.273 46.0859C123.961 46.737 123.51 47.2448 122.922 47.6094C122.339 47.974 121.667 48.1562 120.906 48.1562C119.76 48.1562 118.831 47.7578 118.117 46.9609C117.409 46.1641 117.055 45.1094 117.055 43.7969V43.6953ZM118.508 43.8672C118.508 44.8047 118.724 45.5573 119.156 46.125C119.594 46.6927 120.177 46.9766 120.906 46.9766C121.641 46.9766 122.224 46.6901 122.656 46.1172C123.089 45.5391 123.305 44.7318 123.305 43.6953C123.305 42.7682 123.083 42.0182 122.641 41.4453C122.203 40.8672 121.62 40.5781 120.891 40.5781C120.177 40.5781 119.602 40.862 119.164 41.4297C118.727 41.9974 118.508 42.8099 118.508 43.8672ZM134.109 42.9297C132.823 42.5599 131.885 42.1068 131.297 41.5703C130.714 41.0286 130.422 40.362 130.422 39.5703C130.422 38.6745 130.779 37.9349 131.492 37.3516C132.211 36.763 133.143 36.4688 134.289 36.4688C135.07 36.4688 135.766 36.6198 136.375 36.9219C136.99 37.224 137.464 37.6406 137.797 38.1719C138.135 38.7031 138.305 39.2839 138.305 39.9141H136.797C136.797 39.2266 136.578 38.6875 136.141 38.2969C135.703 37.901 135.086 37.7031 134.289 37.7031C133.549 37.7031 132.971 37.8672 132.555 38.1953C132.143 38.5182 131.938 38.9688 131.938 39.5469C131.938 40.0104 132.133 40.4036 132.523 40.7266C132.919 41.0443 133.589 41.3359 134.531 41.6016C135.479 41.8672 136.219 42.1615 136.75 42.4844C137.286 42.8021 137.682 43.1745 137.938 43.6016C138.198 44.0286 138.328 44.5312 138.328 45.1094C138.328 46.0312 137.969 46.7708 137.25 47.3281C136.531 47.8802 135.57 48.1562 134.367 48.1562C133.586 48.1562 132.857 48.0078 132.18 47.7109C131.503 47.4089 130.979 46.9974 130.609 46.4766C130.245 45.9557 130.062 45.3646 130.062 44.7031H131.57C131.57 45.3906 131.823 45.9349 132.328 46.3359C132.839 46.7318 133.518 46.9297 134.367 46.9297C135.159 46.9297 135.766 46.7682 136.188 46.4453C136.609 46.1224 136.82 45.6823 136.82 45.125C136.82 44.5677 136.625 44.138 136.234 43.8359C135.844 43.5286 135.135 43.2266 134.109 42.9297ZM141.602 48H140.156V36H141.602V48ZM149.141 48C149.057 47.8333 148.99 47.5365 148.938 47.1094C148.266 47.8073 147.464 48.1562 146.531 48.1562C145.698 48.1562 145.013 47.9219 144.477 47.4531C143.945 46.9792 143.68 46.3802 143.68 45.6562C143.68 44.776 144.013 44.0938 144.68 43.6094C145.352 43.1198 146.294 42.875 147.508 42.875H148.914V42.2109C148.914 41.7057 148.763 41.3047 148.461 41.0078C148.159 40.7057 147.714 40.5547 147.125 40.5547C146.609 40.5547 146.177 40.6849 145.828 40.9453C145.479 41.2057 145.305 41.5208 145.305 41.8906H143.852C143.852 41.4688 144 41.0625 144.297 40.6719C144.599 40.276 145.005 39.9635 145.516 39.7344C146.031 39.5052 146.596 39.3906 147.211 39.3906C148.185 39.3906 148.948 39.6354 149.5 40.125C150.052 40.6094 150.339 41.2786 150.359 42.1328V46.0234C150.359 46.7995 150.458 47.4167 150.656 47.875V48H149.141ZM146.742 46.8984C147.195 46.8984 147.625 46.7812 148.031 46.5469C148.438 46.3125 148.732 46.0078 148.914 45.6328V43.8984H147.781C146.01 43.8984 145.125 44.4167 145.125 45.4531C145.125 45.9062 145.276 46.2604 145.578 46.5156C145.88 46.7708 146.268 46.8984 146.742 46.8984ZM156.016 46.9766C156.531 46.9766 156.982 46.8203 157.367 46.5078C157.753 46.1953 157.966 45.8047 158.008 45.3359H159.375C159.349 45.8203 159.182 46.2812 158.875 46.7188C158.568 47.1562 158.156 47.5052 157.641 47.7656C157.13 48.026 156.589 48.1562 156.016 48.1562C154.865 48.1562 153.948 47.7734 153.266 47.0078C152.589 46.237 152.25 45.1849 152.25 43.8516V43.6094C152.25 42.7865 152.401 42.0547 152.703 41.4141C153.005 40.7734 153.438 40.276 154 39.9219C154.568 39.5677 155.237 39.3906 156.008 39.3906C156.956 39.3906 157.742 39.6745 158.367 40.2422C158.997 40.8099 159.333 41.5469 159.375 42.4531H158.008C157.966 41.9062 157.758 41.4583 157.383 41.1094C157.013 40.7552 156.555 40.5781 156.008 40.5781C155.273 40.5781 154.703 40.8438 154.297 41.375C153.896 41.901 153.695 42.6641 153.695 43.6641V43.9375C153.695 44.9115 153.896 45.6615 154.297 46.1875C154.698 46.7135 155.271 46.9766 156.016 46.9766ZM163.359 44.0859L162.453 45.0312V48H161.008V36H162.453V43.2578L163.227 42.3281L165.859 39.5469H167.617L164.328 43.0781L168 48H166.305L163.359 44.0859Z" fill="#023A15"/>
<path d="M5.69531 105.232H2.11523V109H0.990234V100.469H6.27539V101.395H2.11523V104.312H5.69531V105.232ZM10.3652 103.633C10.2012 103.605 10.0234 103.592 9.83203 103.592C9.12109 103.592 8.63867 103.895 8.38477 104.5V109H7.30078V102.66H8.35547L8.37305 103.393C8.72852 102.826 9.23242 102.543 9.88477 102.543C10.0957 102.543 10.2559 102.57 10.3652 102.625V103.633ZM13.8809 109.117C13.0215 109.117 12.3223 108.836 11.7832 108.273C11.2441 107.707 10.9746 106.951 10.9746 106.006V105.807C10.9746 105.178 11.0938 104.617 11.332 104.125C11.5742 103.629 11.9102 103.242 12.3398 102.965C12.7734 102.684 13.2422 102.543 13.7461 102.543C14.5703 102.543 15.2109 102.814 15.668 103.357C16.125 103.9 16.3535 104.678 16.3535 105.689V106.141H12.0586C12.0742 106.766 12.2559 107.271 12.6035 107.658C12.9551 108.041 13.4004 108.232 13.9395 108.232C14.3223 108.232 14.6465 108.154 14.9121 107.998C15.1777 107.842 15.4102 107.635 15.6094 107.377L16.2715 107.893C15.7402 108.709 14.9434 109.117 13.8809 109.117ZM13.7461 103.434C13.3086 103.434 12.9414 103.594 12.6445 103.914C12.3477 104.23 12.1641 104.676 12.0938 105.25H15.2695V105.168C15.2383 104.617 15.0898 104.191 14.8242 103.891C14.5586 103.586 14.1992 103.434 13.7461 103.434ZM20.2441 109.117C19.3848 109.117 18.6855 108.836 18.1465 108.273C17.6074 107.707 17.3379 106.951 17.3379 106.006V105.807C17.3379 105.178 17.457 104.617 17.6953 104.125C17.9375 103.629 18.2734 103.242 18.7031 102.965C19.1367 102.684 19.6055 102.543 20.1094 102.543C20.9336 102.543 21.5742 102.814 22.0312 103.357C22.4883 103.9 22.7168 104.678 22.7168 105.689V106.141H18.4219C18.4375 106.766 18.6191 107.271 18.9668 107.658C19.3184 108.041 19.7637 108.232 20.3027 108.232C20.6855 108.232 21.0098 108.154 21.2754 107.998C21.541 107.842 21.7734 107.635 21.9727 107.377L22.6348 107.893C22.1035 108.709 21.3066 109.117 20.2441 109.117ZM20.1094 103.434C19.6719 103.434 19.3047 103.594 19.0078 103.914C18.7109 104.23 18.5273 104.676 18.457 105.25H21.6328V105.168C21.6016 104.617 21.4531 104.191 21.1875 103.891C20.9219 103.586 20.5625 103.434 20.1094 103.434ZM30.4043 109H29.3145V101.775L27.1289 102.578V101.594L30.2344 100.428H30.4043V109ZM38.1562 106.135H39.3398V107.02H38.1562V109H37.0664V107.02H33.1816V106.381L37.002 100.469H38.1562V106.135ZM34.4121 106.135H37.0664V101.951L36.9375 102.186L34.4121 106.135ZM43.1426 105.777C43.1426 104.805 43.373 104.023 43.834 103.434C44.2949 102.84 44.8984 102.543 45.6445 102.543C46.3867 102.543 46.9746 102.797 47.4082 103.305V100H48.4922V109H47.4961L47.4434 108.32C47.0098 108.852 46.4062 109.117 45.6328 109.117C44.8984 109.117 44.2988 108.816 43.834 108.215C43.373 107.613 43.1426 106.828 43.1426 105.859V105.777ZM44.2266 105.9C44.2266 106.619 44.375 107.182 44.6719 107.588C44.9688 107.994 45.3789 108.197 45.9023 108.197C46.5898 108.197 47.0918 107.889 47.4082 107.271V104.359C47.084 103.762 46.5859 103.463 45.9141 103.463C45.3828 103.463 44.9688 103.668 44.6719 104.078C44.375 104.488 44.2266 105.096 44.2266 105.9ZM54.0938 109C54.0312 108.875 53.9805 108.652 53.9414 108.332C53.4375 108.855 52.8359 109.117 52.1367 109.117C51.5117 109.117 50.998 108.941 50.5957 108.59C50.1973 108.234 49.998 107.785 49.998 107.242C49.998 106.582 50.248 106.07 50.748 105.707C51.252 105.34 51.959 105.156 52.8691 105.156H53.9238V104.658C53.9238 104.279 53.8105 103.979 53.584 103.756C53.3574 103.529 53.0234 103.416 52.582 103.416C52.1953 103.416 51.8711 103.514 51.6094 103.709C51.3477 103.904 51.2168 104.141 51.2168 104.418H50.127C50.127 104.102 50.2383 103.797 50.4609 103.504C50.6875 103.207 50.9922 102.973 51.375 102.801C51.7617 102.629 52.1855 102.543 52.6465 102.543C53.377 102.543 53.9492 102.727 54.3633 103.094C54.7773 103.457 54.9922 103.959 55.0078 104.6V107.518C55.0078 108.1 55.082 108.562 55.2305 108.906V109H54.0938ZM52.2949 108.174C52.6348 108.174 52.957 108.086 53.2617 107.91C53.5664 107.734 53.7871 107.506 53.9238 107.225V105.924H53.0742C51.7461 105.924 51.082 106.312 51.082 107.09C51.082 107.43 51.1953 107.695 51.4219 107.887C51.6484 108.078 51.9395 108.174 52.2949 108.174ZM58.6875 107.412L60.1641 102.66H61.3242L58.7754 109.979C58.3809 111.033 57.7539 111.561 56.8945 111.561L56.6895 111.543L56.2852 111.467V110.588L56.5781 110.611C56.9453 110.611 57.2305 110.537 57.4336 110.389C57.6406 110.24 57.8105 109.969 57.9434 109.574L58.1836 108.93L55.9219 102.66H57.1055L58.6875 107.412ZM65.9883 107.318C65.9883 107.025 65.877 106.799 65.6543 106.639C65.4355 106.475 65.0508 106.334 64.5 106.217C63.9531 106.1 63.5176 105.959 63.1934 105.795C62.873 105.631 62.6348 105.436 62.4785 105.209C62.3262 104.982 62.25 104.713 62.25 104.4C62.25 103.881 62.4688 103.441 62.9062 103.082C63.3477 102.723 63.9102 102.543 64.5938 102.543C65.3125 102.543 65.8945 102.729 66.3398 103.1C66.7891 103.471 67.0137 103.945 67.0137 104.523H65.9238C65.9238 104.227 65.7969 103.971 65.543 103.756C65.293 103.541 64.9766 103.434 64.5938 103.434C64.1992 103.434 63.8906 103.52 63.668 103.691C63.4453 103.863 63.334 104.088 63.334 104.365C63.334 104.627 63.4375 104.824 63.6445 104.957C63.8516 105.09 64.2246 105.217 64.7637 105.338C65.3066 105.459 65.7461 105.604 66.082 105.771C66.418 105.939 66.666 106.143 66.8262 106.381C66.9902 106.615 67.0723 106.902 67.0723 107.242C67.0723 107.809 66.8457 108.264 66.3926 108.607C65.9395 108.947 65.3516 109.117 64.6289 109.117C64.1211 109.117 63.6719 109.027 63.2812 108.848C62.8906 108.668 62.584 108.418 62.3613 108.098C62.1426 107.773 62.0332 107.424 62.0332 107.049H63.1172C63.1367 107.412 63.2812 107.701 63.5508 107.916C63.8242 108.127 64.1836 108.232 64.6289 108.232C65.0391 108.232 65.3672 108.15 65.6133 107.986C65.8633 107.818 65.9883 107.596 65.9883 107.318ZM72.9316 101.125V102.66H74.1152V103.498H72.9316V107.43C72.9316 107.684 72.9844 107.875 73.0898 108.004C73.1953 108.129 73.375 108.191 73.6289 108.191C73.7539 108.191 73.9258 108.168 74.1445 108.121V109C73.8594 109.078 73.582 109.117 73.3125 109.117C72.8281 109.117 72.4629 108.971 72.2168 108.678C71.9707 108.385 71.8477 107.969 71.8477 107.43V103.498H70.6934V102.66H71.8477V101.125H72.9316ZM78.4512 103.633C78.2871 103.605 78.1094 103.592 77.918 103.592C77.207 103.592 76.7246 103.895 76.4707 104.5V109H75.3867V102.66H76.4414L76.459 103.393C76.8145 102.826 77.3184 102.543 77.9707 102.543C78.1816 102.543 78.3418 102.57 78.4512 102.625V103.633ZM80.6309 109H79.5469V102.66H80.6309V109ZM79.459 100.979C79.459 100.803 79.5117 100.654 79.6172 100.533C79.7266 100.412 79.8867 100.352 80.0977 100.352C80.3086 100.352 80.4688 100.412 80.5781 100.533C80.6875 100.654 80.7422 100.803 80.7422 100.979C80.7422 101.154 80.6875 101.301 80.5781 101.418C80.4688 101.535 80.3086 101.594 80.0977 101.594C79.8867 101.594 79.7266 101.535 79.6172 101.418C79.5117 101.301 79.459 101.154 79.459 100.979ZM86.2852 109C86.2227 108.875 86.1719 108.652 86.1328 108.332C85.6289 108.855 85.0273 109.117 84.3281 109.117C83.7031 109.117 83.1895 108.941 82.7871 108.59C82.3887 108.234 82.1895 107.785 82.1895 107.242C82.1895 106.582 82.4395 106.07 82.9395 105.707C83.4434 105.34 84.1504 105.156 85.0605 105.156H86.1152V104.658C86.1152 104.279 86.002 103.979 85.7754 103.756C85.5488 103.529 85.2148 103.416 84.7734 103.416C84.3867 103.416 84.0625 103.514 83.8008 103.709C83.5391 103.904 83.4082 104.141 83.4082 104.418H82.3184C82.3184 104.102 82.4297 103.797 82.6523 103.504C82.8789 103.207 83.1836 102.973 83.5664 102.801C83.9531 102.629 84.377 102.543 84.8379 102.543C85.5684 102.543 86.1406 102.727 86.5547 103.094C86.9688 103.457 87.1836 103.959 87.1992 104.6V107.518C87.1992 108.1 87.2734 108.562 87.4219 108.906V109H86.2852ZM84.4863 108.174C84.8262 108.174 85.1484 108.086 85.4531 107.91C85.7578 107.734 85.9785 107.506 86.1152 107.225V105.924H85.2656C83.9375 105.924 83.2734 106.312 83.2734 107.09C83.2734 107.43 83.3867 107.695 83.6133 107.887C83.8398 108.078 84.1309 108.174 84.4863 108.174ZM90.0762 109H88.9922V100H90.0762V109ZM91.7812 110.699L91.166 110.277C91.5332 109.766 91.7246 109.238 91.7402 108.695V107.717H92.8008V108.566C92.8008 108.961 92.7031 109.355 92.5078 109.75C92.3164 110.145 92.0742 110.461 91.7812 110.699ZM98.1738 102.66L98.209 103.457C98.6934 102.848 99.3262 102.543 100.107 102.543C101.447 102.543 102.123 103.299 102.135 104.811V109H101.051V104.805C101.047 104.348 100.941 104.01 100.734 103.791C100.531 103.572 100.213 103.463 99.7793 103.463C99.4277 103.463 99.1191 103.557 98.8535 103.744C98.5879 103.932 98.3809 104.178 98.2324 104.482V109H97.1484V102.66H98.1738ZM103.482 105.771C103.482 105.15 103.604 104.592 103.846 104.096C104.092 103.6 104.432 103.217 104.865 102.947C105.303 102.678 105.801 102.543 106.359 102.543C107.223 102.543 107.92 102.842 108.451 103.439C108.986 104.037 109.254 104.832 109.254 105.824V105.9C109.254 106.518 109.135 107.072 108.896 107.564C108.662 108.053 108.324 108.434 107.883 108.707C107.445 108.98 106.941 109.117 106.371 109.117C105.512 109.117 104.814 108.818 104.279 108.221C103.748 107.623 103.482 106.832 103.482 105.848V105.771ZM104.572 105.9C104.572 106.604 104.734 107.168 105.059 107.594C105.387 108.02 105.824 108.232 106.371 108.232C106.922 108.232 107.359 108.018 107.684 107.588C108.008 107.154 108.17 106.549 108.17 105.771C108.17 105.076 108.004 104.514 107.672 104.084C107.344 103.65 106.906 103.434 106.359 103.434C105.824 103.434 105.393 103.646 105.064 104.072C104.736 104.498 104.572 105.107 104.572 105.9ZM116.133 108.232C116.52 108.232 116.857 108.115 117.146 107.881C117.436 107.646 117.596 107.354 117.627 107.002H118.652C118.633 107.365 118.508 107.711 118.277 108.039C118.047 108.367 117.738 108.629 117.352 108.824C116.969 109.02 116.562 109.117 116.133 109.117C115.27 109.117 114.582 108.83 114.07 108.256C113.562 107.678 113.309 106.889 113.309 105.889V105.707C113.309 105.09 113.422 104.541 113.648 104.061C113.875 103.58 114.199 103.207 114.621 102.941C115.047 102.676 115.549 102.543 116.127 102.543C116.838 102.543 117.428 102.756 117.896 103.182C118.369 103.607 118.621 104.16 118.652 104.84H117.627C117.596 104.43 117.439 104.094 117.158 103.832C116.881 103.566 116.537 103.434 116.127 103.434C115.576 103.434 115.148 103.633 114.844 104.031C114.543 104.426 114.393 104.998 114.393 105.748V105.953C114.393 106.684 114.543 107.246 114.844 107.641C115.145 108.035 115.574 108.232 116.133 108.232ZM122.936 103.633C122.771 103.605 122.594 103.592 122.402 103.592C121.691 103.592 121.209 103.895 120.955 104.5V109H119.871V102.66H120.926L120.943 103.393C121.299 102.826 121.803 102.543 122.455 102.543C122.666 102.543 122.826 102.57 122.936 102.625V103.633ZM126.451 109.117C125.592 109.117 124.893 108.836 124.354 108.273C123.814 107.707 123.545 106.951 123.545 106.006V105.807C123.545 105.178 123.664 104.617 123.902 104.125C124.145 103.629 124.48 103.242 124.91 102.965C125.344 102.684 125.812 102.543 126.316 102.543C127.141 102.543 127.781 102.814 128.238 103.357C128.695 103.9 128.924 104.678 128.924 105.689V106.141H124.629C124.645 106.766 124.826 107.271 125.174 107.658C125.525 108.041 125.971 108.232 126.51 108.232C126.893 108.232 127.217 108.154 127.482 107.998C127.748 107.842 127.98 107.635 128.18 107.377L128.842 107.893C128.311 108.709 127.514 109.117 126.451 109.117ZM126.316 103.434C125.879 103.434 125.512 103.594 125.215 103.914C124.918 104.23 124.734 104.676 124.664 105.25H127.84V105.168C127.809 104.617 127.66 104.191 127.395 103.891C127.129 103.586 126.77 103.434 126.316 103.434ZM129.92 105.777C129.92 104.805 130.15 104.023 130.611 103.434C131.072 102.84 131.676 102.543 132.422 102.543C133.164 102.543 133.752 102.797 134.186 103.305V100H135.27V109H134.273L134.221 108.32C133.787 108.852 133.184 109.117 132.41 109.117C131.676 109.117 131.076 108.816 130.611 108.215C130.15 107.613 129.92 106.828 129.92 105.859V105.777ZM131.004 105.9C131.004 106.619 131.152 107.182 131.449 107.588C131.746 107.994 132.156 108.197 132.68 108.197C133.367 108.197 133.869 107.889 134.186 107.271V104.359C133.861 103.762 133.363 103.463 132.691 103.463C132.16 103.463 131.746 103.668 131.449 104.078C131.152 104.488 131.004 105.096 131.004 105.9ZM138.135 109H137.051V102.66H138.135V109ZM136.963 100.979C136.963 100.803 137.016 100.654 137.121 100.533C137.23 100.412 137.391 100.352 137.602 100.352C137.812 100.352 137.973 100.412 138.082 100.533C138.191 100.654 138.246 100.803 138.246 100.979C138.246 101.154 138.191 101.301 138.082 101.418C137.973 101.535 137.812 101.594 137.602 101.594C137.391 101.594 137.23 101.535 137.121 101.418C137.016 101.301 136.963 101.154 136.963 100.979ZM141.346 101.125V102.66H142.529V103.498H141.346V107.43C141.346 107.684 141.398 107.875 141.504 108.004C141.609 108.129 141.789 108.191 142.043 108.191C142.168 108.191 142.34 108.168 142.559 108.121V109C142.273 109.078 141.996 109.117 141.727 109.117C141.242 109.117 140.877 108.971 140.631 108.678C140.385 108.385 140.262 107.969 140.262 107.43V103.498H139.107V102.66H140.262V101.125H141.346ZM149.32 108.232C149.707 108.232 150.045 108.115 150.334 107.881C150.623 107.646 150.783 107.354 150.814 107.002H151.84C151.82 107.365 151.695 107.711 151.465 108.039C151.234 108.367 150.926 108.629 150.539 108.824C150.156 109.02 149.75 109.117 149.32 109.117C148.457 109.117 147.77 108.83 147.258 108.256C146.75 107.678 146.496 106.889 146.496 105.889V105.707C146.496 105.09 146.609 104.541 146.836 104.061C147.062 103.58 147.387 103.207 147.809 102.941C148.234 102.676 148.736 102.543 149.314 102.543C150.025 102.543 150.615 102.756 151.084 103.182C151.557 103.607 151.809 104.16 151.84 104.84H150.814C150.783 104.43 150.627 104.094 150.346 103.832C150.068 103.566 149.725 103.434 149.314 103.434C148.764 103.434 148.336 103.633 148.031 104.031C147.73 104.426 147.58 104.998 147.58 105.748V105.953C147.58 106.684 147.73 107.246 148.031 107.641C148.332 108.035 148.762 108.232 149.32 108.232ZM156.973 109C156.91 108.875 156.859 108.652 156.82 108.332C156.316 108.855 155.715 109.117 155.016 109.117C154.391 109.117 153.877 108.941 153.475 108.59C153.076 108.234 152.877 107.785 152.877 107.242C152.877 106.582 153.127 106.07 153.627 105.707C154.131 105.34 154.838 105.156 155.748 105.156H156.803V104.658C156.803 104.279 156.689 103.979 156.463 103.756C156.236 103.529 155.902 103.416 155.461 103.416C155.074 103.416 154.75 103.514 154.488 103.709C154.227 103.904 154.096 104.141 154.096 104.418H153.006C153.006 104.102 153.117 103.797 153.34 103.504C153.566 103.207 153.871 102.973 154.254 102.801C154.641 102.629 155.064 102.543 155.525 102.543C156.256 102.543 156.828 102.727 157.242 103.094C157.656 103.457 157.871 103.959 157.887 104.6V107.518C157.887 108.1 157.961 108.562 158.109 108.906V109H156.973ZM155.174 108.174C155.514 108.174 155.836 108.086 156.141 107.91C156.445 107.734 156.666 107.506 156.803 107.225V105.924H155.953C154.625 105.924 153.961 106.312 153.961 107.09C153.961 107.43 154.074 107.695 154.301 107.887C154.527 108.078 154.818 108.174 155.174 108.174ZM162.65 103.633C162.486 103.605 162.309 103.592 162.117 103.592C161.406 103.592 160.924 103.895 160.67 104.5V109H159.586V102.66H160.641L160.658 103.393C161.014 102.826 161.518 102.543 162.17 102.543C162.381 102.543 162.541 102.57 162.65 102.625V103.633ZM163.271 105.777C163.271 104.805 163.502 104.023 163.963 103.434C164.424 102.84 165.027 102.543 165.773 102.543C166.516 102.543 167.104 102.797 167.537 103.305V100H168.621V109H167.625L167.572 108.32C167.139 108.852 166.535 109.117 165.762 109.117C165.027 109.117 164.428 108.816 163.963 108.215C163.502 107.613 163.271 106.828 163.271 105.859V105.777ZM164.355 105.9C164.355 106.619 164.504 107.182 164.801 107.588C165.098 107.994 165.508 108.197 166.031 108.197C166.719 108.197 167.221 107.889 167.537 107.271V104.359C167.213 103.762 166.715 103.463 166.043 103.463C165.512 103.463 165.098 103.668 164.801 104.078C164.504 104.488 164.355 105.096 164.355 105.9ZM176.35 103.633C176.186 103.605 176.008 103.592 175.816 103.592C175.105 103.592 174.623 103.895 174.369 104.5V109H173.285V102.66H174.34L174.357 103.393C174.713 102.826 175.217 102.543 175.869 102.543C176.08 102.543 176.24 102.57 176.35 102.625V103.633ZM179.865 109.117C179.006 109.117 178.307 108.836 177.768 108.273C177.229 107.707 176.959 106.951 176.959 106.006V105.807C176.959 105.178 177.078 104.617 177.316 104.125C177.559 103.629 177.895 103.242 178.324 102.965C178.758 102.684 179.227 102.543 179.73 102.543C180.555 102.543 181.195 102.814 181.652 103.357C182.109 103.9 182.338 104.678 182.338 105.689V106.141H178.043C178.059 106.766 178.24 107.271 178.588 107.658C178.939 108.041 179.385 108.232 179.924 108.232C180.307 108.232 180.631 108.154 180.896 107.998C181.162 107.842 181.395 107.635 181.594 107.377L182.256 107.893C181.725 108.709 180.928 109.117 179.865 109.117ZM179.73 103.434C179.293 103.434 178.926 103.594 178.629 103.914C178.332 104.23 178.148 104.676 178.078 105.25H181.254V105.168C181.223 104.617 181.074 104.191 180.809 103.891C180.543 103.586 180.184 103.434 179.73 103.434ZM183.334 105.777C183.334 104.781 183.562 103.994 184.02 103.416C184.477 102.834 185.09 102.543 185.859 102.543C186.609 102.543 187.201 102.795 187.635 103.299L187.682 102.66H188.678V111.438H187.594V108.414C187.156 108.883 186.574 109.117 185.848 109.117C185.082 109.117 184.471 108.82 184.014 108.227C183.561 107.629 183.334 106.838 183.334 105.854V105.777ZM184.418 105.9C184.418 106.627 184.57 107.197 184.875 107.611C185.184 108.025 185.598 108.232 186.117 108.232C186.762 108.232 187.254 107.947 187.594 107.377V104.271C187.25 103.713 186.762 103.434 186.129 103.434C185.605 103.434 185.189 103.643 184.881 104.061C184.572 104.475 184.418 105.088 184.418 105.9ZM194.332 108.373C193.91 108.869 193.291 109.117 192.475 109.117C191.799 109.117 191.283 108.922 190.928 108.531C190.576 108.137 190.398 107.555 190.395 106.785V102.66H191.479V106.756C191.479 107.717 191.869 108.197 192.65 108.197C193.479 108.197 194.029 107.889 194.303 107.271V102.66H195.387V109H194.355L194.332 108.373ZM198.217 109H197.133V102.66H198.217V109ZM197.045 100.979C197.045 100.803 197.098 100.654 197.203 100.533C197.312 100.412 197.473 100.352 197.684 100.352C197.895 100.352 198.055 100.412 198.164 100.533C198.273 100.654 198.328 100.803 198.328 100.979C198.328 101.154 198.273 101.301 198.164 101.418C198.055 101.535 197.895 101.594 197.684 101.594C197.473 101.594 197.312 101.535 197.203 101.418C197.098 101.301 197.045 101.154 197.045 100.979ZM203.021 103.633C202.857 103.605 202.68 103.592 202.488 103.592C201.777 103.592 201.295 103.895 201.041 104.5V109H199.957V102.66H201.012L201.029 103.393C201.385 102.826 201.889 102.543 202.541 102.543C202.752 102.543 202.912 102.57 203.021 102.625V103.633ZM206.537 109.117C205.678 109.117 204.979 108.836 204.439 108.273C203.9 107.707 203.631 106.951 203.631 106.006V105.807C203.631 105.178 203.75 104.617 203.988 104.125C204.23 103.629 204.566 103.242 204.996 102.965C205.43 102.684 205.898 102.543 206.402 102.543C207.227 102.543 207.867 102.814 208.324 103.357C208.781 103.9 209.01 104.678 209.01 105.689V106.141H204.715C204.73 106.766 204.912 107.271 205.26 107.658C205.611 108.041 206.057 108.232 206.596 108.232C206.979 108.232 207.303 108.154 207.568 107.998C207.834 107.842 208.066 107.635 208.266 107.377L208.928 107.893C208.396 108.709 207.6 109.117 206.537 109.117ZM206.402 103.434C205.965 103.434 205.598 103.594 205.301 103.914C205.004 104.23 204.82 104.676 204.75 105.25H207.926V105.168C207.895 104.617 207.746 104.191 207.48 103.891C207.215 103.586 206.855 103.434 206.402 103.434ZM210.006 105.777C210.006 104.805 210.236 104.023 210.697 103.434C211.158 102.84 211.762 102.543 212.508 102.543C213.25 102.543 213.838 102.797 214.271 103.305V100H215.355V109H214.359L214.307 108.32C213.873 108.852 213.27 109.117 212.496 109.117C211.762 109.117 211.162 108.816 210.697 108.215C210.236 107.613 210.006 106.828 210.006 105.859V105.777ZM211.09 105.9C211.09 106.619 211.238 107.182 211.535 107.588C211.832 107.994 212.242 108.197 212.766 108.197C213.453 108.197 213.955 107.889 214.271 107.271V104.359C213.947 103.762 213.449 103.463 212.777 103.463C212.246 103.463 211.832 103.668 211.535 104.078C211.238 104.488 211.09 105.096 211.09 105.9ZM217.066 108.432C217.066 108.244 217.121 108.088 217.23 107.963C217.344 107.838 217.512 107.775 217.734 107.775C217.957 107.775 218.125 107.838 218.238 107.963C218.355 108.088 218.414 108.244 218.414 108.432C218.414 108.611 218.355 108.762 218.238 108.883C218.125 109.004 217.957 109.064 217.734 109.064C217.512 109.064 217.344 109.004 217.23 108.883C217.121 108.762 217.066 108.611 217.066 108.432Z" fill="white"/>
</svg>
