<svg width="307" height="82" viewBox="0 0 307 82" fill="none" xmlns="http://www.w3.org/2000/svg">
<path d="M76.262 43.139V43.684C71.6113 45.646 69.286 49.4247 69.286 55.02V73.005C65.798 75.4757 61.329 77.474 55.879 79C50.429 80.4533 44.979 81.18 39.529 81.18C27.6117 81.18 18.165 77.6557 11.189 70.607C4.213 63.5583 0.725 54.039 0.725 42.049C0.725 29.4777 4.758 19.4133 12.824 11.856C20.9627 4.29866 31.79 0.519997 45.306 0.519997C54.3893 0.519997 62.7823 2.62733 70.485 6.84199L62.419 28.86H61.874C61.3653 20.9393 59.6577 15.126 56.751 11.42C53.917 7.64133 49.7023 5.75199 44.107 5.75199C32.2623 5.75199 26.34 15.9253 26.34 36.272C26.34 48.044 28.1203 57.9267 31.681 65.92C35.2417 73.9133 39.638 77.91 44.87 77.91C46.0327 77.91 46.9047 77.692 47.486 77.256V56.11C47.486 52.3313 46.832 49.4973 45.524 47.608C44.216 45.7187 42.036 44.4107 38.984 43.684V43.139H76.262ZM125.082 20.14H126.717V39.869H126.172C124.718 38.997 122.575 38.561 119.741 38.561C115.889 38.561 112.983 39.7963 111.021 42.267C109.059 44.7377 108.078 49.2793 108.078 55.892V70.28C108.078 74.64 110.585 77.365 115.599 78.455V79H82.0268V78.455C85.5874 76.929 87.3678 74.204 87.3678 70.28V38.234C87.3678 32.7113 85.5874 29.3687 82.0268 28.206V27.661L107.206 20.14V46.954H107.86C108.586 29.078 114.327 20.14 125.082 20.14ZM167.119 64.394C172.641 64.394 176.783 62.4683 179.545 58.617L180.417 58.835C179.69 62.8317 178.491 66.3197 176.82 69.299C175.148 72.2057 173.186 74.4583 170.934 76.057C168.754 77.6557 166.537 78.8183 164.285 79.545C162.032 80.2717 159.743 80.635 157.418 80.635C150.66 80.635 144.81 78.0553 139.869 72.896C135 67.7367 132.566 60.6153 132.566 51.532C132.566 42.376 134.964 34.855 139.76 28.969C144.628 23.083 150.769 20.14 158.181 20.14C160.797 20.14 163.304 20.5397 165.702 21.339C168.1 22.0657 170.461 23.3373 172.787 25.154C175.185 26.898 177.074 29.5503 178.455 33.111C179.908 36.6717 180.635 40.8863 180.635 45.755H149.243C150.042 51.859 151.968 56.5097 155.02 59.707C158.144 62.8317 162.177 64.394 167.119 64.394ZM160.797 27.879C159.707 25.1177 158.035 23.737 155.783 23.737C153.53 23.737 151.786 25.1177 150.551 27.879C149.388 30.5677 148.807 34.3827 148.807 39.324C148.807 40.7047 148.843 41.722 148.916 42.376H162.432C162.432 35.4727 161.887 30.6403 160.797 27.879ZM223.193 64.394C228.716 64.394 232.858 62.4683 235.619 58.617L236.491 58.835C235.764 62.8317 234.565 66.3197 232.894 69.299C231.223 72.2057 229.261 74.4583 227.008 76.057C224.828 77.6557 222.612 78.8183 220.359 79.545C218.106 80.2717 215.817 80.635 213.492 80.635C206.734 80.635 200.884 78.0553 195.943 72.896C191.074 67.7367 188.64 60.6153 188.64 51.532C188.64 42.376 191.038 34.855 195.834 28.969C200.703 23.083 206.843 20.14 214.255 20.14C216.871 20.14 219.378 20.5397 221.776 21.339C224.174 22.0657 226.536 23.3373 228.861 25.154C231.259 26.898 233.148 29.5503 234.529 33.111C235.982 36.6717 236.709 40.8863 236.709 45.755H205.317C206.116 51.859 208.042 56.5097 211.094 59.707C214.219 62.8317 218.252 64.394 223.193 64.394ZM216.871 27.879C215.781 25.1177 214.11 23.737 211.857 23.737C209.604 23.737 207.86 25.1177 206.625 27.879C205.462 30.5677 204.881 34.3827 204.881 39.324C204.881 40.7047 204.917 41.722 204.99 42.376H218.506C218.506 35.4727 217.961 30.6403 216.871 27.879ZM301.298 70.28C301.298 74.204 303.078 76.929 306.639 78.455V79H277.427V78.455C279.534 77.4377 280.588 75.076 280.588 71.37V35.945C280.588 31.5123 278.917 29.296 275.574 29.296C273.321 29.296 271.541 30.2043 270.233 32.021V71.37C270.233 75.076 271.287 77.4377 273.394 78.455V79H244.182V78.455C247.743 76.929 249.523 74.204 249.523 70.28V36.817C249.523 34.201 249.123 32.239 248.324 30.931C247.525 29.623 246.144 28.6783 244.182 28.097V27.552L270.233 20.14V30.059C272.704 23.4463 277.79 20.14 285.493 20.14C290.507 20.14 294.395 21.5207 297.156 24.282C299.917 27.0433 301.298 30.931 301.298 35.945V70.28Z" fill="white"/>
</svg>
