<svg width="633" height="84" viewBox="0 0 633 84" fill="none" xmlns="http://www.w3.org/2000/svg">
<path d="M0.3 82V81.45C2.72 80.4967 4.48 79.1767 5.58 77.49C6.75333 75.8033 7.34 73.1633 7.34 69.57V16.99C7.34 13.47 6.79 10.94 5.69 9.4C4.59 7.86 2.79333 6.57666 0.3 5.54999V4.99999H38.14C48.5533 4.99999 56.2167 6.68666 61.13 10.06C66.0433 13.36 68.5 17.98 68.5 23.92C68.5 29.1267 66.0433 33.6 61.13 37.34C56.2167 41.08 50.35 42.95 43.53 42.95V43.72C49.3967 43.5733 54.42 44.7467 58.6 47.24C62.78 49.66 65.6767 53.07 67.29 57.47L72.79 72.87C74.4033 77.4167 77.1533 80.2033 81.04 81.23V82H51.67C50.4233 80.24 48.9933 76.8667 47.38 71.88L41.66 54.5C40.4867 50.9067 39.2767 48.4133 38.03 47.02C36.8567 45.6267 35.17 44.93 32.97 44.93H30.44V69.57C30.44 72.2833 31.0633 74.74 32.31 76.94C33.63 79.0667 35.3533 80.57 37.48 81.45V82H0.3ZM30.44 42.18H32.53C35.9767 42.18 38.6167 40.6033 40.45 37.45C42.2833 34.2967 43.2 29.97 43.2 24.47C43.2 13.6167 39.6433 8.19 32.53 8.19H30.44V42.18ZM117.831 67.26C123.404 67.26 127.584 65.3167 130.371 61.43L131.251 61.65C130.518 65.6833 129.308 69.2033 127.621 72.21C125.934 75.1433 123.954 77.4167 121.681 79.03C119.481 80.6433 117.244 81.8167 114.971 82.55C112.698 83.2833 110.388 83.65 108.041 83.65C101.221 83.65 95.3176 81.0467 90.3309 75.84C85.4176 70.6333 82.9609 63.4467 82.9609 54.28C82.9609 45.04 85.3809 37.45 90.2209 31.51C95.1343 25.57 101.331 22.6 108.811 22.6C111.451 22.6 113.981 23.0033 116.401 23.81C118.821 24.5433 121.204 25.8267 123.551 27.66C125.971 29.42 127.878 32.0967 129.271 35.69C130.738 39.2833 131.471 43.5367 131.471 48.45H99.7909C100.598 54.61 102.541 59.3033 105.621 62.53C108.774 65.6833 112.844 67.26 117.831 67.26ZM111.451 30.41C110.351 27.6233 108.664 26.23 106.391 26.23C104.118 26.23 102.358 27.6233 101.111 30.41C99.9376 33.1233 99.3509 36.9733 99.3509 41.96C99.3509 43.3533 99.3876 44.38 99.4609 45.04H113.101C113.101 38.0733 112.551 33.1967 111.451 30.41ZM162.627 83.1L140.187 32.94C138.134 28.3933 135.714 25.68 132.927 24.8V24.25H167.247V24.8C164.02 25.5333 162.407 27.1833 162.407 29.75C162.407 30.7767 162.774 32.2067 163.507 34.04L172.307 54.83L181.107 34.04C181.84 32.2067 182.207 30.8133 182.207 29.86C182.207 27.22 180.594 25.5333 177.367 24.8V24.25H192.767V24.8C189.98 25.5333 187.56 28.2467 185.507 32.94L163.287 83.1H162.627ZM244.367 75.18C238.72 80.8267 231.497 83.65 222.697 83.65C213.897 83.65 206.673 80.8267 201.027 75.18C195.38 69.46 192.557 62.09 192.557 53.07C192.557 44.05 195.38 36.7167 201.027 31.07C206.673 25.4233 213.897 22.6 222.697 22.6C231.497 22.6 238.72 25.4233 244.367 31.07C250.013 36.7167 252.837 44.05 252.837 53.07C252.837 62.09 250.013 69.46 244.367 75.18ZM216.427 73.31C217.747 77.27 219.837 79.25 222.697 79.25C225.557 79.25 227.61 77.27 228.857 73.31C230.177 69.2767 230.837 62.53 230.837 53.07C230.837 43.61 230.177 36.9 228.857 32.94C227.61 28.9067 225.557 26.89 222.697 26.89C219.837 26.89 217.747 28.9067 216.427 32.94C215.18 36.9 214.557 43.61 214.557 53.07C214.557 62.53 215.18 69.2767 216.427 73.31ZM284.965 73.2C284.965 77.16 286.761 79.91 290.355 81.45V82H258.675V81.45C262.268 79.91 264.065 77.16 264.065 73.2V18.53C264.065 14.2767 262.268 11.5267 258.675 10.28V9.73L284.965 1.7V73.2ZM352.758 73.2C352.758 75.7667 353.198 77.6 354.078 78.7C354.958 79.7267 356.315 80.6433 358.148 81.45V82H331.858V72.1C330.832 75.4733 328.998 78.26 326.358 80.46C323.792 82.5867 320.638 83.65 316.898 83.65C306.705 83.65 301.608 77.82 301.608 66.16V36.46C301.608 33.7467 301.205 31.73 300.398 30.41C299.592 29.0167 298.198 28.0267 296.218 27.44V26.89L322.508 22.6V66.38C322.508 70.56 324.232 72.65 327.678 72.65C329.585 72.65 330.978 71.88 331.858 70.34V36.35C331.858 31.29 330.612 28.21 328.118 27.11V26.56L352.758 22.6V73.2ZM403.891 67.04L404.881 67.37C403.487 71.9167 401.067 75.7667 397.621 78.92C394.174 82.0733 389.774 83.65 384.421 83.65C379.434 83.65 375.657 82.22 373.091 79.36C370.597 76.4267 369.351 72.5767 369.351 67.81V27.33H363.961V26.78C366.527 24.58 370.744 21.1333 376.611 16.44C382.551 11.6733 387.061 7.93333 390.141 5.22H390.251V24.47H400.371V27.22H390.251V64.84C390.251 67.26 390.764 69.1667 391.791 70.56C392.817 71.9533 394.284 72.65 396.191 72.65C400.004 72.65 402.571 70.78 403.891 67.04ZM433.127 18.64C431.073 20.6933 428.507 21.72 425.427 21.72C422.347 21.72 419.743 20.6933 417.617 18.64C415.563 16.5133 414.537 13.9467 414.537 10.94C414.537 7.93333 415.563 5.36666 417.617 3.24C419.743 1.11333 422.347 0.0499929 425.427 0.0499929C428.507 0.0499929 431.073 1.11333 433.127 3.24C435.253 5.36666 436.317 7.93333 436.317 10.94C436.317 13.9467 435.253 16.5133 433.127 18.64ZM436.427 73.2C436.427 77.16 438.223 79.91 441.817 81.45V82H410.137V81.45C413.73 79.91 415.527 77.16 415.527 73.2V39.43C415.527 36.79 415.123 34.81 414.317 33.49C413.51 32.17 412.117 31.2167 410.137 30.63V30.08L436.427 22.6V73.2ZM500.578 75.18C494.931 80.8267 487.708 83.65 478.908 83.65C470.108 83.65 462.884 80.8267 457.238 75.18C451.591 69.46 448.768 62.09 448.768 53.07C448.768 44.05 451.591 36.7167 457.238 31.07C462.884 25.4233 470.108 22.6 478.908 22.6C487.708 22.6 494.931 25.4233 500.578 31.07C506.224 36.7167 509.048 44.05 509.048 53.07C509.048 62.09 506.224 69.46 500.578 75.18ZM472.638 73.31C473.958 77.27 476.048 79.25 478.908 79.25C481.768 79.25 483.821 77.27 485.068 73.31C486.388 69.2767 487.048 62.53 487.048 53.07C487.048 43.61 486.388 36.9 485.068 32.94C483.821 28.9067 481.768 26.89 478.908 26.89C476.048 26.89 473.958 28.9067 472.638 32.94C471.391 36.9 470.768 43.61 470.768 53.07C470.768 62.53 471.391 69.2767 472.638 73.31ZM572.109 73.2C572.109 77.16 573.905 79.91 577.499 81.45V82H548.019V81.45C550.145 80.4233 551.209 78.04 551.209 74.3V38.55C551.209 34.0767 549.522 31.84 546.149 31.84C543.875 31.84 542.079 32.7567 540.759 34.59V74.3C540.759 78.04 541.822 80.4233 543.949 81.45V82H514.469V81.45C518.062 79.91 519.859 77.16 519.859 73.2V39.43C519.859 36.79 519.455 34.81 518.649 33.49C517.842 32.17 516.449 31.2167 514.469 30.63V30.08L540.759 22.6V32.61C543.252 25.9367 548.385 22.6 556.159 22.6C561.219 22.6 565.142 23.9933 567.929 26.78C570.715 29.5667 572.109 33.49 572.109 38.55V73.2ZM603.607 55.93V52.96C603.607 51.1267 603.973 49.5133 604.707 48.12C605.44 46.7267 606.687 45.0033 608.447 42.95C611.82 38.9167 613.507 33.6733 613.507 27.22C613.507 23.26 612.26 19.96 609.767 17.32C607.347 14.6067 604.377 13.25 600.857 13.25C596.383 13.25 592.827 14.35 590.187 16.55C587.62 18.75 585.677 22.2333 584.357 27L583.367 26.67C584.76 19.0433 587.803 13.1767 592.497 9.06999C597.263 4.89 603.387 2.8 610.867 2.8C617.173 2.8 622.343 4.63333 626.377 8.3C630.483 11.8933 632.537 16.5133 632.537 22.16C632.537 31.4 627.257 38.5133 616.697 43.5C613.25 45.1867 610.83 46.8367 609.437 48.45C608.043 50.0633 607.347 52.08 607.347 54.5V55.93H603.607ZM606.027 83.76C603.02 83.76 600.453 82.6967 598.327 80.57C596.273 78.4433 595.247 75.9133 595.247 72.98C595.247 70.0467 596.31 67.5533 598.437 65.5C600.563 63.3733 603.093 62.31 606.027 62.31C608.96 62.31 611.453 63.3733 613.507 65.5C615.633 67.5533 616.697 70.0467 616.697 72.98C616.697 75.9133 615.633 78.4433 613.507 80.57C611.453 82.6967 608.96 83.76 606.027 83.76Z" fill="white"/>
</svg>
